<svg width="468" height="258" viewBox="0 0 468 258" fill="none" xmlns="http://www.w3.org/2000/svg">
<rect width="468" height="258" rx="4" fill="#E1E7F1"/>
<rect x="33" y="36" width="402" height="58" fill="white" stroke="#BBCAE4" stroke-width="2"/>
<path fill-rule="evenodd" clip-rule="evenodd" d="M68.6667 67.6667H67.6133L67.24 67.3067C68.5467 65.7867 69.3333 63.8133 69.3333 61.6667C69.3333 56.88 65.4533 53 60.6667 53C55.88 53 52 56.88 52 61.6667C52 66.4533 55.88 70.3333 60.6667 70.3333C62.8133 70.3333 64.7867 69.5467 66.3067 68.24L66.6667 68.6133V69.6667L73.3333 76.32L75.32 74.3333L68.6667 67.6667ZM60.6667 67.6667C57.3467 67.6667 54.6667 64.9867 54.6667 61.6667C54.6667 58.3467 57.3467 55.6667 60.6667 55.6667C63.9867 55.6667 66.6667 58.3467 66.6667 61.6667C66.6667 64.9867 63.9867 67.6667 60.6667 67.6667Z" fill="#345D96"/>
<path d="M106.552 66.592C106.552 67.5253 106.4 68.336 106.096 69.024C105.792 69.7067 105.299 70.2347 104.616 70.608C103.939 70.976 103.04 71.16 101.92 71.16C100.795 71.16 99.8933 70.9733 99.216 70.6C98.5387 70.2213 98.048 69.6853 97.744 68.992C97.4453 68.2987 97.296 67.472 97.296 66.512V59.432H99.672V66.688C99.672 67.552 99.88 68.184 100.296 68.584C100.712 68.9787 101.253 69.176 101.92 69.176C102.363 69.176 102.755 69.0907 103.096 68.92C103.437 68.744 103.704 68.4747 103.896 68.112C104.093 67.744 104.192 67.2693 104.192 66.688V59.432H106.552V66.592ZM111.85 71.16C111.274 71.16 110.719 71.0667 110.186 70.88C109.653 70.688 109.202 70.3893 108.834 69.984C108.466 69.5733 108.231 69.0427 108.13 68.392H110.154C110.223 68.6853 110.349 68.9173 110.53 69.088C110.717 69.2587 110.927 69.3813 111.162 69.456C111.397 69.5253 111.621 69.56 111.834 69.56C112.282 69.56 112.642 69.4907 112.914 69.352C113.191 69.208 113.33 68.9893 113.33 68.696C113.33 68.472 113.247 68.2933 113.082 68.16C112.922 68.0267 112.655 67.9253 112.282 67.856L110.826 67.552C110.095 67.3973 109.509 67.136 109.066 66.768C108.623 66.3947 108.397 65.8667 108.386 65.184C108.386 64.688 108.517 64.2427 108.778 63.848C109.045 63.4533 109.437 63.1413 109.954 62.912C110.471 62.6827 111.106 62.568 111.858 62.568C112.877 62.568 113.69 62.792 114.298 63.24C114.911 63.688 115.223 64.32 115.234 65.136H113.282C113.223 64.816 113.063 64.5707 112.802 64.4C112.546 64.224 112.223 64.136 111.834 64.136C111.429 64.136 111.095 64.208 110.834 64.352C110.573 64.496 110.442 64.7147 110.442 65.008C110.442 65.2267 110.549 65.4 110.762 65.528C110.975 65.6507 111.306 65.7573 111.754 65.848L113.098 66.152C113.562 66.264 113.938 66.4187 114.226 66.616C114.519 66.808 114.746 67.0187 114.906 67.248C115.066 67.4773 115.175 67.7093 115.234 67.944C115.298 68.1733 115.33 68.3813 115.33 68.568C115.33 69.1173 115.183 69.5867 114.89 69.976C114.597 70.36 114.189 70.6533 113.666 70.856C113.143 71.0587 112.538 71.16 111.85 71.16ZM118.889 67.4C118.883 67.8213 118.95 68.1893 119.089 68.504C119.227 68.8133 119.427 69.0533 119.689 69.224C119.955 69.3893 120.275 69.472 120.649 69.472C121.049 69.472 121.398 69.3867 121.697 69.216C122.001 69.0453 122.211 68.7653 122.329 68.376H124.433C124.342 68.9627 124.107 69.464 123.729 69.88C123.355 70.296 122.902 70.6133 122.369 70.832C121.835 71.0507 121.281 71.16 120.705 71.16C119.889 71.16 119.169 70.9893 118.545 70.648C117.926 70.3013 117.443 69.8133 117.097 69.184C116.75 68.5547 116.577 67.8133 116.577 66.96C116.577 66.1333 116.734 65.3893 117.049 64.728C117.363 64.0613 117.819 63.536 118.417 63.152C119.019 62.7627 119.742 62.568 120.585 62.568C121.427 62.568 122.134 62.7467 122.705 63.104C123.281 63.456 123.713 63.9493 124.001 64.584C124.294 65.2133 124.441 65.9413 124.441 66.768V67.4H118.889ZM118.881 66.008H122.257C122.257 65.6773 122.195 65.3733 122.073 65.096C121.95 64.8187 121.763 64.6 121.513 64.44C121.267 64.28 120.958 64.2 120.585 64.2C120.222 64.2 119.913 64.288 119.657 64.464C119.406 64.6347 119.214 64.8587 119.081 65.136C118.947 65.4133 118.881 65.704 118.881 66.008ZM134.399 64.352H132.559L132.575 68.76C132.575 68.9627 132.599 69.1147 132.647 69.216C132.701 69.312 132.781 69.376 132.887 69.408C132.999 69.4347 133.141 69.448 133.311 69.448H134.423V70.888C134.317 70.936 134.149 70.9813 133.919 71.024C133.695 71.0667 133.381 71.088 132.975 71.088C132.25 71.088 131.687 70.9947 131.287 70.808C130.893 70.6213 130.618 70.36 130.463 70.024C130.309 69.688 130.231 69.2987 130.231 68.856V64.352H128.887V62.728H130.311L130.895 60.232H132.559V62.72H134.399V64.352ZM136.125 71V59.112H138.445V63.92C138.578 63.728 138.746 63.5387 138.949 63.352C139.152 63.16 139.405 63 139.709 62.872C140.013 62.744 140.384 62.68 140.821 62.68C141.349 62.68 141.829 62.784 142.261 62.992C142.698 63.1947 143.048 63.4907 143.309 63.88C143.576 64.2693 143.709 64.744 143.709 65.304V71H141.365V65.648C141.365 65.2747 141.229 64.9893 140.957 64.792C140.69 64.5893 140.365 64.488 139.981 64.488C139.73 64.488 139.488 64.5333 139.253 64.624C139.018 64.7147 138.826 64.8533 138.677 65.04C138.533 65.2213 138.461 65.448 138.461 65.72V71H136.125ZM147.529 67.4C147.524 67.8213 147.591 68.1893 147.729 68.504C147.868 68.8133 148.068 69.0533 148.329 69.224C148.596 69.3893 148.916 69.472 149.289 69.472C149.689 69.472 150.039 69.3867 150.337 69.216C150.641 69.0453 150.852 68.7653 150.969 68.376H153.073C152.983 68.9627 152.748 69.464 152.369 69.88C151.996 70.296 151.543 70.6133 151.009 70.832C150.476 71.0507 149.921 71.16 149.345 71.16C148.529 71.16 147.809 70.9893 147.185 70.648C146.567 70.3013 146.084 69.8133 145.737 69.184C145.391 68.5547 145.217 67.8133 145.217 66.96C145.217 66.1333 145.375 65.3893 145.689 64.728C146.004 64.0613 146.46 63.536 147.057 63.152C147.66 62.7627 148.383 62.568 149.225 62.568C150.068 62.568 150.775 62.7467 151.345 63.104C151.921 63.456 152.353 63.9493 152.641 64.584C152.935 65.2133 153.081 65.9413 153.081 66.768V67.4H147.529ZM147.521 66.008H150.897C150.897 65.6773 150.836 65.3733 150.713 65.096C150.591 64.8187 150.404 64.6 150.153 64.44C149.908 64.28 149.599 64.2 149.225 64.2C148.863 64.2 148.553 64.288 148.297 64.464C148.047 64.6347 147.855 64.8587 147.721 65.136C147.588 65.4133 147.521 65.704 147.521 66.008ZM162.407 59.272C163.202 59.272 163.911 59.3973 164.535 59.648C165.164 59.8987 165.66 60.2667 166.023 60.752C166.386 61.232 166.567 61.824 166.567 62.528C166.567 63.12 166.404 63.624 166.079 64.04C165.754 64.456 165.354 64.776 164.879 65C165.231 65.0747 165.575 65.2507 165.911 65.528C166.252 65.8 166.532 66.136 166.751 66.536C166.97 66.9307 167.079 67.3493 167.079 67.792C167.079 68.48 166.884 69.0773 166.495 69.584C166.111 70.0907 165.567 70.4827 164.863 70.76C164.164 71.032 163.346 71.168 162.407 71.168C161.479 71.168 160.666 71.032 159.967 70.76C159.268 70.4827 158.724 70.0907 158.335 69.584C157.946 69.0773 157.751 68.48 157.751 67.792C157.751 67.3493 157.86 66.9307 158.079 66.536C158.298 66.136 158.575 65.8 158.911 65.528C159.247 65.2507 159.594 65.0747 159.951 65C159.476 64.776 159.074 64.456 158.743 64.04C158.412 63.624 158.247 63.12 158.247 62.528C158.247 61.824 158.428 61.232 158.791 60.752C159.159 60.2667 159.658 59.8987 160.287 59.648C160.916 59.3973 161.623 59.272 162.407 59.272ZM162.407 64.096C162.94 64.096 163.378 63.9547 163.719 63.672C164.066 63.384 164.239 62.9867 164.239 62.48C164.239 61.9787 164.066 61.5813 163.719 61.288C163.372 60.9947 162.935 60.848 162.407 60.848C161.884 60.848 161.45 60.9947 161.103 61.288C160.756 61.5813 160.583 61.9787 160.583 62.48C160.583 62.9867 160.756 63.384 161.103 63.672C161.45 63.9547 161.884 64.096 162.407 64.096ZM162.407 69.408C163.09 69.408 163.623 69.256 164.007 68.952C164.396 68.6427 164.591 68.2347 164.591 67.728C164.591 67.3867 164.503 67.088 164.327 66.832C164.151 66.5707 163.9 66.3653 163.575 66.216C163.25 66.0667 162.86 65.992 162.407 65.992C161.964 65.992 161.58 66.0667 161.255 66.216C160.93 66.3653 160.679 66.5707 160.503 66.832C160.327 67.088 160.239 67.3867 160.239 67.728C160.239 68.2347 160.434 68.6427 160.823 68.952C161.212 69.256 161.74 69.408 162.407 69.408ZM173.094 59.272C173.889 59.272 174.598 59.3973 175.222 59.648C175.852 59.8987 176.348 60.2667 176.71 60.752C177.073 61.232 177.254 61.824 177.254 62.528C177.254 63.12 177.092 63.624 176.766 64.04C176.441 64.456 176.041 64.776 175.566 65C175.918 65.0747 176.262 65.2507 176.598 65.528C176.94 65.8 177.22 66.136 177.438 66.536C177.657 66.9307 177.766 67.3493 177.766 67.792C177.766 68.48 177.572 69.0773 177.182 69.584C176.798 70.0907 176.254 70.4827 175.55 70.76C174.852 71.032 174.033 71.168 173.094 71.168C172.166 71.168 171.353 71.032 170.654 70.76C169.956 70.4827 169.412 70.0907 169.022 69.584C168.633 69.0773 168.438 68.48 168.438 67.792C168.438 67.3493 168.548 66.9307 168.766 66.536C168.985 66.136 169.262 65.8 169.598 65.528C169.934 65.2507 170.281 65.0747 170.638 65C170.164 64.776 169.761 64.456 169.43 64.04C169.1 63.624 168.934 63.12 168.934 62.528C168.934 61.824 169.116 61.232 169.478 60.752C169.846 60.2667 170.345 59.8987 170.974 59.648C171.604 59.3973 172.31 59.272 173.094 59.272ZM173.094 64.096C173.628 64.096 174.065 63.9547 174.406 63.672C174.753 63.384 174.926 62.9867 174.926 62.48C174.926 61.9787 174.753 61.5813 174.406 61.288C174.06 60.9947 173.622 60.848 173.094 60.848C172.572 60.848 172.137 60.9947 171.79 61.288C171.444 61.5813 171.27 61.9787 171.27 62.48C171.27 62.9867 171.444 63.384 171.79 63.672C172.137 63.9547 172.572 64.096 173.094 64.096ZM173.094 69.408C173.777 69.408 174.31 69.256 174.694 68.952C175.084 68.6427 175.278 68.2347 175.278 67.728C175.278 67.3867 175.19 67.088 175.014 66.832C174.838 66.5707 174.588 66.3653 174.262 66.216C173.937 66.0667 173.548 65.992 173.094 65.992C172.652 65.992 172.268 66.0667 171.942 66.216C171.617 66.3653 171.366 66.5707 171.19 66.832C171.014 67.088 170.926 67.3867 170.926 67.728C170.926 68.2347 171.121 68.6427 171.51 68.952C171.9 69.256 172.428 69.408 173.094 69.408ZM183.374 71.176C182.654 71.176 181.982 71.0373 181.358 70.76C180.734 70.4827 180.225 70.0933 179.83 69.592C179.435 69.0853 179.214 68.4933 179.166 67.816H181.39C181.486 68.264 181.699 68.6293 182.03 68.912C182.361 69.1893 182.777 69.328 183.278 69.328C183.833 69.328 184.318 69.1973 184.734 68.936C185.155 68.6747 185.47 68.2587 185.678 67.688C185.891 67.1173 185.966 66.3707 185.902 65.448C185.753 65.7307 185.545 65.9787 185.278 66.192C185.017 66.4 184.71 66.5627 184.358 66.68C184.006 66.792 183.614 66.848 183.182 66.848C182.398 66.848 181.702 66.7013 181.094 66.408C180.491 66.1093 180.017 65.688 179.67 65.144C179.329 64.5947 179.158 63.944 179.158 63.192C179.158 62.4347 179.339 61.76 179.702 61.168C180.065 60.576 180.571 60.112 181.222 59.776C181.873 59.44 182.635 59.272 183.51 59.272C184.491 59.272 185.337 59.5067 186.046 59.976C186.761 60.44 187.307 61.1013 187.686 61.96C188.07 62.8133 188.262 63.8187 188.262 64.976C188.262 66.3573 188.065 67.5093 187.67 68.432C187.281 69.3493 186.721 70.0373 185.99 70.496C185.259 70.9493 184.387 71.176 183.374 71.176ZM183.582 64.992C183.907 64.992 184.222 64.92 184.526 64.776C184.835 64.6267 185.089 64.44 185.286 64.216C185.483 63.992 185.582 63.76 185.582 63.52C185.587 63.0027 185.505 62.56 185.334 62.192C185.169 61.8187 184.934 61.5333 184.63 61.336C184.331 61.1387 183.982 61.04 183.582 61.04C183.214 61.04 182.886 61.1253 182.598 61.296C182.31 61.4667 182.083 61.7067 181.918 62.016C181.753 62.3253 181.67 62.6827 181.67 63.088C181.67 63.6907 181.846 64.16 182.198 64.496C182.55 64.8267 183.011 64.992 183.582 64.992ZM196.631 71.16C196.055 71.16 195.501 71.0667 194.967 70.88C194.434 70.688 193.983 70.3893 193.615 69.984C193.247 69.5733 193.013 69.0427 192.911 68.392H194.935C195.005 68.6853 195.13 68.9173 195.311 69.088C195.498 69.2587 195.709 69.3813 195.943 69.456C196.178 69.5253 196.402 69.56 196.615 69.56C197.063 69.56 197.423 69.4907 197.695 69.352C197.973 69.208 198.111 68.9893 198.111 68.696C198.111 68.472 198.029 68.2933 197.863 68.16C197.703 68.0267 197.437 67.9253 197.063 67.856L195.607 67.552C194.877 67.3973 194.29 67.136 193.847 66.768C193.405 66.3947 193.178 65.8667 193.167 65.184C193.167 64.688 193.298 64.2427 193.559 63.848C193.826 63.4533 194.218 63.1413 194.735 62.912C195.253 62.6827 195.887 62.568 196.639 62.568C197.658 62.568 198.471 62.792 199.079 63.24C199.693 63.688 200.005 64.32 200.015 65.136H198.063C198.005 64.816 197.845 64.5707 197.583 64.4C197.327 64.224 197.005 64.136 196.615 64.136C196.21 64.136 195.877 64.208 195.615 64.352C195.354 64.496 195.223 64.7147 195.223 65.008C195.223 65.2267 195.33 65.4 195.543 65.528C195.757 65.6507 196.087 65.7573 196.535 65.848L197.879 66.152C198.343 66.264 198.719 66.4187 199.007 66.616C199.301 66.808 199.527 67.0187 199.687 67.248C199.847 67.4773 199.957 67.7093 200.015 67.944C200.079 68.1733 200.111 68.3813 200.111 68.568C200.111 69.1173 199.965 69.5867 199.671 69.976C199.378 70.36 198.97 70.6533 198.447 70.856C197.925 71.0587 197.319 71.16 196.631 71.16ZM203.67 67.4C203.665 67.8213 203.731 68.1893 203.87 68.504C204.009 68.8133 204.209 69.0533 204.47 69.224C204.737 69.3893 205.057 69.472 205.43 69.472C205.83 69.472 206.179 69.3867 206.478 69.216C206.782 69.0453 206.993 68.7653 207.11 68.376H209.214C209.123 68.9627 208.889 69.464 208.51 69.88C208.137 70.296 207.683 70.6133 207.15 70.832C206.617 71.0507 206.062 71.16 205.486 71.16C204.67 71.16 203.95 70.9893 203.326 70.648C202.707 70.3013 202.225 69.8133 201.878 69.184C201.531 68.5547 201.358 67.8133 201.358 66.96C201.358 66.1333 201.515 65.3893 201.83 64.728C202.145 64.0613 202.601 63.536 203.198 63.152C203.801 62.7627 204.523 62.568 205.366 62.568C206.209 62.568 206.915 62.7467 207.486 63.104C208.062 63.456 208.494 63.9493 208.782 64.584C209.075 65.2133 209.222 65.9413 209.222 66.768V67.4H203.67ZM203.662 66.008H207.038C207.038 65.6773 206.977 65.3733 206.854 65.096C206.731 64.8187 206.545 64.6 206.294 64.44C206.049 64.28 205.739 64.2 205.366 64.2C205.003 64.2 204.694 64.288 204.438 64.464C204.187 64.6347 203.995 64.8587 203.862 65.136C203.729 65.4133 203.662 65.704 203.662 66.008ZM213.197 71.16C212.669 71.16 212.194 71.0613 211.773 70.864C211.352 70.6667 211.018 70.3813 210.773 70.008C210.528 69.6293 210.405 69.1707 210.405 68.632C210.405 67.7253 210.744 67.0373 211.421 66.568C212.098 66.0933 213.168 65.848 214.629 65.832L215.661 65.816V65.32C215.661 64.9413 215.549 64.6507 215.325 64.448C215.106 64.24 214.765 64.1387 214.301 64.144C213.96 64.1493 213.634 64.2293 213.325 64.384C213.021 64.5387 212.813 64.808 212.701 65.192H210.757C210.789 64.5947 210.962 64.104 211.277 63.72C211.592 63.3307 212.018 63.0427 212.557 62.856C213.101 62.664 213.717 62.568 214.405 62.568C215.253 62.568 215.933 62.6747 216.445 62.888C216.957 63.096 217.328 63.3973 217.557 63.792C217.786 64.1813 217.901 64.6453 217.901 65.184V71H215.949L215.757 69.576C215.474 70.1733 215.12 70.5867 214.693 70.816C214.272 71.0453 213.773 71.16 213.197 71.16ZM213.981 69.624C214.194 69.624 214.4 69.5867 214.597 69.512C214.8 69.432 214.978 69.328 215.133 69.2C215.293 69.0667 215.421 68.9173 215.517 68.752C215.613 68.5867 215.661 68.416 215.661 68.24V67.016L214.821 67.032C214.432 67.0373 214.069 67.0853 213.733 67.176C213.397 67.2613 213.125 67.4027 212.917 67.6C212.714 67.7973 212.613 68.064 212.613 68.4C212.613 68.784 212.746 69.0853 213.013 69.304C213.28 69.5173 213.602 69.624 213.981 69.624ZM219.969 71V62.728H222.217V64.688C222.35 64.2667 222.537 63.8987 222.777 63.584C223.022 63.264 223.318 63.016 223.665 62.84C224.011 62.6587 224.403 62.568 224.841 62.568C224.915 62.568 224.985 62.5733 225.049 62.584C225.118 62.5893 225.169 62.6 225.201 62.616V64.84C225.153 64.8187 225.094 64.8053 225.025 64.8C224.961 64.7947 224.902 64.7893 224.849 64.784C224.39 64.7467 223.998 64.76 223.673 64.824C223.347 64.888 223.083 64.9973 222.881 65.152C222.678 65.3067 222.531 65.496 222.441 65.72C222.35 65.944 222.305 66.1947 222.305 66.472V71H219.969ZM229.982 62.568C230.675 62.568 231.272 62.7093 231.774 62.992C232.28 63.2747 232.678 63.656 232.966 64.136C233.259 64.616 233.427 65.152 233.47 65.744H231.526C231.488 65.5253 231.411 65.3093 231.294 65.096C231.176 64.8773 231.011 64.6987 230.798 64.56C230.584 64.416 230.318 64.344 229.998 64.344C229.454 64.344 229.011 64.5547 228.67 64.976C228.334 65.392 228.166 66.0267 228.166 66.88C228.166 67.6853 228.331 68.3253 228.662 68.8C228.992 69.2693 229.454 69.504 230.046 69.504C230.36 69.504 230.622 69.4267 230.83 69.272C231.043 69.1173 231.208 68.9333 231.326 68.72C231.443 68.5013 231.518 68.2987 231.55 68.112H233.446C233.408 68.6827 233.243 69.2 232.95 69.664C232.656 70.1227 232.256 70.488 231.75 70.76C231.248 71.0267 230.659 71.16 229.982 71.16C229.214 71.16 228.528 70.9893 227.926 70.648C227.323 70.3067 226.848 69.8187 226.502 69.184C226.16 68.544 225.99 67.7813 225.99 66.896C225.99 66.0427 226.155 65.2907 226.486 64.64C226.816 63.9893 227.28 63.4827 227.878 63.12C228.48 62.752 229.182 62.568 229.982 62.568ZM235.078 71V59.112H237.398V63.92C237.531 63.728 237.699 63.5387 237.902 63.352C238.105 63.16 238.358 63 238.662 62.872C238.966 62.744 239.337 62.68 239.774 62.68C240.302 62.68 240.782 62.784 241.214 62.992C241.651 63.1947 242.001 63.4907 242.262 63.88C242.529 64.2693 242.662 64.744 242.662 65.304V71H240.318V65.648C240.318 65.2747 240.182 64.9893 239.91 64.792C239.643 64.5893 239.318 64.488 238.934 64.488C238.683 64.488 238.441 64.5333 238.206 64.624C237.971 64.7147 237.779 64.8533 237.63 65.04C237.486 65.2213 237.414 65.448 237.414 65.72V71H235.078ZM252.946 64.352H251.106L251.122 68.76C251.122 68.9627 251.146 69.1147 251.194 69.216C251.248 69.312 251.328 69.376 251.434 69.408C251.546 69.4347 251.688 69.448 251.858 69.448H252.97V70.888C252.864 70.936 252.696 70.9813 252.466 71.024C252.242 71.0667 251.928 71.088 251.522 71.088C250.797 71.088 250.234 70.9947 249.834 70.808C249.44 70.6213 249.165 70.36 249.01 70.024C248.856 69.688 248.778 69.2987 248.778 68.856V64.352H247.434V62.728H248.858L249.442 60.232H251.106V62.72H252.946V64.352ZM257.958 71.16C257.148 71.16 256.441 70.9867 255.838 70.64C255.241 70.2933 254.777 69.8027 254.446 69.168C254.121 68.5333 253.958 67.7813 253.958 66.912C253.958 66.0427 254.121 65.2827 254.446 64.632C254.777 63.9813 255.241 63.4747 255.838 63.112C256.441 62.7493 257.15 62.568 257.966 62.568C258.782 62.568 259.489 62.7467 260.086 63.104C260.684 63.456 261.145 63.9573 261.47 64.608C261.796 65.2587 261.958 66.0267 261.958 66.912C261.958 67.744 261.798 68.48 261.478 69.12C261.164 69.7547 260.708 70.2533 260.11 70.616C259.518 70.9787 258.801 71.16 257.958 71.16ZM257.966 69.424C258.377 69.424 258.708 69.304 258.958 69.064C259.209 68.824 259.39 68.5093 259.502 68.12C259.62 67.7253 259.678 67.296 259.678 66.832C259.678 66.3947 259.625 65.9813 259.518 65.592C259.417 65.2027 259.241 64.888 258.99 64.648C258.74 64.408 258.398 64.288 257.966 64.288C257.556 64.288 257.222 64.4027 256.966 64.632C256.716 64.856 256.532 65.1627 256.414 65.552C256.297 65.936 256.238 66.3627 256.238 66.832C256.238 67.264 256.292 67.68 256.398 68.08C256.505 68.4747 256.684 68.7973 256.934 69.048C257.185 69.2987 257.529 69.424 257.966 69.424ZM271.861 62.728V64.352H270.117V71H267.781V64.352H266.253V62.728H267.781V61.536C267.781 60.8693 267.975 60.352 268.365 59.984C268.759 59.616 269.317 59.432 270.036 59.432H271.933L271.941 60.984H270.853C270.554 60.984 270.349 61.0587 270.237 61.208C270.13 61.352 270.077 61.592 270.077 61.928V62.728H271.861ZM275.581 62.728V71H273.349V62.728H275.581ZM275.605 59.44V61.544H273.333V59.44H275.605ZM277.75 71V62.728H280.046V63.896C280.174 63.6933 280.339 63.4987 280.542 63.312C280.75 63.12 281.011 62.9627 281.326 62.84C281.641 62.7173 282.014 62.656 282.446 62.656C282.953 62.656 283.425 62.7547 283.862 62.952C284.305 63.1493 284.662 63.4613 284.934 63.888C285.206 64.3093 285.342 64.8613 285.342 65.544V71H283.006V65.832C283.006 65.384 282.873 65.048 282.606 64.824C282.339 64.6 282.014 64.488 281.63 64.488C281.374 64.488 281.126 64.5333 280.886 64.624C280.651 64.7147 280.459 64.8507 280.31 65.032C280.161 65.2133 280.086 65.4373 280.086 65.704V71H277.75ZM290.306 71.16C289.197 71.16 288.333 70.7787 287.714 70.016C287.096 69.248 286.786 68.1813 286.786 66.816C286.786 65.952 286.912 65.2027 287.162 64.568C287.413 63.9333 287.784 63.4427 288.274 63.096C288.765 62.744 289.365 62.568 290.074 62.568C290.373 62.568 290.65 62.6027 290.906 62.672C291.168 62.736 291.405 62.8267 291.618 62.944C291.832 63.0613 292.018 63.1973 292.178 63.352C292.338 63.5067 292.469 63.672 292.57 63.848V59.112H294.914V71H293.218L292.954 69.304C292.88 69.5333 292.776 69.7573 292.642 69.976C292.509 70.1947 292.338 70.3947 292.13 70.576C291.922 70.752 291.666 70.8933 291.362 71C291.064 71.1067 290.712 71.16 290.306 71.16ZM290.818 69.48C291.405 69.48 291.842 69.2747 292.13 68.864C292.424 68.4533 292.57 67.76 292.57 66.784C292.565 66.2187 292.498 65.7493 292.37 65.376C292.242 65.0027 292.05 64.7253 291.794 64.544C291.544 64.3573 291.224 64.264 290.834 64.264C290.328 64.264 289.906 64.4587 289.57 64.848C289.234 65.232 289.066 65.8773 289.066 66.784C289.066 67.7067 289.224 68.3867 289.538 68.824C289.853 69.2613 290.28 69.48 290.818 69.48ZM301.554 73.64C300.988 73.64 300.588 73.592 300.354 73.496C300.124 73.4053 300.01 73.36 300.01 73.36V71.872L300.826 71.904C301.183 71.9253 301.471 71.9067 301.69 71.848C301.908 71.7947 302.074 71.7227 302.186 71.632C302.303 71.5413 302.386 71.4453 302.434 71.344C302.482 71.248 302.516 71.1707 302.538 71.112L302.69 70.656L299.474 62.728H301.786L303.77 68.12L305.778 62.728H308.058L304.706 71.048C304.418 71.752 304.114 72.2907 303.794 72.664C303.474 73.0373 303.127 73.2933 302.754 73.432C302.386 73.5707 301.986 73.64 301.554 73.64ZM312.474 71.16C311.663 71.16 310.957 70.9867 310.354 70.64C309.757 70.2933 309.293 69.8027 308.962 69.168C308.637 68.5333 308.474 67.7813 308.474 66.912C308.474 66.0427 308.637 65.2827 308.962 64.632C309.293 63.9813 309.757 63.4747 310.354 63.112C310.957 62.7493 311.666 62.568 312.482 62.568C313.298 62.568 314.005 62.7467 314.602 63.104C315.199 63.456 315.661 63.9573 315.986 64.608C316.311 65.2587 316.474 66.0267 316.474 66.912C316.474 67.744 316.314 68.48 315.994 69.12C315.679 69.7547 315.223 70.2533 314.626 70.616C314.034 70.9787 313.317 71.16 312.474 71.16ZM312.482 69.424C312.893 69.424 313.223 69.304 313.474 69.064C313.725 68.824 313.906 68.5093 314.018 68.12C314.135 67.7253 314.194 67.296 314.194 66.832C314.194 66.3947 314.141 65.9813 314.034 65.592C313.933 65.2027 313.757 64.888 313.506 64.648C313.255 64.408 312.914 64.288 312.482 64.288C312.071 64.288 311.738 64.4027 311.482 64.632C311.231 64.856 311.047 65.1627 310.93 65.552C310.813 65.936 310.754 66.3627 310.754 66.832C310.754 67.264 310.807 67.68 310.914 68.08C311.021 68.4747 311.199 68.7973 311.45 69.048C311.701 69.2987 312.045 69.424 312.482 69.424ZM320.986 71.16C320.602 71.16 320.223 71.1013 319.85 70.984C319.482 70.8667 319.146 70.6933 318.842 70.464C318.538 70.2347 318.292 69.952 318.106 69.616C317.924 69.28 317.834 68.8907 317.834 68.448V62.728H320.17V68.152C320.17 68.536 320.295 68.8507 320.546 69.096C320.796 69.3413 321.164 69.464 321.65 69.464C322.108 69.464 322.471 69.3467 322.738 69.112C323.01 68.872 323.146 68.5387 323.146 68.112V62.728H325.458V71H323.698L323.426 69.36C323.33 69.8453 323.148 70.2187 322.882 70.48C322.62 70.736 322.319 70.912 321.978 71.008C321.642 71.1093 321.311 71.16 320.986 71.16ZM327.406 71V62.728H329.654V64.688C329.788 64.2667 329.974 63.8987 330.214 63.584C330.46 63.264 330.756 63.016 331.102 62.84C331.449 62.6587 331.841 62.568 332.278 62.568C332.353 62.568 332.422 62.5733 332.486 62.584C332.556 62.5893 332.606 62.6 332.638 62.616V64.84C332.59 64.8187 332.532 64.8053 332.462 64.8C332.398 64.7947 332.34 64.7893 332.286 64.784C331.828 64.7467 331.436 64.76 331.11 64.824C330.785 64.888 330.521 64.9973 330.318 65.152C330.116 65.3067 329.969 65.496 329.878 65.72C329.788 65.944 329.742 66.1947 329.742 66.472V71H327.406ZM344.362 62.728L341.258 71H339.57L336.458 62.728H338.57L340.378 68H340.442L342.226 62.728H344.362ZM347.139 67.4C347.133 67.8213 347.2 68.1893 347.339 68.504C347.477 68.8133 347.677 69.0533 347.939 69.224C348.205 69.3893 348.525 69.472 348.899 69.472C349.299 69.472 349.648 69.3867 349.947 69.216C350.251 69.0453 350.461 68.7653 350.579 68.376H352.683C352.592 68.9627 352.357 69.464 351.979 69.88C351.605 70.296 351.152 70.6133 350.619 70.832C350.085 71.0507 349.531 71.16 348.955 71.16C348.139 71.16 347.419 70.9893 346.795 70.648C346.176 70.3013 345.693 69.8133 345.347 69.184C345 68.5547 344.827 67.8133 344.827 66.96C344.827 66.1333 344.984 65.3893 345.299 64.728C345.613 64.0613 346.069 63.536 346.667 63.152C347.269 62.7627 347.992 62.568 348.835 62.568C349.677 62.568 350.384 62.7467 350.955 63.104C351.531 63.456 351.963 63.9493 352.251 64.584C352.544 65.2133 352.691 65.9413 352.691 66.768V67.4H347.139ZM347.131 66.008H350.507C350.507 65.6773 350.445 65.3733 350.323 65.096C350.2 64.8187 350.013 64.6 349.763 64.44C349.517 64.28 349.208 64.2 348.835 64.2C348.472 64.2 348.163 64.288 347.907 64.464C347.656 64.6347 347.464 64.8587 347.331 65.136C347.197 65.4133 347.131 65.704 347.131 66.008ZM354.312 71V62.728H356.609V63.896C356.737 63.6933 356.902 63.4987 357.105 63.312C357.313 63.12 357.574 62.9627 357.889 62.84C358.203 62.7173 358.577 62.656 359.009 62.656C359.515 62.656 359.987 62.7547 360.425 62.952C360.867 63.1493 361.225 63.4613 361.497 63.888C361.769 64.3093 361.905 64.8613 361.905 65.544V71H359.569V65.832C359.569 65.384 359.435 65.048 359.169 64.824C358.902 64.6 358.577 64.488 358.193 64.488C357.937 64.488 357.689 64.5333 357.449 64.624C357.214 64.7147 357.022 64.8507 356.873 65.032C356.723 65.2133 356.649 65.4373 356.649 65.704V71H354.312ZM366.869 71.16C365.76 71.16 364.896 70.7787 364.277 70.016C363.658 69.248 363.349 68.1813 363.349 66.816C363.349 65.952 363.474 65.2027 363.725 64.568C363.976 63.9333 364.346 63.4427 364.837 63.096C365.328 62.744 365.928 62.568 366.637 62.568C366.936 62.568 367.213 62.6027 367.469 62.672C367.73 62.736 367.968 62.8267 368.181 62.944C368.394 63.0613 368.581 63.1973 368.741 63.352C368.901 63.5067 369.032 63.672 369.133 63.848V59.112H371.477V71H369.781L369.517 69.304C369.442 69.5333 369.338 69.7573 369.205 69.976C369.072 70.1947 368.901 70.3947 368.693 70.576C368.485 70.752 368.229 70.8933 367.925 71C367.626 71.1067 367.274 71.16 366.869 71.16ZM367.381 69.48C367.968 69.48 368.405 69.2747 368.693 68.864C368.986 68.4533 369.133 67.76 369.133 66.784C369.128 66.2187 369.061 65.7493 368.933 65.376C368.805 65.0027 368.613 64.7253 368.357 64.544C368.106 64.3573 367.786 64.264 367.397 64.264C366.89 64.264 366.469 64.4587 366.133 64.848C365.797 65.232 365.629 65.8773 365.629 66.784C365.629 67.7067 365.786 68.3867 366.101 68.824C366.416 69.2613 366.842 69.48 367.381 69.48ZM377.036 71.16C376.226 71.16 375.519 70.9867 374.916 70.64C374.319 70.2933 373.855 69.8027 373.524 69.168C373.199 68.5333 373.036 67.7813 373.036 66.912C373.036 66.0427 373.199 65.2827 373.524 64.632C373.855 63.9813 374.319 63.4747 374.916 63.112C375.519 62.7493 376.228 62.568 377.044 62.568C377.86 62.568 378.567 62.7467 379.164 63.104C379.762 63.456 380.223 63.9573 380.548 64.608C380.874 65.2587 381.036 66.0267 381.036 66.912C381.036 67.744 380.876 68.48 380.556 69.12C380.242 69.7547 379.786 70.2533 379.188 70.616C378.596 70.9787 377.879 71.16 377.036 71.16ZM377.044 69.424C377.455 69.424 377.786 69.304 378.036 69.064C378.287 68.824 378.468 68.5093 378.58 68.12C378.698 67.7253 378.756 67.296 378.756 66.832C378.756 66.3947 378.703 65.9813 378.596 65.592C378.495 65.2027 378.319 64.888 378.068 64.648C377.818 64.408 377.476 64.288 377.044 64.288C376.634 64.288 376.3 64.4027 376.044 64.632C375.794 64.856 375.61 65.1627 375.492 65.552C375.375 65.936 375.316 66.3627 375.316 66.832C375.316 67.264 375.37 67.68 375.476 68.08C375.583 68.4747 375.762 68.7973 376.012 69.048C376.263 69.2987 376.607 69.424 377.044 69.424ZM382.594 71V62.728H384.842V64.688C384.975 64.2667 385.162 63.8987 385.402 63.584C385.647 63.264 385.943 63.016 386.29 62.84C386.636 62.6587 387.028 62.568 387.466 62.568C387.54 62.568 387.61 62.5733 387.674 62.584C387.743 62.5893 387.794 62.6 387.826 62.616V64.84C387.778 64.8187 387.719 64.8053 387.65 64.8C387.586 64.7947 387.527 64.7893 387.474 64.784C387.015 64.7467 386.623 64.76 386.298 64.824C385.972 64.888 385.708 64.9973 385.506 65.152C385.303 65.3067 385.156 65.496 385.066 65.72C384.975 65.944 384.93 66.1947 384.93 66.472V71H382.594Z" fill="#345D96"/>
<rect x="48" y="99" width="372" height="60" fill="white"/>
<path fill-rule="evenodd" clip-rule="evenodd" d="M80.0013 116.666C72.6413 116.666 66.668 122.639 66.668 129.999C66.668 137.359 72.6413 143.333 80.0013 143.333C87.3613 143.333 93.3346 137.359 93.3346 129.999C93.3346 122.639 87.3613 116.666 80.0013 116.666ZM77.3346 136.666L70.668 129.999L72.548 128.119L77.3346 132.893L87.4546 122.773L89.3346 124.666L77.3346 136.666Z" fill="#4D8055"/>
<path d="M109.528 124.432H111.008V136H109.528V124.432ZM113.755 136V127.728H115.187V128.928C115.321 128.699 115.505 128.483 115.739 128.28C115.979 128.077 116.267 127.915 116.603 127.792C116.945 127.669 117.337 127.608 117.779 127.608C118.302 127.608 118.782 127.712 119.219 127.92C119.662 128.128 120.014 128.453 120.275 128.896C120.542 129.333 120.675 129.899 120.675 130.592V136H119.195V130.736C119.195 130.091 119.025 129.613 118.683 129.304C118.347 128.989 117.91 128.832 117.371 128.832C116.998 128.832 116.649 128.893 116.323 129.016C115.998 129.133 115.734 129.315 115.531 129.56C115.329 129.8 115.227 130.104 115.227 130.472V136H113.755ZM129.77 127.568C130.362 127.568 130.895 127.683 131.37 127.912C131.845 128.136 132.231 128.456 132.53 128.872C132.834 129.288 133.023 129.779 133.098 130.344H131.786C131.738 130.056 131.626 129.792 131.45 129.552C131.279 129.312 131.053 129.12 130.77 128.976C130.487 128.832 130.157 128.76 129.778 128.76C129.069 128.76 128.493 129.016 128.05 129.528C127.607 130.04 127.386 130.824 127.386 131.88C127.386 132.835 127.589 133.6 127.994 134.176C128.405 134.747 129.007 135.032 129.802 135.032C130.181 135.032 130.509 134.96 130.786 134.816C131.069 134.667 131.295 134.472 131.466 134.232C131.637 133.987 131.746 133.725 131.794 133.448H133.082C133.013 134.003 132.826 134.483 132.522 134.888C132.218 135.293 131.829 135.608 131.354 135.832C130.885 136.051 130.357 136.16 129.77 136.16C129.029 136.16 128.37 135.997 127.794 135.672C127.223 135.347 126.775 134.867 126.45 134.232C126.125 133.597 125.962 132.819 125.962 131.896C125.962 131.032 126.109 130.277 126.402 129.632C126.701 128.981 127.133 128.475 127.698 128.112C128.269 127.749 128.959 127.568 129.77 127.568ZM138.387 136.16C137.624 136.16 136.958 135.997 136.387 135.672C135.816 135.341 135.374 134.859 135.059 134.224C134.744 133.589 134.587 132.813 134.587 131.896C134.587 131.032 134.734 130.275 135.027 129.624C135.32 128.973 135.75 128.469 136.315 128.112C136.886 127.749 137.576 127.568 138.387 127.568C139.15 127.568 139.811 127.736 140.371 128.072C140.936 128.403 141.374 128.891 141.683 129.536C141.992 130.181 142.147 130.968 142.147 131.896C142.147 132.739 142.003 133.48 141.715 134.12C141.432 134.76 141.011 135.261 140.451 135.624C139.896 135.981 139.208 136.16 138.387 136.16ZM138.387 134.992C138.883 134.992 139.302 134.867 139.643 134.616C139.984 134.365 140.243 134.005 140.419 133.536C140.595 133.067 140.683 132.509 140.683 131.864C140.683 131.272 140.606 130.741 140.451 130.272C140.296 129.797 140.048 129.421 139.707 129.144C139.371 128.867 138.931 128.728 138.387 128.728C137.886 128.728 137.462 128.853 137.115 129.104C136.768 129.349 136.504 129.707 136.323 130.176C136.147 130.645 136.059 131.208 136.059 131.864C136.059 132.445 136.139 132.973 136.299 133.448C136.459 133.923 136.71 134.299 137.051 134.576C137.392 134.853 137.838 134.992 138.387 134.992ZM144.083 136V127.728H145.507V128.928C145.737 128.565 146.051 128.248 146.451 127.976C146.851 127.704 147.371 127.568 148.011 127.568C148.31 127.568 148.614 127.619 148.923 127.72C149.238 127.821 149.526 127.973 149.787 128.176C150.049 128.379 150.251 128.627 150.395 128.92C150.651 128.515 150.998 128.189 151.435 127.944C151.873 127.693 152.366 127.568 152.915 127.568C153.203 127.568 153.505 127.613 153.819 127.704C154.134 127.789 154.425 127.944 154.691 128.168C154.963 128.387 155.185 128.693 155.355 129.088C155.526 129.477 155.611 129.979 155.611 130.592V136H154.123V130.736C154.123 130.235 154.043 129.848 153.883 129.576C153.723 129.299 153.513 129.104 153.251 128.992C152.995 128.88 152.721 128.824 152.427 128.824C152.171 128.824 151.899 128.875 151.611 128.976C151.323 129.077 151.078 129.248 150.875 129.488C150.673 129.728 150.571 130.056 150.571 130.472V136H149.099V130.304C149.099 129.979 149.011 129.707 148.835 129.488C148.665 129.269 148.449 129.104 148.187 128.992C147.931 128.88 147.675 128.824 147.419 128.824C147.137 128.824 146.851 128.88 146.563 128.992C146.281 129.104 146.041 129.283 145.843 129.528C145.651 129.768 145.555 130.083 145.555 130.472V136H144.083ZM157.927 138.576V127.728H159.399L159.415 129.168C159.511 128.997 159.634 128.819 159.783 128.632C159.938 128.445 160.124 128.272 160.343 128.112C160.567 127.952 160.826 127.821 161.119 127.72C161.418 127.619 161.756 127.568 162.135 127.568C162.796 127.568 163.378 127.72 163.879 128.024C164.386 128.323 164.78 128.781 165.063 129.4C165.346 130.019 165.487 130.803 165.487 131.752C165.487 132.701 165.348 133.504 165.071 134.16C164.799 134.811 164.404 135.307 163.887 135.648C163.37 135.989 162.746 136.16 162.015 136.16C161.647 136.16 161.319 136.107 161.031 136C160.748 135.899 160.5 135.765 160.287 135.6C160.079 135.429 159.903 135.248 159.759 135.056C159.62 134.864 159.506 134.68 159.415 134.504V138.576H157.927ZM161.735 135.008C162.418 135.008 162.975 134.749 163.407 134.232C163.839 133.709 164.055 132.899 164.055 131.8C164.055 130.856 163.858 130.107 163.463 129.552C163.068 128.997 162.492 128.72 161.735 128.72C160.967 128.72 160.386 129.005 159.991 129.576C159.596 130.141 159.399 130.883 159.399 131.8C159.399 132.392 159.487 132.931 159.663 133.416C159.839 133.901 160.1 134.288 160.447 134.576C160.794 134.864 161.223 135.008 161.735 135.008ZM169.515 136.104C169.067 136.104 168.704 136.043 168.427 135.92C168.155 135.797 167.944 135.632 167.795 135.424C167.651 135.216 167.552 134.979 167.499 134.712C167.451 134.44 167.427 134.16 167.427 133.872V124.112H168.883V133.728C168.883 134.144 168.963 134.456 169.123 134.664C169.288 134.872 169.518 134.987 169.811 135.008L170.259 135.016V135.976C170.136 136.013 170.008 136.043 169.875 136.064C169.742 136.091 169.622 136.104 169.515 136.104ZM173.762 127.728V136H172.33V127.728H173.762ZM173.794 124.44V125.976H172.282V124.44H173.794ZM178.653 136.16C178.119 136.16 177.647 136.067 177.237 135.88C176.826 135.688 176.503 135.413 176.269 135.056C176.039 134.699 175.925 134.267 175.925 133.76C175.925 132.843 176.245 132.16 176.885 131.712C177.525 131.264 178.551 131.024 179.965 130.992L181.445 130.952V130.304C181.445 129.797 181.293 129.397 180.989 129.104C180.685 128.805 180.213 128.656 179.573 128.656C179.098 128.661 178.679 128.773 178.317 128.992C177.959 129.211 177.727 129.568 177.621 130.064H176.317C176.349 129.525 176.501 129.072 176.773 128.704C177.045 128.331 177.423 128.048 177.909 127.856C178.399 127.664 178.978 127.568 179.645 127.568C180.365 127.568 180.962 127.669 181.437 127.872C181.917 128.075 182.274 128.373 182.509 128.768C182.749 129.163 182.869 129.648 182.869 130.224V136H181.605L181.501 134.448C181.181 135.093 180.773 135.541 180.277 135.792C179.786 136.037 179.245 136.16 178.653 136.16ZM179.101 135.096C179.378 135.096 179.653 135.045 179.925 134.944C180.202 134.843 180.455 134.707 180.685 134.536C180.914 134.36 181.095 134.165 181.229 133.952C181.367 133.733 181.439 133.509 181.445 133.28V131.864L180.213 131.888C179.583 131.899 179.055 131.963 178.629 132.08C178.207 132.197 177.89 132.381 177.677 132.632C177.469 132.883 177.365 133.211 177.365 133.616C177.365 134.08 177.525 134.443 177.845 134.704C178.17 134.965 178.589 135.096 179.101 135.096ZM185.396 136V127.728H186.828V128.928C186.961 128.699 187.145 128.483 187.38 128.28C187.62 128.077 187.908 127.915 188.244 127.792C188.585 127.669 188.977 127.608 189.42 127.608C189.943 127.608 190.423 127.712 190.86 127.92C191.303 128.128 191.655 128.453 191.916 128.896C192.183 129.333 192.316 129.899 192.316 130.592V136H190.836V130.736C190.836 130.091 190.665 129.613 190.324 129.304C189.988 128.989 189.551 128.832 189.012 128.832C188.639 128.832 188.289 128.893 187.964 129.016C187.639 129.133 187.375 129.315 187.172 129.56C186.969 129.8 186.868 130.104 186.868 130.472V136H185.396ZM197.926 127.568C198.518 127.568 199.052 127.683 199.526 127.912C200.001 128.136 200.388 128.456 200.686 128.872C200.99 129.288 201.18 129.779 201.254 130.344H199.942C199.894 130.056 199.782 129.792 199.606 129.552C199.436 129.312 199.209 129.12 198.926 128.976C198.644 128.832 198.313 128.76 197.934 128.76C197.225 128.76 196.649 129.016 196.206 129.528C195.764 130.04 195.542 130.824 195.542 131.88C195.542 132.835 195.745 133.6 196.15 134.176C196.561 134.747 197.164 135.032 197.958 135.032C198.337 135.032 198.665 134.96 198.942 134.816C199.225 134.667 199.452 134.472 199.622 134.232C199.793 133.987 199.902 133.725 199.95 133.448H201.238C201.169 134.003 200.982 134.483 200.678 134.888C200.374 135.293 199.985 135.608 199.51 135.832C199.041 136.051 198.513 136.16 197.926 136.16C197.185 136.16 196.526 135.997 195.95 135.672C195.38 135.347 194.932 134.867 194.606 134.232C194.281 133.597 194.118 132.819 194.118 131.896C194.118 131.032 194.265 130.277 194.558 129.632C194.857 128.981 195.289 128.475 195.854 128.112C196.425 127.749 197.116 127.568 197.926 127.568ZM204.311 132.208C204.311 132.731 204.397 133.205 204.567 133.632C204.743 134.053 205.007 134.389 205.359 134.64C205.717 134.891 206.162 135.016 206.695 135.016C207.223 135.016 207.677 134.893 208.055 134.648C208.439 134.403 208.685 134.048 208.791 133.584H210.191C210.09 134.144 209.866 134.616 209.519 135C209.173 135.384 208.754 135.675 208.263 135.872C207.773 136.064 207.261 136.16 206.727 136.16C205.954 136.16 205.274 135.992 204.687 135.656C204.101 135.32 203.642 134.837 203.311 134.208C202.981 133.579 202.815 132.824 202.815 131.944C202.815 131.075 202.965 130.312 203.263 129.656C203.562 129 203.994 128.488 204.559 128.12C205.13 127.752 205.815 127.568 206.615 127.568C207.394 127.568 208.053 127.736 208.591 128.072C209.13 128.408 209.538 128.883 209.815 129.496C210.098 130.104 210.239 130.827 210.239 131.664V132.208H204.311ZM204.319 131.208H208.815C208.815 130.733 208.735 130.307 208.575 129.928C208.415 129.544 208.17 129.243 207.839 129.024C207.514 128.8 207.103 128.688 206.607 128.688C206.09 128.688 205.661 128.813 205.319 129.064C204.983 129.309 204.73 129.627 204.559 130.016C204.394 130.4 204.314 130.797 204.319 131.208ZM226.651 127.728L224.147 136H222.691L220.803 129.896L219.011 136H217.563L215.011 127.728H216.379L218.275 134.088H218.403L220.267 127.728H221.387L223.323 134.072H223.451L225.267 127.728H226.651ZM229.933 127.728V136H228.501V127.728H229.933ZM229.965 124.44V125.976H228.453V124.44H229.965ZM236.849 128.808H234.985V133.952C234.985 134.245 235.014 134.461 235.073 134.6C235.137 134.733 235.241 134.819 235.385 134.856C235.534 134.893 235.737 134.912 235.993 134.912H236.897V135.904C236.795 135.941 236.641 135.973 236.433 136C236.23 136.027 235.977 136.04 235.673 136.04C235.102 136.04 234.659 135.963 234.345 135.808C234.03 135.653 233.809 135.424 233.681 135.12C233.558 134.816 233.497 134.443 233.497 134V128.808H232.153V127.728H233.537L233.897 125.32H234.985V127.72H236.849V128.808ZM238.974 136V124.112H240.414V128.944C240.553 128.715 240.739 128.501 240.974 128.304C241.209 128.101 241.494 127.939 241.83 127.816C242.166 127.688 242.555 127.624 242.998 127.624C243.537 127.624 244.025 127.725 244.462 127.928C244.899 128.125 245.246 128.408 245.502 128.776C245.758 129.144 245.886 129.581 245.886 130.088V136H244.406V130.384C244.406 129.888 244.235 129.507 243.894 129.24C243.558 128.968 243.118 128.832 242.574 128.832C242.206 128.832 241.859 128.893 241.534 129.016C241.209 129.133 240.945 129.315 240.742 129.56C240.545 129.8 240.446 130.107 240.446 130.48V136H238.974ZM256.112 136.16C255.568 136.16 255.04 136.093 254.528 135.96C254.016 135.821 253.552 135.616 253.136 135.344C252.72 135.072 252.374 134.736 252.096 134.336C251.824 133.931 251.654 133.461 251.584 132.928H253.136C253.232 133.365 253.422 133.733 253.704 134.032C253.992 134.331 254.342 134.555 254.752 134.704C255.168 134.853 255.619 134.928 256.104 134.928C256.648 134.928 257.134 134.853 257.56 134.704C257.992 134.549 258.331 134.331 258.576 134.048C258.827 133.765 258.952 133.427 258.952 133.032C258.952 132.685 258.872 132.384 258.712 132.128C258.558 131.872 258.331 131.659 258.032 131.488C257.734 131.317 257.371 131.184 256.944 131.088L254.672 130.56C253.819 130.373 253.15 130.04 252.664 129.56C252.184 129.08 251.939 128.445 251.928 127.656C251.928 126.989 252.104 126.403 252.456 125.896C252.814 125.389 253.302 124.995 253.92 124.712C254.544 124.429 255.256 124.288 256.056 124.288C256.979 124.288 257.755 124.445 258.384 124.76C259.014 125.075 259.488 125.488 259.808 126C260.128 126.512 260.291 127.059 260.296 127.64H258.768C258.72 127.117 258.566 126.704 258.304 126.4C258.048 126.091 257.726 125.872 257.336 125.744C256.947 125.611 256.523 125.544 256.064 125.544C255.734 125.544 255.414 125.587 255.104 125.672C254.8 125.752 254.526 125.875 254.28 126.04C254.04 126.205 253.848 126.411 253.704 126.656C253.56 126.901 253.488 127.187 253.488 127.512C253.488 127.928 253.63 128.267 253.912 128.528C254.2 128.789 254.72 129.013 255.472 129.2L257.672 129.728C258.248 129.851 258.718 130.032 259.08 130.272C259.448 130.512 259.731 130.784 259.928 131.088C260.131 131.392 260.27 131.709 260.344 132.04C260.424 132.371 260.464 132.696 260.464 133.016C260.464 133.597 260.291 134.128 259.944 134.608C259.598 135.083 259.099 135.461 258.448 135.744C257.803 136.021 257.024 136.16 256.112 136.16ZM263.718 132.208C263.718 132.731 263.803 133.205 263.974 133.632C264.15 134.053 264.414 134.389 264.766 134.64C265.123 134.891 265.568 135.016 266.102 135.016C266.63 135.016 267.083 134.893 267.462 134.648C267.846 134.403 268.091 134.048 268.198 133.584H269.598C269.496 134.144 269.272 134.616 268.926 135C268.579 135.384 268.16 135.675 267.67 135.872C267.179 136.064 266.667 136.16 266.134 136.16C265.36 136.16 264.68 135.992 264.094 135.656C263.507 135.32 263.048 134.837 262.718 134.208C262.387 133.579 262.222 132.824 262.222 131.944C262.222 131.075 262.371 130.312 262.67 129.656C262.968 129 263.4 128.488 263.966 128.12C264.536 127.752 265.222 127.568 266.022 127.568C266.8 127.568 267.459 127.736 267.998 128.072C268.536 128.408 268.944 128.883 269.222 129.496C269.504 130.104 269.646 130.827 269.646 131.664V132.208H263.718ZM263.726 131.208H268.222C268.222 130.733 268.142 130.307 267.982 129.928C267.822 129.544 267.576 129.243 267.246 129.024C266.92 128.8 266.51 128.688 266.014 128.688C265.496 128.688 265.067 128.813 264.726 129.064C264.39 129.309 264.136 129.627 263.966 130.016C263.8 130.4 263.72 130.797 263.726 131.208ZM274.973 127.568C275.565 127.568 276.098 127.683 276.573 127.912C277.048 128.136 277.434 128.456 277.733 128.872C278.037 129.288 278.226 129.779 278.301 130.344H276.989C276.941 130.056 276.829 129.792 276.653 129.552C276.482 129.312 276.256 129.12 275.973 128.976C275.69 128.832 275.36 128.76 274.981 128.76C274.272 128.76 273.696 129.016 273.253 129.528C272.81 130.04 272.589 130.824 272.589 131.88C272.589 132.835 272.792 133.6 273.197 134.176C273.608 134.747 274.21 135.032 275.005 135.032C275.384 135.032 275.712 134.96 275.989 134.816C276.272 134.667 276.498 134.472 276.669 134.232C276.84 133.987 276.949 133.725 276.997 133.448H278.285C278.216 134.003 278.029 134.483 277.725 134.888C277.421 135.293 277.032 135.608 276.557 135.832C276.088 136.051 275.56 136.16 274.973 136.16C274.232 136.16 273.573 135.997 272.997 135.672C272.426 135.347 271.978 134.867 271.653 134.232C271.328 133.597 271.165 132.819 271.165 131.896C271.165 131.032 271.312 130.277 271.605 129.632C271.904 128.981 272.336 128.475 272.901 128.112C273.472 127.749 274.162 127.568 274.973 127.568ZM284.239 128.808H282.375V133.952C282.375 134.245 282.404 134.461 282.463 134.6C282.527 134.733 282.631 134.819 282.775 134.856C282.924 134.893 283.127 134.912 283.383 134.912H284.287V135.904C284.186 135.941 284.031 135.973 283.823 136C283.62 136.027 283.367 136.04 283.063 136.04C282.492 136.04 282.05 135.963 281.735 135.808C281.42 135.653 281.199 135.424 281.071 135.12C280.948 134.816 280.887 134.443 280.887 134V128.808H279.543V127.728H280.927L281.287 125.32H282.375V127.72H284.239V128.808ZM287.965 127.728V136H286.533V127.728H287.965ZM287.997 124.44V125.976H286.485V124.44H287.997ZM293.856 136.16C293.093 136.16 292.426 135.997 291.856 135.672C291.285 135.341 290.842 134.859 290.528 134.224C290.213 133.589 290.056 132.813 290.056 131.896C290.056 131.032 290.202 130.275 290.496 129.624C290.789 128.973 291.218 128.469 291.784 128.112C292.354 127.749 293.045 127.568 293.856 127.568C294.618 127.568 295.28 127.736 295.84 128.072C296.405 128.403 296.842 128.891 297.152 129.536C297.461 130.181 297.616 130.968 297.616 131.896C297.616 132.739 297.472 133.48 297.184 134.12C296.901 134.76 296.48 135.261 295.92 135.624C295.365 135.981 294.677 136.16 293.856 136.16ZM293.856 134.992C294.352 134.992 294.77 134.867 295.112 134.616C295.453 134.365 295.712 134.005 295.888 133.536C296.064 133.067 296.152 132.509 296.152 131.864C296.152 131.272 296.074 130.741 295.92 130.272C295.765 129.797 295.517 129.421 295.176 129.144C294.84 128.867 294.4 128.728 293.856 128.728C293.354 128.728 292.93 128.853 292.584 129.104C292.237 129.349 291.973 129.707 291.792 130.176C291.616 130.645 291.528 131.208 291.528 131.864C291.528 132.445 291.608 132.973 291.768 133.448C291.928 133.923 292.178 134.299 292.52 134.576C292.861 134.853 293.306 134.992 293.856 134.992ZM299.552 136V127.728H300.984V128.928C301.117 128.699 301.301 128.483 301.536 128.28C301.776 128.077 302.064 127.915 302.4 127.792C302.741 127.669 303.133 127.608 303.576 127.608C304.099 127.608 304.579 127.712 305.016 127.92C305.459 128.128 305.811 128.453 306.072 128.896C306.339 129.333 306.472 129.899 306.472 130.592V136H304.992V130.736C304.992 130.091 304.821 129.613 304.48 129.304C304.144 128.989 303.707 128.832 303.168 128.832C302.795 128.832 302.445 128.893 302.12 129.016C301.795 129.133 301.531 129.315 301.328 129.56C301.125 129.8 301.024 130.104 301.024 130.472V136H299.552ZM316.426 124.272C317.167 124.272 317.831 124.395 318.418 124.64C319.005 124.885 319.469 125.243 319.81 125.712C320.151 126.181 320.322 126.752 320.322 127.424C320.322 128.053 320.151 128.581 319.81 129.008C319.474 129.435 319.039 129.76 318.506 129.984C318.895 130.059 319.266 130.24 319.618 130.528C319.975 130.816 320.269 131.165 320.498 131.576C320.727 131.987 320.842 132.416 320.842 132.864C320.842 133.531 320.658 134.112 320.29 134.608C319.927 135.104 319.415 135.491 318.754 135.768C318.093 136.04 317.317 136.176 316.426 136.176C315.541 136.176 314.767 136.04 314.106 135.768C313.445 135.491 312.93 135.104 312.562 134.608C312.199 134.112 312.018 133.531 312.018 132.864C312.018 132.416 312.13 131.987 312.354 131.576C312.583 131.165 312.877 130.816 313.234 130.528C313.591 130.24 313.965 130.059 314.354 129.984C313.826 129.76 313.389 129.435 313.042 129.008C312.701 128.581 312.53 128.053 312.53 127.424C312.53 126.752 312.701 126.181 313.042 125.712C313.383 125.243 313.847 124.885 314.434 124.64C315.026 124.395 315.69 124.272 316.426 124.272ZM316.426 129.36C317.13 129.36 317.701 129.187 318.138 128.84C318.581 128.493 318.802 128.011 318.802 127.392C318.802 126.768 318.581 126.277 318.138 125.92C317.695 125.557 317.125 125.376 316.426 125.376C315.727 125.376 315.157 125.557 314.714 125.92C314.271 126.283 314.05 126.773 314.05 127.392C314.05 128.011 314.271 128.493 314.714 128.84C315.157 129.187 315.727 129.36 316.426 129.36ZM316.426 134.976C317.285 134.976 317.97 134.784 318.482 134.4C318.994 134.011 319.25 133.496 319.25 132.856C319.25 132.435 319.133 132.059 318.898 131.728C318.669 131.397 318.343 131.139 317.922 130.952C317.501 130.76 317.002 130.664 316.426 130.664C315.855 130.664 315.359 130.76 314.938 130.952C314.522 131.139 314.197 131.397 313.962 131.728C313.733 132.059 313.618 132.435 313.618 132.856C313.618 133.496 313.871 134.011 314.378 134.4C314.89 134.784 315.573 134.976 316.426 134.976ZM326.692 124.272C327.433 124.272 328.097 124.395 328.684 124.64C329.27 124.885 329.734 125.243 330.076 125.712C330.417 126.181 330.588 126.752 330.588 127.424C330.588 128.053 330.417 128.581 330.076 129.008C329.74 129.435 329.305 129.76 328.772 129.984C329.161 130.059 329.532 130.24 329.884 130.528C330.241 130.816 330.534 131.165 330.764 131.576C330.993 131.987 331.108 132.416 331.108 132.864C331.108 133.531 330.924 134.112 330.556 134.608C330.193 135.104 329.681 135.491 329.02 135.768C328.358 136.04 327.582 136.176 326.692 136.176C325.806 136.176 325.033 136.04 324.372 135.768C323.71 135.491 323.196 135.104 322.828 134.608C322.465 134.112 322.284 133.531 322.284 132.864C322.284 132.416 322.396 131.987 322.62 131.576C322.849 131.165 323.142 130.816 323.5 130.528C323.857 130.24 324.23 130.059 324.62 129.984C324.092 129.76 323.654 129.435 323.308 129.008C322.966 128.581 322.796 128.053 322.796 127.424C322.796 126.752 322.966 126.181 323.308 125.712C323.649 125.243 324.113 124.885 324.7 124.64C325.292 124.395 325.956 124.272 326.692 124.272ZM326.692 129.36C327.396 129.36 327.966 129.187 328.404 128.84C328.846 128.493 329.068 128.011 329.068 127.392C329.068 126.768 328.846 126.277 328.404 125.92C327.961 125.557 327.39 125.376 326.692 125.376C325.993 125.376 325.422 125.557 324.98 125.92C324.537 126.283 324.316 126.773 324.316 127.392C324.316 128.011 324.537 128.493 324.98 128.84C325.422 129.187 325.993 129.36 326.692 129.36ZM326.692 134.976C327.55 134.976 328.236 134.784 328.748 134.4C329.26 134.011 329.516 133.496 329.516 132.856C329.516 132.435 329.398 132.059 329.164 131.728C328.934 131.397 328.609 131.139 328.188 130.952C327.766 130.76 327.268 130.664 326.692 130.664C326.121 130.664 325.625 130.76 325.204 130.952C324.788 131.139 324.462 131.397 324.228 131.728C323.998 132.059 323.884 132.435 323.884 132.856C323.884 133.496 324.137 134.011 324.644 134.4C325.156 134.784 325.838 134.976 326.692 134.976ZM336.429 136.176C335.789 136.176 335.192 136.056 334.637 135.816C334.088 135.571 333.627 135.224 333.253 134.776C332.885 134.328 332.659 133.792 332.573 133.168H334.013C334.147 133.696 334.424 134.125 334.845 134.456C335.267 134.781 335.779 134.944 336.381 134.944C337.064 134.944 337.648 134.765 338.133 134.408C338.624 134.051 338.989 133.499 339.229 132.752C339.469 132.005 339.56 131.048 339.501 129.88C339.368 130.285 339.157 130.643 338.869 130.952C338.581 131.256 338.235 131.496 337.829 131.672C337.424 131.848 336.976 131.936 336.485 131.936C335.723 131.936 335.051 131.787 334.469 131.488C333.888 131.189 333.435 130.763 333.109 130.208C332.789 129.653 332.629 128.989 332.629 128.216C332.629 127.443 332.789 126.76 333.109 126.168C333.429 125.576 333.888 125.112 334.485 124.776C335.083 124.44 335.792 124.272 336.613 124.272C337.509 124.272 338.285 124.504 338.941 124.968C339.597 125.427 340.104 126.088 340.461 126.952C340.819 127.811 340.997 128.843 340.997 130.048C340.997 131.344 340.819 132.448 340.461 133.36C340.109 134.272 339.592 134.971 338.909 135.456C338.232 135.936 337.405 136.176 336.429 136.176ZM336.645 130.68C337.072 130.68 337.477 130.581 337.861 130.384C338.245 130.187 338.557 129.925 338.797 129.6C339.043 129.269 339.165 128.909 339.165 128.52C339.171 127.923 339.069 127.397 338.861 126.944C338.653 126.485 338.357 126.128 337.973 125.872C337.589 125.611 337.141 125.48 336.629 125.48C336.16 125.48 335.744 125.592 335.381 125.816C335.024 126.04 334.741 126.352 334.533 126.752C334.331 127.152 334.229 127.616 334.229 128.144C334.229 128.917 334.435 129.533 334.845 129.992C335.256 130.451 335.856 130.68 336.645 130.68Z" fill="#13171F"/>
<rect x="48" y="163" width="372" height="60" fill="white"/>
<path fill-rule="evenodd" clip-rule="evenodd" d="M65.332 204.999H94.6654L79.9987 179.666L65.332 204.999ZM81.332 200.999H78.6654V198.333H81.332V200.999ZM81.332 195.666H78.6654V190.333H81.332V195.666Z" fill="#B51D09"/>
<path d="M117.056 187.432H118.536V199H117.216L111.008 189.88V199H109.528V187.432H110.944L117.056 196.424V187.432ZM124.465 199.16C123.702 199.16 123.036 198.997 122.465 198.672C121.894 198.341 121.452 197.859 121.137 197.224C120.822 196.589 120.665 195.813 120.665 194.896C120.665 194.032 120.812 193.275 121.105 192.624C121.398 191.973 121.828 191.469 122.393 191.112C122.964 190.749 123.654 190.568 124.465 190.568C125.228 190.568 125.889 190.736 126.449 191.072C127.014 191.403 127.452 191.891 127.761 192.536C128.07 193.181 128.225 193.968 128.225 194.896C128.225 195.739 128.081 196.48 127.793 197.12C127.51 197.76 127.089 198.261 126.529 198.624C125.974 198.981 125.286 199.16 124.465 199.16ZM124.465 197.992C124.961 197.992 125.38 197.867 125.721 197.616C126.062 197.365 126.321 197.005 126.497 196.536C126.673 196.067 126.761 195.509 126.761 194.864C126.761 194.272 126.684 193.741 126.529 193.272C126.374 192.797 126.126 192.421 125.785 192.144C125.449 191.867 125.009 191.728 124.465 191.728C123.964 191.728 123.54 191.853 123.193 192.104C122.846 192.349 122.582 192.707 122.401 193.176C122.225 193.645 122.137 194.208 122.137 194.864C122.137 195.445 122.217 195.973 122.377 196.448C122.537 196.923 122.788 197.299 123.129 197.576C123.47 197.853 123.916 197.992 124.465 197.992ZM134.099 191.808H132.235V196.952C132.235 197.245 132.264 197.461 132.323 197.6C132.387 197.733 132.491 197.819 132.635 197.856C132.784 197.893 132.987 197.912 133.243 197.912H134.147V198.904C134.045 198.941 133.891 198.973 133.683 199C133.48 199.027 133.227 199.04 132.923 199.04C132.352 199.04 131.909 198.963 131.595 198.808C131.28 198.653 131.059 198.424 130.931 198.12C130.808 197.816 130.747 197.443 130.747 197V191.808H129.403V190.728H130.787L131.147 188.32H132.235V190.72H134.099V191.808ZM141.512 190.728V199H140.08V190.728H141.512ZM141.544 187.44V188.976H140.032V187.44H141.544ZM144.208 199V190.728H145.64V191.928C145.774 191.699 145.958 191.483 146.192 191.28C146.432 191.077 146.72 190.915 147.056 190.792C147.398 190.669 147.79 190.608 148.232 190.608C148.755 190.608 149.235 190.712 149.672 190.92C150.115 191.128 150.467 191.453 150.728 191.896C150.995 192.333 151.128 192.899 151.128 193.592V199H149.648V193.736C149.648 193.091 149.478 192.613 149.136 192.304C148.8 191.989 148.363 191.832 147.824 191.832C147.451 191.832 147.102 191.893 146.776 192.016C146.451 192.133 146.187 192.315 145.984 192.56C145.782 192.8 145.68 193.104 145.68 193.472V199H144.208ZM160.223 190.568C160.815 190.568 161.348 190.683 161.823 190.912C162.298 191.136 162.684 191.456 162.983 191.872C163.287 192.288 163.476 192.779 163.551 193.344H162.239C162.191 193.056 162.079 192.792 161.903 192.552C161.732 192.312 161.506 192.12 161.223 191.976C160.94 191.832 160.61 191.76 160.231 191.76C159.522 191.76 158.946 192.016 158.503 192.528C158.06 193.04 157.839 193.824 157.839 194.88C157.839 195.835 158.042 196.6 158.447 197.176C158.858 197.747 159.46 198.032 160.255 198.032C160.634 198.032 160.962 197.96 161.239 197.816C161.522 197.667 161.748 197.472 161.919 197.232C162.09 196.987 162.199 196.725 162.247 196.448H163.535C163.466 197.003 163.279 197.483 162.975 197.888C162.671 198.293 162.282 198.608 161.807 198.832C161.338 199.051 160.81 199.16 160.223 199.16C159.482 199.16 158.823 198.997 158.247 198.672C157.676 198.347 157.228 197.867 156.903 197.232C156.578 196.597 156.415 195.819 156.415 194.896C156.415 194.032 156.562 193.277 156.855 192.632C157.154 191.981 157.586 191.475 158.151 191.112C158.722 190.749 159.412 190.568 160.223 190.568ZM168.84 199.16C168.077 199.16 167.411 198.997 166.84 198.672C166.269 198.341 165.827 197.859 165.512 197.224C165.197 196.589 165.04 195.813 165.04 194.896C165.04 194.032 165.187 193.275 165.48 192.624C165.773 191.973 166.203 191.469 166.768 191.112C167.339 190.749 168.029 190.568 168.84 190.568C169.603 190.568 170.264 190.736 170.824 191.072C171.389 191.403 171.827 191.891 172.136 192.536C172.445 193.181 172.6 193.968 172.6 194.896C172.6 195.739 172.456 196.48 172.168 197.12C171.885 197.76 171.464 198.261 170.904 198.624C170.349 198.981 169.661 199.16 168.84 199.16ZM168.84 197.992C169.336 197.992 169.755 197.867 170.096 197.616C170.437 197.365 170.696 197.005 170.872 196.536C171.048 196.067 171.136 195.509 171.136 194.864C171.136 194.272 171.059 193.741 170.904 193.272C170.749 192.797 170.501 192.421 170.16 192.144C169.824 191.867 169.384 191.728 168.84 191.728C168.339 191.728 167.915 191.853 167.568 192.104C167.221 192.349 166.957 192.707 166.776 193.176C166.6 193.645 166.512 194.208 166.512 194.864C166.512 195.445 166.592 195.973 166.752 196.448C166.912 196.923 167.163 197.299 167.504 197.576C167.845 197.853 168.291 197.992 168.84 197.992ZM174.537 199V190.728H175.961V191.928C176.19 191.565 176.505 191.248 176.905 190.976C177.305 190.704 177.825 190.568 178.465 190.568C178.763 190.568 179.067 190.619 179.377 190.72C179.691 190.821 179.979 190.973 180.241 191.176C180.502 191.379 180.705 191.627 180.849 191.92C181.105 191.515 181.451 191.189 181.889 190.944C182.326 190.693 182.819 190.568 183.369 190.568C183.657 190.568 183.958 190.613 184.273 190.704C184.587 190.789 184.878 190.944 185.145 191.168C185.417 191.387 185.638 191.693 185.809 192.088C185.979 192.477 186.065 192.979 186.065 193.592V199H184.577V193.736C184.577 193.235 184.497 192.848 184.337 192.576C184.177 192.299 183.966 192.104 183.705 191.992C183.449 191.88 183.174 191.824 182.881 191.824C182.625 191.824 182.353 191.875 182.065 191.976C181.777 192.077 181.531 192.248 181.329 192.488C181.126 192.728 181.025 193.056 181.025 193.472V199H179.553V193.304C179.553 192.979 179.465 192.707 179.289 192.488C179.118 192.269 178.902 192.104 178.641 191.992C178.385 191.88 178.129 191.824 177.873 191.824C177.59 191.824 177.305 191.88 177.017 191.992C176.734 192.104 176.494 192.283 176.297 192.528C176.105 192.768 176.009 193.083 176.009 193.472V199H174.537ZM188.38 201.576V190.728H189.852L189.868 192.168C189.964 191.997 190.087 191.819 190.236 191.632C190.391 191.445 190.578 191.272 190.796 191.112C191.02 190.952 191.279 190.821 191.572 190.72C191.871 190.619 192.21 190.568 192.588 190.568C193.25 190.568 193.831 190.72 194.332 191.024C194.839 191.323 195.234 191.781 195.516 192.4C195.799 193.019 195.94 193.803 195.94 194.752C195.94 195.701 195.802 196.504 195.524 197.16C195.252 197.811 194.858 198.307 194.34 198.648C193.823 198.989 193.199 199.16 192.468 199.16C192.1 199.16 191.772 199.107 191.484 199C191.202 198.899 190.954 198.765 190.74 198.6C190.532 198.429 190.356 198.248 190.212 198.056C190.074 197.864 189.959 197.68 189.868 197.504V201.576H188.38ZM192.188 198.008C192.871 198.008 193.428 197.749 193.86 197.232C194.292 196.709 194.508 195.899 194.508 194.8C194.508 193.856 194.311 193.107 193.916 192.552C193.522 191.997 192.946 191.72 192.188 191.72C191.42 191.72 190.839 192.005 190.444 192.576C190.05 193.141 189.852 193.883 189.852 194.8C189.852 195.392 189.94 195.931 190.116 196.416C190.292 196.901 190.554 197.288 190.9 197.576C191.247 197.864 191.676 198.008 192.188 198.008ZM199.968 199.104C199.52 199.104 199.158 199.043 198.88 198.92C198.608 198.797 198.398 198.632 198.248 198.424C198.104 198.216 198.006 197.979 197.952 197.712C197.904 197.44 197.88 197.16 197.88 196.872V187.112H199.336V196.728C199.336 197.144 199.416 197.456 199.576 197.664C199.742 197.872 199.971 197.987 200.264 198.008L200.712 198.016V198.976C200.59 199.013 200.462 199.043 200.328 199.064C200.195 199.091 200.075 199.104 199.968 199.104ZM204.215 190.728V199H202.783V190.728H204.215ZM204.247 187.44V188.976H202.735V187.44H204.247ZM209.106 199.16C208.572 199.16 208.1 199.067 207.69 198.88C207.279 198.688 206.956 198.413 206.722 198.056C206.492 197.699 206.378 197.267 206.378 196.76C206.378 195.843 206.698 195.16 207.338 194.712C207.978 194.264 209.004 194.024 210.418 193.992L211.898 193.952V193.304C211.898 192.797 211.746 192.397 211.442 192.104C211.138 191.805 210.666 191.656 210.026 191.656C209.551 191.661 209.132 191.773 208.77 191.992C208.412 192.211 208.18 192.568 208.074 193.064H206.77C206.802 192.525 206.954 192.072 207.226 191.704C207.498 191.331 207.876 191.048 208.362 190.856C208.852 190.664 209.431 190.568 210.098 190.568C210.818 190.568 211.415 190.669 211.89 190.872C212.37 191.075 212.727 191.373 212.962 191.768C213.202 192.163 213.322 192.648 213.322 193.224V199H212.058L211.954 197.448C211.634 198.093 211.226 198.541 210.73 198.792C210.239 199.037 209.698 199.16 209.106 199.16ZM209.554 198.096C209.831 198.096 210.106 198.045 210.378 197.944C210.655 197.843 210.908 197.707 211.138 197.536C211.367 197.36 211.548 197.165 211.682 196.952C211.82 196.733 211.892 196.509 211.898 196.28V194.864L210.666 194.888C210.036 194.899 209.508 194.963 209.082 195.08C208.66 195.197 208.343 195.381 208.13 195.632C207.922 195.883 207.818 196.211 207.818 196.616C207.818 197.08 207.978 197.443 208.298 197.704C208.623 197.965 209.042 198.096 209.554 198.096ZM215.849 199V190.728H217.281V191.928C217.414 191.699 217.598 191.483 217.833 191.28C218.073 191.077 218.361 190.915 218.697 190.792C219.038 190.669 219.43 190.608 219.873 190.608C220.396 190.608 220.876 190.712 221.313 190.92C221.756 191.128 222.108 191.453 222.369 191.896C222.636 192.333 222.769 192.899 222.769 193.592V199H221.289V193.736C221.289 193.091 221.118 192.613 220.777 192.304C220.441 191.989 220.004 191.832 219.465 191.832C219.092 191.832 218.742 191.893 218.417 192.016C218.092 192.133 217.828 192.315 217.625 192.56C217.422 192.8 217.321 193.104 217.321 193.472V199H215.849ZM228.379 190.568C228.971 190.568 229.505 190.683 229.979 190.912C230.454 191.136 230.841 191.456 231.139 191.872C231.443 192.288 231.633 192.779 231.707 193.344H230.395C230.347 193.056 230.235 192.792 230.059 192.552C229.889 192.312 229.662 192.12 229.379 191.976C229.097 191.832 228.766 191.76 228.387 191.76C227.678 191.76 227.102 192.016 226.659 192.528C226.217 193.04 225.995 193.824 225.995 194.88C225.995 195.835 226.198 196.6 226.603 197.176C227.014 197.747 227.617 198.032 228.411 198.032C228.79 198.032 229.118 197.96 229.395 197.816C229.678 197.667 229.905 197.472 230.075 197.232C230.246 196.987 230.355 196.725 230.403 196.448H231.691C231.622 197.003 231.435 197.483 231.131 197.888C230.827 198.293 230.438 198.608 229.963 198.832C229.494 199.051 228.966 199.16 228.379 199.16C227.638 199.16 226.979 198.997 226.403 198.672C225.833 198.347 225.385 197.867 225.059 197.232C224.734 196.597 224.571 195.819 224.571 194.896C224.571 194.032 224.718 193.277 225.011 192.632C225.31 191.981 225.742 191.475 226.307 191.112C226.878 190.749 227.569 190.568 228.379 190.568ZM234.764 195.208C234.764 195.731 234.85 196.205 235.02 196.632C235.196 197.053 235.46 197.389 235.812 197.64C236.17 197.891 236.615 198.016 237.148 198.016C237.676 198.016 238.13 197.893 238.508 197.648C238.892 197.403 239.138 197.048 239.244 196.584H240.644C240.543 197.144 240.319 197.616 239.972 198C239.626 198.384 239.207 198.675 238.716 198.872C238.226 199.064 237.714 199.16 237.18 199.16C236.407 199.16 235.727 198.992 235.14 198.656C234.554 198.32 234.095 197.837 233.764 197.208C233.434 196.579 233.268 195.824 233.268 194.944C233.268 194.075 233.418 193.312 233.716 192.656C234.015 192 234.447 191.488 235.012 191.12C235.583 190.752 236.268 190.568 237.068 190.568C237.847 190.568 238.506 190.736 239.044 191.072C239.583 191.408 239.991 191.883 240.268 192.496C240.551 193.104 240.692 193.827 240.692 194.664V195.208H234.764ZM234.772 194.208H239.268C239.268 193.733 239.188 193.307 239.028 192.928C238.868 192.544 238.623 192.243 238.292 192.024C237.967 191.8 237.556 191.688 237.06 191.688C236.543 191.688 236.114 191.813 235.772 192.064C235.436 192.309 235.183 192.627 235.012 193.016C234.847 193.4 234.767 193.797 234.772 194.208ZM257.104 190.728L254.6 199H253.144L251.256 192.896L249.464 199H248.016L245.464 190.728H246.832L248.728 197.088H248.856L250.72 190.728H251.84L253.776 197.072H253.904L255.72 190.728H257.104ZM260.387 190.728V199H258.955V190.728H260.387ZM260.419 187.44V188.976H258.907V187.44H260.419ZM267.302 191.808H265.438V196.952C265.438 197.245 265.467 197.461 265.526 197.6C265.59 197.733 265.694 197.819 265.838 197.856C265.987 197.893 266.19 197.912 266.446 197.912H267.35V198.904C267.248 198.941 267.094 198.973 266.886 199C266.683 199.027 266.43 199.04 266.126 199.04C265.555 199.04 265.112 198.963 264.798 198.808C264.483 198.653 264.262 198.424 264.134 198.12C264.011 197.816 263.95 197.443 263.95 197V191.808H262.606V190.728H263.99L264.35 188.32H265.438V190.72H267.302V191.808ZM269.427 199V187.112H270.867V191.944C271.006 191.715 271.192 191.501 271.427 191.304C271.662 191.101 271.947 190.939 272.283 190.816C272.619 190.688 273.008 190.624 273.451 190.624C273.99 190.624 274.478 190.725 274.915 190.928C275.352 191.125 275.699 191.408 275.955 191.776C276.211 192.144 276.339 192.581 276.339 193.088V199H274.859V193.384C274.859 192.888 274.688 192.507 274.347 192.24C274.011 191.968 273.571 191.832 273.027 191.832C272.659 191.832 272.312 191.893 271.987 192.016C271.662 192.133 271.398 192.315 271.195 192.56C270.998 192.8 270.899 193.107 270.899 193.48V199H269.427ZM286.565 199.16C286.021 199.16 285.493 199.093 284.981 198.96C284.469 198.821 284.005 198.616 283.589 198.344C283.173 198.072 282.827 197.736 282.549 197.336C282.277 196.931 282.107 196.461 282.037 195.928H283.589C283.685 196.365 283.875 196.733 284.157 197.032C284.445 197.331 284.795 197.555 285.205 197.704C285.621 197.853 286.072 197.928 286.557 197.928C287.101 197.928 287.587 197.853 288.013 197.704C288.445 197.549 288.784 197.331 289.029 197.048C289.28 196.765 289.405 196.427 289.405 196.032C289.405 195.685 289.325 195.384 289.165 195.128C289.011 194.872 288.784 194.659 288.485 194.488C288.187 194.317 287.824 194.184 287.397 194.088L285.125 193.56C284.272 193.373 283.603 193.04 283.117 192.56C282.637 192.08 282.392 191.445 282.381 190.656C282.381 189.989 282.557 189.403 282.909 188.896C283.267 188.389 283.755 187.995 284.373 187.712C284.997 187.429 285.709 187.288 286.509 187.288C287.432 187.288 288.208 187.445 288.837 187.76C289.467 188.075 289.941 188.488 290.261 189C290.581 189.512 290.744 190.059 290.749 190.64H289.221C289.173 190.117 289.019 189.704 288.757 189.4C288.501 189.091 288.179 188.872 287.789 188.744C287.4 188.611 286.976 188.544 286.517 188.544C286.187 188.544 285.867 188.587 285.557 188.672C285.253 188.752 284.979 188.875 284.733 189.04C284.493 189.205 284.301 189.411 284.157 189.656C284.013 189.901 283.941 190.187 283.941 190.512C283.941 190.928 284.083 191.267 284.365 191.528C284.653 191.789 285.173 192.013 285.925 192.2L288.125 192.728C288.701 192.851 289.171 193.032 289.533 193.272C289.901 193.512 290.184 193.784 290.381 194.088C290.584 194.392 290.723 194.709 290.797 195.04C290.877 195.371 290.917 195.696 290.917 196.016C290.917 196.597 290.744 197.128 290.397 197.608C290.051 198.083 289.552 198.461 288.901 198.744C288.256 199.021 287.477 199.16 286.565 199.16ZM294.171 195.208C294.171 195.731 294.256 196.205 294.427 196.632C294.603 197.053 294.867 197.389 295.219 197.64C295.576 197.891 296.021 198.016 296.555 198.016C297.083 198.016 297.536 197.893 297.915 197.648C298.299 197.403 298.544 197.048 298.651 196.584H300.051C299.949 197.144 299.725 197.616 299.379 198C299.032 198.384 298.613 198.675 298.123 198.872C297.632 199.064 297.12 199.16 296.587 199.16C295.813 199.16 295.133 198.992 294.547 198.656C293.96 198.32 293.501 197.837 293.171 197.208C292.84 196.579 292.675 195.824 292.675 194.944C292.675 194.075 292.824 193.312 293.123 192.656C293.421 192 293.853 191.488 294.419 191.12C294.989 190.752 295.675 190.568 296.475 190.568C297.253 190.568 297.912 190.736 298.451 191.072C298.989 191.408 299.397 191.883 299.675 192.496C299.957 193.104 300.099 193.827 300.099 194.664V195.208H294.171ZM294.179 194.208H298.675C298.675 193.733 298.595 193.307 298.435 192.928C298.275 192.544 298.029 192.243 297.699 192.024C297.373 191.8 296.963 191.688 296.467 191.688C295.949 191.688 295.52 191.813 295.179 192.064C294.843 192.309 294.589 192.627 294.419 193.016C294.253 193.4 294.173 193.797 294.179 194.208ZM305.426 190.568C306.018 190.568 306.552 190.683 307.026 190.912C307.501 191.136 307.888 191.456 308.186 191.872C308.49 192.288 308.68 192.779 308.754 193.344H307.442C307.394 193.056 307.282 192.792 307.106 192.552C306.936 192.312 306.709 192.12 306.426 191.976C306.144 191.832 305.813 191.76 305.434 191.76C304.725 191.76 304.149 192.016 303.706 192.528C303.264 193.04 303.042 193.824 303.042 194.88C303.042 195.835 303.245 196.6 303.65 197.176C304.061 197.747 304.664 198.032 305.458 198.032C305.837 198.032 306.165 197.96 306.442 197.816C306.725 197.667 306.952 197.472 307.122 197.232C307.293 196.987 307.402 196.725 307.45 196.448H308.738C308.669 197.003 308.482 197.483 308.178 197.888C307.874 198.293 307.485 198.608 307.01 198.832C306.541 199.051 306.013 199.16 305.426 199.16C304.685 199.16 304.026 198.997 303.45 198.672C302.88 198.347 302.432 197.867 302.106 197.232C301.781 196.597 301.618 195.819 301.618 194.896C301.618 194.032 301.765 193.277 302.058 192.632C302.357 191.981 302.789 191.475 303.354 191.112C303.925 190.749 304.616 190.568 305.426 190.568ZM314.692 191.808H312.828V196.952C312.828 197.245 312.858 197.461 312.916 197.6C312.98 197.733 313.084 197.819 313.228 197.856C313.378 197.893 313.58 197.912 313.836 197.912H314.74V198.904C314.639 198.941 314.484 198.973 314.276 199C314.074 199.027 313.82 199.04 313.516 199.04C312.946 199.04 312.503 198.963 312.188 198.808C311.874 198.653 311.652 198.424 311.524 198.12C311.402 197.816 311.34 197.443 311.34 197V191.808H309.996V190.728H311.38L311.74 188.32H312.828V190.72H314.692V191.808ZM318.418 190.728V199H316.986V190.728H318.418ZM318.45 187.44V188.976H316.938V187.44H318.45ZM324.309 199.16C323.546 199.16 322.88 198.997 322.309 198.672C321.738 198.341 321.296 197.859 320.981 197.224C320.666 196.589 320.509 195.813 320.509 194.896C320.509 194.032 320.656 193.275 320.949 192.624C321.242 191.973 321.672 191.469 322.237 191.112C322.808 190.749 323.498 190.568 324.309 190.568C325.072 190.568 325.733 190.736 326.293 191.072C326.858 191.403 327.296 191.891 327.605 192.536C327.914 193.181 328.069 193.968 328.069 194.896C328.069 195.739 327.925 196.48 327.637 197.12C327.354 197.76 326.933 198.261 326.373 198.624C325.818 198.981 325.13 199.16 324.309 199.16ZM324.309 197.992C324.805 197.992 325.224 197.867 325.565 197.616C325.906 197.365 326.165 197.005 326.341 196.536C326.517 196.067 326.605 195.509 326.605 194.864C326.605 194.272 326.528 193.741 326.373 193.272C326.218 192.797 325.97 192.421 325.629 192.144C325.293 191.867 324.853 191.728 324.309 191.728C323.808 191.728 323.384 191.853 323.037 192.104C322.69 192.349 322.426 192.707 322.245 193.176C322.069 193.645 321.981 194.208 321.981 194.864C321.981 195.445 322.061 195.973 322.221 196.448C322.381 196.923 322.632 197.299 322.973 197.576C323.314 197.853 323.76 197.992 324.309 197.992ZM330.005 199V190.728H331.437V191.928C331.571 191.699 331.755 191.483 331.989 191.28C332.229 191.077 332.517 190.915 332.853 190.792C333.195 190.669 333.587 190.608 334.029 190.608C334.552 190.608 335.032 190.712 335.469 190.92C335.912 191.128 336.264 191.453 336.525 191.896C336.792 192.333 336.925 192.899 336.925 193.592V199H335.445V193.736C335.445 193.091 335.275 192.613 334.933 192.304C334.597 191.989 334.16 191.832 333.621 191.832C333.248 191.832 332.899 191.893 332.573 192.016C332.248 192.133 331.984 192.315 331.781 192.56C331.579 192.8 331.477 193.104 331.477 193.472V199H330.005ZM346.879 187.272C347.62 187.272 348.284 187.395 348.871 187.64C349.458 187.885 349.922 188.243 350.263 188.712C350.604 189.181 350.775 189.752 350.775 190.424C350.775 191.053 350.604 191.581 350.263 192.008C349.927 192.435 349.492 192.76 348.959 192.984C349.348 193.059 349.719 193.24 350.071 193.528C350.428 193.816 350.722 194.165 350.951 194.576C351.18 194.987 351.295 195.416 351.295 195.864C351.295 196.531 351.111 197.112 350.743 197.608C350.38 198.104 349.868 198.491 349.207 198.768C348.546 199.04 347.77 199.176 346.879 199.176C345.994 199.176 345.22 199.04 344.559 198.768C343.898 198.491 343.383 198.104 343.015 197.608C342.652 197.112 342.471 196.531 342.471 195.864C342.471 195.416 342.583 194.987 342.807 194.576C343.036 194.165 343.33 193.816 343.687 193.528C344.044 193.24 344.418 193.059 344.807 192.984C344.279 192.76 343.842 192.435 343.495 192.008C343.154 191.581 342.983 191.053 342.983 190.424C342.983 189.752 343.154 189.181 343.495 188.712C343.836 188.243 344.3 187.885 344.887 187.64C345.479 187.395 346.143 187.272 346.879 187.272ZM346.879 192.36C347.583 192.36 348.154 192.187 348.591 191.84C349.034 191.493 349.255 191.011 349.255 190.392C349.255 189.768 349.034 189.277 348.591 188.92C348.148 188.557 347.578 188.376 346.879 188.376C346.18 188.376 345.61 188.557 345.167 188.92C344.724 189.283 344.503 189.773 344.503 190.392C344.503 191.011 344.724 191.493 345.167 191.84C345.61 192.187 346.18 192.36 346.879 192.36ZM346.879 197.976C347.738 197.976 348.423 197.784 348.935 197.4C349.447 197.011 349.703 196.496 349.703 195.856C349.703 195.435 349.586 195.059 349.351 194.728C349.122 194.397 348.796 194.139 348.375 193.952C347.954 193.76 347.455 193.664 346.879 193.664C346.308 193.664 345.812 193.76 345.391 193.952C344.975 194.139 344.65 194.397 344.415 194.728C344.186 195.059 344.071 195.435 344.071 195.856C344.071 196.496 344.324 197.011 344.831 197.4C345.343 197.784 346.026 197.976 346.879 197.976ZM357.145 187.272C357.886 187.272 358.55 187.395 359.137 187.64C359.723 187.885 360.187 188.243 360.529 188.712C360.87 189.181 361.041 189.752 361.041 190.424C361.041 191.053 360.87 191.581 360.529 192.008C360.193 192.435 359.758 192.76 359.225 192.984C359.614 193.059 359.985 193.24 360.337 193.528C360.694 193.816 360.987 194.165 361.217 194.576C361.446 194.987 361.561 195.416 361.561 195.864C361.561 196.531 361.377 197.112 361.009 197.608C360.646 198.104 360.134 198.491 359.473 198.768C358.811 199.04 358.035 199.176 357.145 199.176C356.259 199.176 355.486 199.04 354.825 198.768C354.163 198.491 353.649 198.104 353.281 197.608C352.918 197.112 352.737 196.531 352.737 195.864C352.737 195.416 352.849 194.987 353.073 194.576C353.302 194.165 353.595 193.816 353.953 193.528C354.31 193.24 354.683 193.059 355.073 192.984C354.545 192.76 354.107 192.435 353.761 192.008C353.419 191.581 353.249 191.053 353.249 190.424C353.249 189.752 353.419 189.181 353.761 188.712C354.102 188.243 354.566 187.885 355.153 187.64C355.745 187.395 356.409 187.272 357.145 187.272ZM357.145 192.36C357.849 192.36 358.419 192.187 358.857 191.84C359.299 191.493 359.521 191.011 359.521 190.392C359.521 189.768 359.299 189.277 358.857 188.92C358.414 188.557 357.843 188.376 357.145 188.376C356.446 188.376 355.875 188.557 355.433 188.92C354.99 189.283 354.769 189.773 354.769 190.392C354.769 191.011 354.99 191.493 355.433 191.84C355.875 192.187 356.446 192.36 357.145 192.36ZM357.145 197.976C358.003 197.976 358.689 197.784 359.201 197.4C359.713 197.011 359.969 196.496 359.969 195.856C359.969 195.435 359.851 195.059 359.617 194.728C359.387 194.397 359.062 194.139 358.641 193.952C358.219 193.76 357.721 193.664 357.145 193.664C356.574 193.664 356.078 193.76 355.657 193.952C355.241 194.139 354.915 194.397 354.681 194.728C354.451 195.059 354.337 195.435 354.337 195.856C354.337 196.496 354.59 197.011 355.097 197.4C355.609 197.784 356.291 197.976 357.145 197.976ZM366.882 199.176C366.242 199.176 365.645 199.056 365.09 198.816C364.541 198.571 364.08 198.224 363.706 197.776C363.338 197.328 363.112 196.792 363.026 196.168H364.466C364.6 196.696 364.877 197.125 365.298 197.456C365.72 197.781 366.232 197.944 366.834 197.944C367.517 197.944 368.101 197.765 368.586 197.408C369.077 197.051 369.442 196.499 369.682 195.752C369.922 195.005 370.013 194.048 369.954 192.88C369.821 193.285 369.61 193.643 369.322 193.952C369.034 194.256 368.688 194.496 368.282 194.672C367.877 194.848 367.429 194.936 366.938 194.936C366.176 194.936 365.504 194.787 364.922 194.488C364.341 194.189 363.888 193.763 363.562 193.208C363.242 192.653 363.082 191.989 363.082 191.216C363.082 190.443 363.242 189.76 363.562 189.168C363.882 188.576 364.341 188.112 364.938 187.776C365.536 187.44 366.245 187.272 367.066 187.272C367.962 187.272 368.738 187.504 369.394 187.968C370.05 188.427 370.557 189.088 370.914 189.952C371.272 190.811 371.45 191.843 371.45 193.048C371.45 194.344 371.272 195.448 370.914 196.36C370.562 197.272 370.045 197.971 369.362 198.456C368.685 198.936 367.858 199.176 366.882 199.176ZM367.098 193.68C367.525 193.68 367.93 193.581 368.314 193.384C368.698 193.187 369.01 192.925 369.25 192.6C369.496 192.269 369.618 191.909 369.618 191.52C369.624 190.923 369.522 190.397 369.314 189.944C369.106 189.485 368.81 189.128 368.426 188.872C368.042 188.611 367.594 188.48 367.082 188.48C366.613 188.48 366.197 188.592 365.834 188.816C365.477 189.04 365.194 189.352 364.986 189.752C364.784 190.152 364.682 190.616 364.682 191.144C364.682 191.917 364.888 192.533 365.298 192.992C365.709 193.451 366.309 193.68 367.098 193.68Z" fill="#13171F"/>
</svg>
