<svg width="468" height="258" viewBox="0 0 468 258" fill="none" xmlns="http://www.w3.org/2000/svg">
<rect width="468" height="258" rx="4" fill="#E4EAF5"/>
<path fill-rule="evenodd" clip-rule="evenodd" d="M88 32C88 23.1634 95.1634 16 104 16H372C380.837 16 388 23.1634 388 32V171C388 179.837 380.837 187 372 187H262V229H299C303.418 229 307 232.582 307 237V242H169V237C169 232.582 172.582 229 177 229H214V187H104C95.1634 187 88 179.837 88 171V32Z" fill="#2D3544"/>
<rect x="104" y="32" width="268" height="139" rx="8" fill="#F6F7F9"/>
<rect x="112" y="40" width="167" height="123" rx="4" fill="#465166"/>
<rect x="287" y="40" width="77" height="77" rx="4" fill="#566580"/>
<path fill-rule="evenodd" clip-rule="evenodd" d="M326 61C335.48 61 344 68.46 344 79.44C345.18 80.06 346 81.28 346 82.68V87.28C346 88.72 345.18 89.94 344 90.56V93C344 95.2 342.2 97 340 97H324V93H340V78.8C340 71.06 333.74 64.8 326 64.8C318.26 64.8 312 71.06 312 78.8V91H310C307.8 91 306 89.2 306 87V83C306 81.52 306.8 80.24 308 79.56C308 68.3 316.62 61 326 61ZM320 79C321.105 79 322 79.8954 322 81C322 82.1046 321.105 83 320 83C318.895 83 318 82.1046 318 81C318 79.8954 318.895 79 320 79ZM332 79C333.105 79 334 79.8954 334 81C334 82.1046 333.105 83 332 83C330.895 83 330 82.1046 330 81C330 79.8954 330.895 79 332 79ZM326.1 67C332.08 67 337.04 71.36 338 77.06C331.76 77 326.38 73.38 323.76 68.12C322.7 73.48 318.98 77.88 314.04 79.9C313.52 72.02 320.04 67 326.1 67Z" fill="white"/>
<path fill-rule="evenodd" clip-rule="evenodd" d="M189.92 68.5074H131.765V56.002H131.66V94.7365H131.219L131.224 94.7372H186.695C188.475 94.7372 189.92 93.2922 189.92 91.5123V68.5074Z" fill="#00467F"/>
<path fill-rule="evenodd" clip-rule="evenodd" d="M131.766 56.0025H186.695L187.095 56.0428H131.766V68.5079H189.875V58.7731L189.92 59.2273V68.5079H189.934V58.7396C189.744 57.2997 188.596 56.1658 187.152 56.0001H131.766V56.0025Z" fill="white"/>
<path fill-rule="evenodd" clip-rule="evenodd" d="M189.921 68.5078V59.2272L189.875 58.773V68.5078H189.921Z" fill="white" fill-opacity="0.63"/>
<path fill-rule="evenodd" clip-rule="evenodd" d="M131.766 56.002V56.0423H187.095L186.695 56.002H131.766Z" fill="white" fill-opacity="0.63"/>
<path fill-rule="evenodd" clip-rule="evenodd" d="M131.857 94.7365V56.002H131.397C129.522 56.002 128 57.4469 128 59.2268V91.5122C128 93.2904 129.52 94.7343 131.392 94.7365H131.857Z" fill="#7F8CA3"/>
<path fill-rule="evenodd" clip-rule="evenodd" d="M142.521 70.2244C142.521 69.8532 142.22 69.5518 141.849 69.5518H135.247C134.876 69.5518 134.574 69.8532 134.574 70.2244V74.6468C134.574 75.018 134.876 75.3193 135.247 75.3193H141.849C142.22 75.3193 142.521 75.018 142.521 74.6468V70.2244Z" fill="#FEEDBC"/>
<path d="M139.466 57.3326H133.324V63.549H139.466V57.3326Z" fill="#00548E"/>
<path fill-rule="evenodd" clip-rule="evenodd" d="M262.987 68.5074H204.832V56.002H204.726V94.7365H204.285L204.29 94.7372H259.762C261.542 94.7372 262.987 93.2922 262.987 91.5123V68.5074Z" fill="#900028"/>
<path fill-rule="evenodd" clip-rule="evenodd" d="M204.832 56.0025H259.762L260.161 56.0428H204.832V68.5079H262.941V58.7731L262.987 59.2273V68.5079H263V58.7396C262.81 57.2997 261.662 56.1658 260.218 56.0001H204.832V56.0025Z" fill="white"/>
<path fill-rule="evenodd" clip-rule="evenodd" d="M262.987 68.5078V59.2272L262.941 58.773V68.5078H262.987Z" fill="white" fill-opacity="0.63"/>
<path fill-rule="evenodd" clip-rule="evenodd" d="M204.832 56.002V56.0423H260.161L259.762 56.002H204.832Z" fill="white" fill-opacity="0.63"/>
<path fill-rule="evenodd" clip-rule="evenodd" d="M204.923 94.7365V56.002H204.464C202.589 56.002 201.066 57.4469 201.066 59.2268V91.5122C201.066 93.2904 202.586 94.7343 204.459 94.7365H204.923Z" fill="#7F8CA3"/>
<path fill-rule="evenodd" clip-rule="evenodd" d="M215.545 70.2244C215.545 69.8532 215.244 69.5518 214.872 69.5518H208.27C207.899 69.5518 207.598 69.8532 207.598 70.2244V74.6468C207.598 75.018 207.899 75.3193 208.27 75.3193H214.872C215.244 75.3193 215.545 75.018 215.545 74.6468V70.2244Z" fill="#FEEDBC"/>
<path d="M212.533 57.3326H206.391V63.549H212.533V57.3326Z" fill="#00548E"/>
<path fill-rule="evenodd" clip-rule="evenodd" d="M190.341 120.33H131.793V107.74H131.686V146.736H131.242L131.247 146.737H187.095C188.886 146.737 190.341 145.282 190.341 143.49V120.33Z" fill="#009377"/>
<path fill-rule="evenodd" clip-rule="evenodd" d="M131.793 107.74H187.095L187.497 107.78H131.793V120.33H190.295V110.529L190.341 110.986V120.33H190.355V110.495C190.164 109.046 189.008 107.904 187.554 107.737H131.793V107.74Z" fill="white"/>
<path fill-rule="evenodd" clip-rule="evenodd" d="M190.339 120.33V110.987L190.293 110.529V120.33H190.339Z" fill="white" fill-opacity="0.63"/>
<path fill-rule="evenodd" clip-rule="evenodd" d="M131.793 107.74V107.78H187.497L187.095 107.74H131.793Z" fill="white" fill-opacity="0.63"/>
<path fill-rule="evenodd" clip-rule="evenodd" d="M131.883 146.736V107.74H131.42C129.533 107.74 128 109.194 128 110.986V143.49C128 145.281 129.53 146.734 131.415 146.736H131.883Z" fill="#7F8CA3"/>
<path fill-rule="evenodd" clip-rule="evenodd" d="M142.567 122.058C142.567 121.684 142.264 121.381 141.89 121.381H135.243C134.87 121.381 134.566 121.684 134.566 122.058V126.51C134.566 126.884 134.87 127.187 135.243 127.187H141.89C142.264 127.187 142.567 126.884 142.567 126.51V122.058Z" fill="#FEEDBC"/>
<path d="M139.543 109.079H133.359V115.338H139.543V109.079Z" fill="#00548E"/>
</svg>
