<?xml version="1.0" encoding="UTF-8"?>
<svg id="Layer_1" xmlns="http://www.w3.org/2000/svg" version="1.1" viewBox="0 0 468 289">
  <!-- Generator: Adobe Illustrator 29.1.0, SVG Export Plug-In . SVG Version: 2.1.0 Build 142)  -->
  <defs>
    <style>
      .st0 {
        stroke: #bbcae4;
        stroke-width: 2.1px;
      }

      .st0, .st1 {
        fill: #fff;
      }

      .st2 {
        fill: #e1e7f1;
      }

      .st3 {
        fill: #13171f;
      }

      .st4, .st5 {
        fill: #345d96;
      }

      .st5, .st6, .st7 {
        fill-rule: evenodd;
      }

      .st6 {
        fill: #b51d09;
      }

      .st7 {
        fill: #4d8055;
      }
    </style>
  </defs>
  <rect class="st2" width="468" height="289" rx="4" ry="4"/>
  <rect class="st0" x="21.8" y="31" width="425.8" height="58"/>
  <path class="st5" d="M50.1,62.7h-1.1l-.4-.4c1.4-1.5,2.2-3.5,2.2-5.6,0-4.8-4.1-8.7-9.2-8.7s-9.2,3.9-9.2,8.7,4.1,8.7,9.2,8.7,4.4-.8,6-2.1l.4.4v1.1l7.1,6.7,2.1-2-7-6.7ZM41.6,62.7c-3.5,0-6.4-2.7-6.4-6s2.8-6,6.4-6,6.4,2.7,6.4,6-2.8,6-6.4,6Z"/>
  <rect class="st1" x="48" y="94" width="372" height="60"/>
  <path class="st7" d="M80,111.7c-7.4,0-13.3,6-13.3,13.3s6,13.3,13.3,13.3,13.3-6,13.3-13.3-6-13.3-13.3-13.3ZM77.3,131.7l-6.7-6.7,1.9-1.9,4.8,4.8,10.1-10.1,1.9,1.9-12,12Z"/>
  <path class="st3" d="M109.5,119.4h1.5v11.6h-1.5v-11.6ZM113.8,131v-8.3h1.4v1.2c.1-.2.3-.4.6-.6.2-.2.5-.4.9-.5.3-.1.7-.2,1.2-.2s1,.1,1.4.3c.4.2.8.5,1.1,1,.3.4.4,1,.4,1.7v5.4h-1.5v-5.3c0-.6-.2-1.1-.5-1.4-.3-.3-.8-.5-1.3-.5s-.7,0-1,.2c-.3.1-.6.3-.8.5-.2.2-.3.5-.3.9v5.5h-1.5ZM129.8,122.6c.6,0,1.1.1,1.6.3.5.2.9.5,1.2,1,.3.4.5.9.6,1.5h-1.3c0-.3-.2-.6-.3-.8-.2-.2-.4-.4-.7-.6-.3-.1-.6-.2-1-.2-.7,0-1.3.3-1.7.8-.4.5-.7,1.3-.7,2.4s.2,1.7.6,2.3c.4.6,1,.9,1.8.9s.7,0,1-.2c.3-.1.5-.3.7-.6.2-.2.3-.5.3-.8h1.3c0,.6-.3,1-.6,1.4s-.7.7-1.2.9c-.5.2-1,.3-1.6.3s-1.4-.2-2-.5c-.6-.3-1-.8-1.3-1.4-.3-.6-.5-1.4-.5-2.3s.1-1.6.4-2.3c.3-.7.7-1.2,1.3-1.5.6-.4,1.3-.5,2.1-.5ZM138.4,131.2c-.8,0-1.4-.2-2-.5-.6-.3-1-.8-1.3-1.4-.3-.6-.5-1.4-.5-2.3s.1-1.6.4-2.3c.3-.7.7-1.2,1.3-1.5.6-.4,1.3-.5,2.1-.5s1.4.2,2,.5c.6.3,1,.8,1.3,1.5.3.6.5,1.4.5,2.4s-.1,1.6-.4,2.2c-.3.6-.7,1.1-1.3,1.5-.6.4-1.2.5-2.1.5ZM138.4,130c.5,0,.9-.1,1.3-.4.3-.3.6-.6.8-1.1.2-.5.3-1,.3-1.7s0-1.1-.2-1.6c-.2-.5-.4-.9-.7-1.1-.3-.3-.8-.4-1.3-.4s-.9.1-1.3.4c-.3.2-.6.6-.8,1.1-.2.5-.3,1-.3,1.7s0,1.1.2,1.6c.2.5.4.9.8,1.1.3.3.8.4,1.3.4ZM144.1,131v-8.3h1.4v1.2c.2-.4.5-.7.9-1,.4-.3.9-.4,1.6-.4s.6,0,.9.2c.3.1.6.3.9.5.3.2.5.5.6.7.3-.4.6-.7,1-1,.4-.3.9-.4,1.5-.4s.6,0,.9.1c.3,0,.6.2.9.5.3.2.5.5.7.9.2.4.3.9.3,1.5v5.4h-1.5v-5.3c0-.5,0-.9-.2-1.2-.2-.3-.4-.5-.6-.6-.3-.1-.5-.2-.8-.2s-.5,0-.8.2c-.3.1-.5.3-.7.5-.2.2-.3.6-.3,1v5.5h-1.5v-5.7c0-.3,0-.6-.3-.8-.2-.2-.4-.4-.6-.5-.3-.1-.5-.2-.8-.2s-.6,0-.9.2c-.3.1-.5.3-.7.5-.2.2-.3.6-.3.9v5.5h-1.5ZM157.9,133.6v-10.8h1.5v1.4c.1-.2.2-.3.4-.5.2-.2.3-.4.6-.5.2-.2.5-.3.8-.4.3-.1.6-.2,1-.2.7,0,1.2.2,1.7.5.5.3.9.8,1.2,1.4.3.6.4,1.4.4,2.4s-.1,1.8-.4,2.4c-.3.7-.7,1.1-1.2,1.5-.5.3-1.1.5-1.9.5s-.7,0-1-.2c-.3-.1-.5-.2-.7-.4-.2-.2-.4-.4-.5-.5-.1-.2-.3-.4-.3-.6v4.1h-1.5ZM161.7,130c.7,0,1.2-.3,1.7-.8.4-.5.6-1.3.6-2.4s-.2-1.7-.6-2.2c-.4-.6-1-.8-1.7-.8s-1.3.3-1.7.9c-.4.6-.6,1.3-.6,2.2s0,1.1.3,1.6c.2.5.4.9.8,1.2.3.3.8.4,1.3.4ZM169.5,131.1c-.4,0-.8,0-1.1-.2-.3-.1-.5-.3-.6-.5-.1-.2-.2-.4-.3-.7,0-.3,0-.6,0-.8v-9.8h1.5v9.6c0,.4,0,.7.2.9.2.2.4.3.7.3h.4v1c-.1,0-.3,0-.4,0-.1,0-.3,0-.4,0ZM173.8,122.7v8.3h-1.4v-8.3h1.4ZM173.8,119.4v1.5h-1.5v-1.5h1.5ZM178.7,131.2c-.5,0-1,0-1.4-.3-.4-.2-.7-.5-1-.8-.2-.4-.3-.8-.3-1.3,0-.9.3-1.6,1-2s1.7-.7,3.1-.7h1.5v-.7c0-.5-.2-.9-.5-1.2-.3-.3-.8-.4-1.4-.4-.5,0-.9.1-1.3.3-.4.2-.6.6-.7,1.1h-1.3c0-.5.2-1,.5-1.4.3-.4.7-.7,1.1-.8.5-.2,1.1-.3,1.7-.3s1.3.1,1.8.3c.5.2.8.5,1.1.9.2.4.4.9.4,1.5v5.8h-1.3v-1.6c-.4.6-.8,1.1-1.3,1.3-.5.2-1,.4-1.6.4ZM179.1,130.1c.3,0,.6,0,.8-.2.3-.1.5-.2.8-.4.2-.2.4-.4.5-.6.1-.2.2-.4.2-.7v-1.4h-1.2c-.6,0-1.2,0-1.6.2-.4.1-.7.3-1,.6-.2.3-.3.6-.3,1s.2.8.5,1.1c.3.3.7.4,1.3.4ZM185.4,131v-8.3h1.4v1.2c.1-.2.3-.4.6-.6.2-.2.5-.4.9-.5.3-.1.7-.2,1.2-.2s1,.1,1.4.3c.4.2.8.5,1.1,1,.3.4.4,1,.4,1.7v5.4h-1.5v-5.3c0-.6-.2-1.1-.5-1.4-.3-.3-.8-.5-1.3-.5s-.7,0-1,.2c-.3.1-.6.3-.8.5-.2.2-.3.5-.3.9v5.5h-1.5ZM197.9,122.6c.6,0,1.1.1,1.6.3.5.2.9.5,1.2,1,.3.4.5.9.6,1.5h-1.3c0-.3-.2-.6-.3-.8-.2-.2-.4-.4-.7-.6-.3-.1-.6-.2-1-.2-.7,0-1.3.3-1.7.8-.4.5-.7,1.3-.7,2.4s.2,1.7.6,2.3c.4.6,1,.9,1.8.9s.7,0,1-.2c.3-.1.5-.3.7-.6.2-.2.3-.5.3-.8h1.3c0,.6-.3,1-.6,1.4s-.7.7-1.2.9c-.5.2-1,.3-1.6.3s-1.4-.2-2-.5c-.6-.3-1-.8-1.3-1.4-.3-.6-.5-1.4-.5-2.3s.1-1.6.4-2.3c.3-.7.7-1.2,1.3-1.5.6-.4,1.3-.5,2.1-.5ZM204.3,127.2c0,.5,0,1,.3,1.4.2.4.4.8.8,1,.4.3.8.4,1.3.4s1-.1,1.4-.4c.4-.2.6-.6.7-1.1h1.4c-.1.6-.3,1-.7,1.4-.3.4-.8.7-1.3.9-.5.2-1,.3-1.5.3-.8,0-1.5-.2-2-.5-.6-.3-1-.8-1.4-1.4-.3-.6-.5-1.4-.5-2.3s.1-1.6.4-2.3c.3-.7.7-1.2,1.3-1.5.6-.4,1.3-.6,2.1-.6s1.4.2,2,.5c.5.3.9.8,1.2,1.4.3.6.4,1.3.4,2.2v.5h-5.9ZM204.3,126.2h4.5c0-.5,0-.9-.2-1.3-.2-.4-.4-.7-.7-.9-.3-.2-.7-.3-1.2-.3s-.9.1-1.3.4c-.3.2-.6.6-.8,1-.2.4-.2.8-.2,1.2ZM226.7,122.7l-2.5,8.3h-1.5l-1.9-6.1-1.8,6.1h-1.4l-2.6-8.3h1.4l1.9,6.4h.1l1.9-6.4h1.1l1.9,6.3h.1l1.8-6.3h1.4ZM229.9,122.7v8.3h-1.4v-8.3h1.4ZM230,119.4v1.5h-1.5v-1.5h1.5ZM236.8,123.8h-1.9v5.1c0,.3,0,.5,0,.6,0,.1.2.2.3.3.1,0,.4,0,.6,0h.9v1c-.1,0-.3,0-.5,0-.2,0-.5,0-.8,0-.6,0-1,0-1.3-.2-.3-.2-.5-.4-.7-.7-.1-.3-.2-.7-.2-1.1v-5.2h-1.3v-1.1h1.4l.4-2.4h1.1v2.4h1.9v1.1ZM239,131v-11.9h1.4v4.8c.1-.2.3-.4.6-.6.2-.2.5-.4.9-.5.3-.1.7-.2,1.2-.2s1,.1,1.5.3c.4.2.8.5,1,.8s.4.8.4,1.3v5.9h-1.5v-5.6c0-.5-.2-.9-.5-1.1-.3-.3-.8-.4-1.3-.4s-.7,0-1,.2c-.3.1-.6.3-.8.5-.2.2-.3.5-.3.9v5.5h-1.5ZM256.1,131.2c-.5,0-1.1,0-1.6-.2-.5-.1-1-.3-1.4-.6-.4-.3-.8-.6-1-1-.3-.4-.4-.9-.5-1.4h1.6c0,.4.3.8.6,1.1.3.3.6.5,1,.7.4.1.9.2,1.4.2s1,0,1.5-.2c.4-.2.8-.4,1-.7.3-.3.4-.6.4-1s0-.6-.2-.9c-.2-.3-.4-.5-.7-.6-.3-.2-.7-.3-1.1-.4l-2.3-.5c-.9-.2-1.5-.5-2-1-.5-.5-.7-1.1-.7-1.9,0-.7.2-1.3.5-1.8.4-.5.8-.9,1.5-1.2.6-.3,1.3-.4,2.1-.4s1.7.2,2.3.5c.6.3,1.1.7,1.4,1.2.3.5.5,1.1.5,1.6h-1.5c0-.5-.2-.9-.5-1.2-.3-.3-.6-.5-1-.7-.4-.1-.8-.2-1.3-.2s-.6,0-1,.1c-.3,0-.6.2-.8.4-.2.2-.4.4-.6.6-.1.2-.2.5-.2.9s.1.8.4,1c.3.3.8.5,1.6.7l2.2.5c.6.1,1,.3,1.4.5.4.2.7.5.8.8.2.3.3.6.4,1,0,.3.1.7.1,1,0,.6-.2,1.1-.5,1.6-.3.5-.8.9-1.5,1.1-.6.3-1.4.4-2.3.4ZM263.7,127.2c0,.5,0,1,.3,1.4.2.4.4.8.8,1,.4.3.8.4,1.3.4s1-.1,1.4-.4c.4-.2.6-.6.7-1.1h1.4c-.1.6-.3,1-.7,1.4-.3.4-.8.7-1.3.9-.5.2-1,.3-1.5.3-.8,0-1.5-.2-2-.5-.6-.3-1-.8-1.4-1.4-.3-.6-.5-1.4-.5-2.3s.1-1.6.4-2.3c.3-.7.7-1.2,1.3-1.5.6-.4,1.3-.6,2.1-.6s1.4.2,2,.5c.5.3.9.8,1.2,1.4.3.6.4,1.3.4,2.2v.5h-5.9ZM263.7,126.2h4.5c0-.5,0-.9-.2-1.3-.2-.4-.4-.7-.7-.9-.3-.2-.7-.3-1.2-.3s-.9.1-1.3.4c-.3.2-.6.6-.8,1-.2.4-.2.8-.2,1.2ZM275,122.6c.6,0,1.1.1,1.6.3.5.2.9.5,1.2,1,.3.4.5.9.6,1.5h-1.3c0-.3-.2-.6-.3-.8-.2-.2-.4-.4-.7-.6-.3-.1-.6-.2-1-.2-.7,0-1.3.3-1.7.8-.4.5-.7,1.3-.7,2.4s.2,1.7.6,2.3c.4.6,1,.9,1.8.9s.7,0,1-.2c.3-.1.5-.3.7-.6.2-.2.3-.5.3-.8h1.3c0,.6-.3,1-.6,1.4-.3.4-.7.7-1.2.9-.5.2-1,.3-1.6.3s-1.4-.2-2-.5c-.6-.3-1-.8-1.3-1.4-.3-.6-.5-1.4-.5-2.3s.1-1.6.4-2.3c.3-.7.7-1.2,1.3-1.5.6-.4,1.3-.5,2.1-.5ZM284.2,123.8h-1.9v5.1c0,.3,0,.5,0,.6,0,.1.2.2.3.3.1,0,.4,0,.6,0h.9v1c-.1,0-.3,0-.5,0-.2,0-.5,0-.8,0-.6,0-1,0-1.3-.2-.3-.2-.5-.4-.7-.7-.1-.3-.2-.7-.2-1.1v-5.2h-1.3v-1.1h1.4l.4-2.4h1.1v2.4h1.9v1.1ZM288,122.7v8.3h-1.4v-8.3h1.4ZM288,119.4v1.5h-1.5v-1.5h1.5ZM293.9,131.2c-.8,0-1.4-.2-2-.5-.6-.3-1-.8-1.3-1.4-.3-.6-.5-1.4-.5-2.3s.1-1.6.4-2.3c.3-.7.7-1.2,1.3-1.5.6-.4,1.3-.5,2.1-.5s1.4.2,2,.5c.6.3,1,.8,1.3,1.5.3.6.5,1.4.5,2.4s-.1,1.6-.4,2.2c-.3.6-.7,1.1-1.3,1.5-.6.4-1.2.5-2.1.5ZM293.9,130c.5,0,.9-.1,1.3-.4.3-.3.6-.6.8-1.1.2-.5.3-1,.3-1.7s0-1.1-.2-1.6c-.2-.5-.4-.9-.7-1.1-.3-.3-.8-.4-1.3-.4s-.9.1-1.3.4c-.3.2-.6.6-.8,1.1-.2.5-.3,1-.3,1.7s0,1.1.2,1.6c.2.5.4.9.8,1.1.3.3.8.4,1.3.4ZM299.6,131v-8.3h1.4v1.2c.1-.2.3-.4.6-.6.2-.2.5-.4.9-.5.3-.1.7-.2,1.2-.2s1,.1,1.4.3c.4.2.8.5,1.1,1,.3.4.4,1,.4,1.7v5.4h-1.5v-5.3c0-.6-.2-1.1-.5-1.4-.3-.3-.8-.5-1.3-.5s-.7,0-1,.2c-.3.1-.6.3-.8.5-.2.2-.3.5-.3.9v5.5h-1.5ZM316.4,119.3c.7,0,1.4.1,2,.4s1.1.6,1.4,1.1.5,1,.5,1.7-.2,1.2-.5,1.6c-.3.4-.8.8-1.3,1,.4,0,.8.3,1.1.5.4.3.7.6.9,1,.2.4.3.8.3,1.3,0,.7-.2,1.2-.6,1.7-.4.5-.9.9-1.5,1.2-.7.3-1.4.4-2.3.4s-1.7-.1-2.3-.4c-.7-.3-1.2-.7-1.5-1.2-.4-.5-.5-1.1-.5-1.7s.1-.9.3-1.3c.2-.4.5-.8.9-1s.7-.5,1.1-.5c-.5-.2-1-.5-1.3-1-.3-.4-.5-1-.5-1.6s.2-1.2.5-1.7.8-.8,1.4-1.1c.6-.2,1.3-.4,2-.4ZM316.4,124.4c.7,0,1.3-.2,1.7-.5.4-.3.7-.8.7-1.4s-.2-1.1-.7-1.5c-.4-.4-1-.5-1.7-.5s-1.3.2-1.7.5c-.4.4-.7.9-.7,1.5s.2,1.1.7,1.4c.4.3,1,.5,1.7.5ZM316.4,130c.9,0,1.5-.2,2.1-.6.5-.4.8-.9.8-1.5s-.1-.8-.4-1.1c-.2-.3-.6-.6-1-.8-.4-.2-.9-.3-1.5-.3s-1.1,0-1.5.3c-.4.2-.7.4-1,.8-.2.3-.3.7-.3,1.1,0,.6.3,1.2.8,1.5.5.4,1.2.6,2,.6ZM326.7,119.3c.7,0,1.4.1,2,.4.6.2,1.1.6,1.4,1.1.3.5.5,1,.5,1.7s-.2,1.2-.5,1.6c-.3.4-.8.8-1.3,1,.4,0,.8.3,1.1.5.4.3.6.6.9,1,.2.4.3.8.3,1.3,0,.7-.2,1.2-.6,1.7-.4.5-.9.9-1.5,1.2-.7.3-1.4.4-2.3.4s-1.7-.1-2.3-.4c-.7-.3-1.2-.7-1.5-1.2-.4-.5-.5-1.1-.5-1.7s.1-.9.3-1.3c.2-.4.5-.8.9-1,.4-.3.7-.5,1.1-.5-.5-.2-1-.5-1.3-1-.3-.4-.5-1-.5-1.6s.2-1.2.5-1.7c.3-.5.8-.8,1.4-1.1.6-.2,1.3-.4,2-.4ZM326.7,124.4c.7,0,1.3-.2,1.7-.5.4-.3.7-.8.7-1.4s-.2-1.1-.7-1.5c-.4-.4-1-.5-1.7-.5s-1.3.2-1.7.5c-.4.4-.7.9-.7,1.5s.2,1.1.7,1.4c.4.3,1,.5,1.7.5ZM326.7,130c.9,0,1.5-.2,2.1-.6.5-.4.8-.9.8-1.5s-.1-.8-.4-1.1c-.2-.3-.6-.6-1-.8-.4-.2-.9-.3-1.5-.3s-1.1,0-1.5.3c-.4.2-.7.4-1,.8-.2.3-.3.7-.3,1.1,0,.6.3,1.2.8,1.5.5.4,1.2.6,2,.6ZM336.4,131.2c-.6,0-1.2-.1-1.8-.4-.5-.2-1-.6-1.4-1-.4-.4-.6-1-.7-1.6h1.4c.1.5.4,1,.8,1.3.4.3.9.5,1.5.5s1.3-.2,1.8-.5c.5-.4.9-.9,1.1-1.7s.3-1.7.3-2.9c-.1.4-.3.8-.6,1.1-.3.3-.6.5-1,.7-.4.2-.9.3-1.3.3-.8,0-1.4-.1-2-.4-.6-.3-1-.7-1.4-1.3-.3-.6-.5-1.2-.5-2s.2-1.5.5-2c.3-.6.8-1.1,1.4-1.4.6-.3,1.3-.5,2.1-.5s1.7.2,2.3.7c.7.5,1.2,1.1,1.5,2,.4.9.5,1.9.5,3.1s-.2,2.4-.5,3.3c-.4.9-.9,1.6-1.6,2.1-.7.5-1.5.7-2.5.7ZM336.6,125.7c.4,0,.8,0,1.2-.3.4-.2.7-.5.9-.8.2-.3.4-.7.4-1.1,0-.6,0-1.1-.3-1.6-.2-.5-.5-.8-.9-1.1-.4-.3-.8-.4-1.3-.4s-.9.1-1.2.3c-.4.2-.6.5-.8.9-.2.4-.3.9-.3,1.4,0,.8.2,1.4.6,1.8.4.5,1,.7,1.8.7Z"/>
  <rect class="st1" x="48" y="158" width="372" height="106"/>
  <path class="st6" d="M65.3,200h29.3l-14.7-25.3-14.7,25.3ZM81.3,196h-2.7v-2.7h2.7v2.7ZM81.3,190.7h-2.7v-5.3h2.7v5.3Z"/>
  <path class="st3" d="M108.4,183.8v-1.4h8.8v1.4h-3.5v10.2h-1.5v-10.2h-3.7ZM118.7,194v-11.9h1.4v4.8c.1-.2.3-.4.6-.6.2-.2.5-.4.9-.5.3-.1.7-.2,1.2-.2s1,.1,1.5.3c.4.2.8.5,1,.8.3.4.4.8.4,1.3v5.9h-1.5v-5.6c0-.5-.2-.9-.5-1.1-.3-.3-.8-.4-1.3-.4s-.7,0-1,.2c-.3.1-.6.3-.8.5-.2.2-.3.5-.3.9v5.5h-1.5ZM129.5,185.7v8.3h-1.4v-8.3h1.4ZM129.6,182.4v1.5h-1.5v-1.5h1.5ZM135.1,194.2c-.6,0-1.1,0-1.6-.3-.5-.2-.9-.5-1.2-.8-.3-.4-.5-.9-.6-1.5h1.3c0,.3.2.6.4.8.2.2.4.4.7.5.3.1.6.2,1,.2.6,0,1-.1,1.3-.3.3-.2.5-.5.5-1s0-.5-.3-.7c-.2-.2-.5-.3-.8-.4l-1.7-.4c-.7-.2-1.2-.4-1.6-.8-.4-.3-.6-.8-.6-1.4,0-.5.1-.9.3-1.3.2-.4.6-.7,1.1-.9.5-.2,1.1-.3,1.8-.3s1.6.2,2.2.6c.6.4.8,1,.9,1.8h-1.3c0-.4-.2-.7-.5-.9-.3-.2-.7-.4-1.2-.4s-1,.1-1.3.3c-.3.2-.5.5-.5,1s.1.5.4.7c.2.2.6.3,1,.4l1.7.4c.4.1.7.2.9.4.3.2.4.3.6.6.1.2.3.4.3.6,0,.2,0,.4,0,.6,0,.5-.1.9-.4,1.3-.3.4-.6.6-1.1.8-.5.2-1,.3-1.7.3ZM147.1,185.6c.6,0,1.1.1,1.6.3.5.2.9.5,1.2,1,.3.4.5.9.6,1.5h-1.3c0-.3-.2-.6-.3-.8-.2-.2-.4-.4-.7-.6-.3-.1-.6-.2-1-.2-.7,0-1.3.3-1.7.8-.4.5-.7,1.3-.7,2.4s.2,1.7.6,2.3c.4.6,1,.9,1.8.9s.7,0,1-.2c.3-.1.5-.3.7-.6.2-.2.3-.5.3-.8h1.3c0,.6-.3,1-.6,1.4s-.7.7-1.2.9c-.5.2-1,.3-1.6.3s-1.4-.2-2-.5c-.6-.3-1-.8-1.3-1.4-.3-.6-.5-1.4-.5-2.3s.1-1.6.4-2.3c.3-.7.7-1.2,1.3-1.5.6-.4,1.3-.5,2.1-.5ZM155.7,194.2c-.8,0-1.4-.2-2-.5-.6-.3-1-.8-1.3-1.4-.3-.6-.5-1.4-.5-2.3s.1-1.6.4-2.3c.3-.7.7-1.2,1.3-1.5.6-.4,1.3-.5,2.1-.5s1.4.2,2,.5c.6.3,1,.8,1.3,1.5.3.6.5,1.4.5,2.4s-.1,1.6-.4,2.2c-.3.6-.7,1.1-1.3,1.5-.6.4-1.2.5-2.1.5ZM155.7,193c.5,0,.9-.1,1.3-.4.3-.3.6-.6.8-1.1.2-.5.3-1,.3-1.7s0-1.1-.2-1.6c-.2-.5-.4-.9-.7-1.1-.3-.3-.8-.4-1.3-.4s-.9.1-1.3.4c-.3.2-.6.6-.8,1.1-.2.5-.3,1-.3,1.7s0,1.1.2,1.6c.2.5.4.9.8,1.1.3.3.8.4,1.3.4ZM161.4,194v-8.3h1.4v1.2c.1-.2.3-.4.6-.6.2-.2.5-.4.9-.5.3-.1.7-.2,1.2-.2s1,.1,1.4.3c.4.2.8.5,1.1,1,.3.4.4,1,.4,1.7v5.4h-1.5v-5.3c0-.6-.2-1.1-.5-1.4-.3-.3-.8-.5-1.3-.5s-.7,0-1,.2c-.3.1-.6.3-.8.5-.2.2-.3.5-.3.9v5.5h-1.5ZM174.4,186.8h-1.9v5.1c0,.3,0,.5,0,.6,0,.1.2.2.3.3.1,0,.4,0,.6,0h.9v1c-.1,0-.3,0-.5,0-.2,0-.5,0-.8,0-.6,0-1,0-1.3-.2s-.5-.4-.7-.7c-.1-.3-.2-.7-.2-1.1v-5.2h-1.3v-1.1h1.4l.4-2.4h1.1v2.4h1.9v1.1ZM176.5,194v-8.3h1.4v1.6c.1-.4.3-.7.6-1,.2-.3.5-.5.9-.6.3-.1.7-.2,1-.2s.2,0,.4,0c.1,0,.2,0,.3,0v1.4c0,0-.2,0-.3,0-.1,0-.2,0-.3,0-.3,0-.6,0-.9,0-.3,0-.5.2-.8.3-.2.1-.4.3-.5.6-.1.2-.2.5-.2.9v5.1h-1.5ZM184.8,194.2c-.5,0-1,0-1.4-.3-.4-.2-.7-.5-1-.8-.2-.4-.3-.8-.3-1.3,0-.9.3-1.6,1-2s1.7-.7,3.1-.7h1.5v-.7c0-.5-.2-.9-.5-1.2-.3-.3-.8-.4-1.4-.4-.5,0-.9.1-1.3.3-.4.2-.6.6-.7,1.1h-1.3c0-.5.2-1,.5-1.4.3-.4.6-.7,1.1-.8.5-.2,1.1-.3,1.7-.3s1.3.1,1.8.3c.5.2.8.5,1.1.9.2.4.4.9.4,1.5v5.8h-1.3v-1.6c-.4.6-.8,1.1-1.3,1.3-.5.2-1,.4-1.6.4ZM185.3,193.1c.3,0,.6,0,.8-.2.3-.1.5-.2.8-.4.2-.2.4-.4.5-.6.1-.2.2-.4.2-.7v-1.4h-1.2c-.6,0-1.2,0-1.6.2-.4.1-.7.3-1,.6-.2.3-.3.6-.3,1s.2.8.5,1.1c.3.3.7.4,1.3.4ZM194.9,185.6c.6,0,1.1.1,1.6.3.5.2.9.5,1.2,1,.3.4.5.9.6,1.5h-1.3c0-.3-.2-.6-.3-.8-.2-.2-.4-.4-.7-.6-.3-.1-.6-.2-1-.2-.7,0-1.3.3-1.7.8-.4.5-.7,1.3-.7,2.4s.2,1.7.6,2.3c.4.6,1,.9,1.8.9s.7,0,1-.2c.3-.1.5-.3.7-.6.2-.2.3-.5.3-.8h1.3c0,.6-.3,1-.6,1.4s-.7.7-1.2.9c-.5.2-1,.3-1.6.3s-1.4-.2-2-.5c-.6-.3-1-.8-1.3-1.4-.3-.6-.5-1.4-.5-2.3s.1-1.6.4-2.3c.3-.7.7-1.2,1.3-1.5.6-.4,1.3-.5,2.1-.5ZM204.1,186.8h-1.9v5.1c0,.3,0,.5,0,.6,0,.1.2.2.3.3.1,0,.4,0,.6,0h.9v1c-.1,0-.3,0-.5,0-.2,0-.5,0-.8,0-.6,0-1,0-1.3-.2-.3-.2-.5-.4-.7-.7-.1-.3-.2-.7-.2-1.1v-5.2h-1.3v-1.1h1.4l.4-2.4h1.1v2.4h1.9v1.1ZM209.3,194.2c-.8,0-1.4-.2-2-.5-.6-.3-1-.8-1.3-1.4-.3-.6-.5-1.4-.5-2.3s.1-1.6.4-2.3c.3-.7.7-1.2,1.3-1.5.6-.4,1.3-.5,2.1-.5s1.4.2,2,.5c.6.3,1,.8,1.3,1.5.3.6.5,1.4.5,2.4s-.1,1.6-.4,2.2c-.3.6-.7,1.1-1.3,1.5-.6.4-1.2.5-2.1.5ZM209.3,193c.5,0,.9-.1,1.3-.4.3-.3.6-.6.8-1.1.2-.5.3-1,.3-1.7s0-1.1-.2-1.6c-.2-.5-.4-.9-.7-1.1-.3-.3-.8-.4-1.3-.4s-.9.1-1.3.4c-.3.2-.6.6-.8,1.1-.2.5-.3,1-.3,1.7s0,1.1.2,1.6c.2.5.4.9.8,1.1.3.3.8.4,1.3.4ZM215,194v-8.3h1.4v1.6c.1-.4.3-.7.6-1,.3-.3.5-.5.9-.6.3-.1.7-.2,1-.2s.2,0,.4,0c.1,0,.2,0,.3,0v1.4c0,0-.2,0-.3,0-.1,0-.2,0-.3,0-.3,0-.6,0-.9,0-.3,0-.5.2-.8.3-.2.1-.4.3-.5.6-.1.2-.2.5-.2.9v5.1h-1.5ZM224.9,194v-11.9h1.4v4.8c.1-.2.3-.4.6-.6.2-.2.5-.4.9-.5.3-.1.7-.2,1.2-.2s1,.1,1.5.3c.4.2.8.5,1,.8s.4.8.4,1.3v5.9h-1.5v-5.6c0-.5-.2-.9-.5-1.1-.3-.3-.8-.4-1.3-.4s-.7,0-1,.2c-.3.1-.6.3-.8.5-.2.2-.3.5-.3.9v5.5h-1.5ZM236.4,194.2c-.5,0-1,0-1.4-.3-.4-.2-.7-.5-1-.8-.2-.4-.3-.8-.3-1.3,0-.9.3-1.6,1-2s1.7-.7,3.1-.7h1.5v-.7c0-.5-.2-.9-.5-1.2-.3-.3-.8-.4-1.4-.4-.5,0-.9.1-1.3.3-.4.2-.6.6-.7,1.1h-1.3c0-.5.2-1,.5-1.4.3-.4.7-.7,1.1-.8.5-.2,1.1-.3,1.7-.3s1.3.1,1.8.3c.5.2.8.5,1.1.9.2.4.4.9.4,1.5v5.8h-1.3v-1.6c-.4.6-.8,1.1-1.3,1.3-.5.2-1,.4-1.6.4ZM236.8,193.1c.3,0,.6,0,.8-.2.3-.1.5-.2.8-.4.2-.2.4-.4.5-.6.1-.2.2-.4.2-.7v-1.4h-1.2c-.6,0-1.2,0-1.6.2-.4.1-.7.3-1,.6-.2.3-.3.6-.3,1s.2.8.5,1.1c.3.3.7.4,1.3.4ZM245.9,194.2c-.6,0-1.1,0-1.6-.3-.5-.2-.9-.5-1.2-.8-.3-.4-.5-.9-.6-1.5h1.3c0,.3.2.6.4.8.2.2.4.4.7.5.3.1.6.2,1,.2.6,0,1-.1,1.3-.3.3-.2.5-.5.5-1s0-.5-.3-.7c-.2-.2-.4-.3-.8-.4l-1.7-.4c-.7-.2-1.2-.4-1.6-.8-.4-.3-.6-.8-.6-1.4,0-.5.1-.9.3-1.3.2-.4.6-.7,1.1-.9.5-.2,1.1-.3,1.8-.3s1.6.2,2.2.6c.6.4.8,1,.9,1.8h-1.3c0-.4-.2-.7-.5-.9-.3-.2-.7-.4-1.2-.4s-1,.1-1.3.3c-.3.2-.5.5-.5,1s.1.5.4.7c.2.2.6.3,1,.4l1.7.4c.4.1.7.2.9.4.3.2.4.3.6.6.2.2.3.4.3.6,0,.2,0,.4,0,.6,0,.5-.1.9-.4,1.3-.2.4-.6.6-1.1.8-.5.2-1,.3-1.7.3ZM256.4,185.7v8.3h-1.4v-8.3h1.4ZM256.5,182.4v1.5h-1.5v-1.5h1.5ZM259.1,194v-8.3h1.4v1.2c.1-.2.3-.4.6-.6.2-.2.5-.4.9-.5.3-.1.7-.2,1.2-.2s1,.1,1.4.3c.4.2.8.5,1.1,1,.3.4.4,1,.4,1.7v5.4h-1.5v-5.3c0-.6-.2-1.1-.5-1.4-.3-.3-.8-.5-1.3-.5s-.7,0-1,.2c-.3.1-.6.3-.8.5-.2.2-.3.5-.3.9v5.5h-1.5ZM271.3,194.2c-1.1,0-1.9-.4-2.6-1.1-.6-.7-.9-1.8-.9-3.2s.1-1.6.4-2.2c.3-.6.6-1.1,1.1-1.5.5-.4,1.1-.5,1.9-.5s.7,0,1,.2c.3.1.6.2.8.4s.4.3.5.5c.1.2.3.3.3.5v-4.9h1.5v11.9h-1.1l-.2-1.7c0,.2-.1.3-.3.6-.1.2-.3.4-.5.6-.2.2-.5.4-.8.5-.3.1-.7.2-1.2.2ZM271.6,193c.8,0,1.4-.3,1.8-.8.4-.5.5-1.3.5-2.5,0-.6,0-1.2-.2-1.6-.2-.5-.4-.8-.7-1-.3-.2-.8-.4-1.3-.4s-1.2.2-1.7.7-.6,1.3-.6,2.3.2,1.8.6,2.4c.4.6,1,.9,1.7.9ZM279.6,185.7v8.3h-1.4v-8.3h1.4ZM279.6,182.4v1.5h-1.5v-1.5h1.5ZM285.5,185.6c.6,0,1.1.1,1.6.3.5.2.9.5,1.2,1,.3.4.5.9.6,1.5h-1.3c0-.3-.2-.6-.3-.8-.2-.2-.4-.4-.7-.6-.3-.1-.6-.2-1-.2-.7,0-1.3.3-1.7.8-.4.5-.7,1.3-.7,2.4s.2,1.7.6,2.3c.4.6,1,.9,1.8.9s.7,0,1-.2c.3-.1.5-.3.7-.6.2-.2.3-.5.3-.8h1.3c0,.6-.3,1-.6,1.4-.3.4-.7.7-1.2.9-.5.2-1,.3-1.6.3s-1.4-.2-2-.5c-.6-.3-1-.8-1.3-1.4-.3-.6-.5-1.4-.5-2.3s.1-1.6.4-2.3c.3-.7.7-1.2,1.3-1.5.6-.4,1.3-.5,2.1-.5ZM293,194.2c-.5,0-1,0-1.4-.3-.4-.2-.7-.5-1-.8-.2-.4-.3-.8-.3-1.3,0-.9.3-1.6,1-2,.6-.4,1.7-.7,3.1-.7h1.5v-.7c0-.5-.2-.9-.5-1.2-.3-.3-.8-.4-1.4-.4-.5,0-.9.1-1.3.3-.4.2-.6.6-.7,1.1h-1.3c0-.5.2-1,.5-1.4.3-.4.6-.7,1.1-.8.5-.2,1.1-.3,1.7-.3s1.3.1,1.8.3c.5.2.8.5,1.1.9.2.4.4.9.4,1.5v5.8h-1.3v-1.6c-.4.6-.8,1.1-1.3,1.3-.5.2-1,.4-1.6.4ZM293.4,193.1c.3,0,.6,0,.8-.2.3-.1.5-.2.8-.4.2-.2.4-.4.5-.6.1-.2.2-.4.2-.7v-1.4h-1.2c-.6,0-1.2,0-1.6.2-.4.1-.7.3-1,.6-.2.3-.3.6-.3,1s.2.8.5,1.1c.3.3.7.4,1.3.4ZM303.5,186.8h-1.9v5.1c0,.3,0,.5,0,.6,0,.1.2.2.3.3.1,0,.4,0,.6,0h.9v1c-.1,0-.3,0-.5,0-.2,0-.5,0-.8,0-.6,0-1,0-1.3-.2-.3-.2-.5-.4-.7-.7-.1-.3-.2-.7-.2-1.1v-5.2h-1.3v-1.1h1.4l.4-2.4h1.1v2.4h1.9v1.1ZM306.5,190.2c0,.5,0,1,.3,1.4.2.4.4.8.8,1,.4.3.8.4,1.3.4s1-.1,1.4-.4c.4-.2.6-.6.7-1.1h1.4c-.1.6-.3,1-.7,1.4-.3.4-.8.7-1.3.9-.5.2-1,.3-1.5.3-.8,0-1.5-.2-2-.5-.6-.3-1-.8-1.4-1.4-.3-.6-.5-1.4-.5-2.3s.1-1.6.4-2.3c.3-.7.7-1.2,1.3-1.5.6-.4,1.3-.6,2.1-.6s1.4.2,2,.5c.5.3.9.8,1.2,1.4.3.6.4,1.3.4,2.2v.5h-5.9ZM306.5,189.2h4.5c0-.5,0-.9-.2-1.3-.2-.4-.4-.7-.7-.9-.3-.2-.7-.3-1.2-.3s-.9.1-1.3.4c-.3.2-.6.6-.8,1-.2.4-.2.8-.2,1.2ZM317.4,194.2c-1.1,0-1.9-.4-2.6-1.1-.6-.7-.9-1.8-.9-3.2s.1-1.6.4-2.2c.3-.6.6-1.1,1.1-1.5.5-.4,1.1-.5,1.9-.5s.7,0,1,.2c.3.1.6.2.8.4s.4.3.5.5c.1.2.3.3.3.5v-4.9h1.5v11.9h-1.1l-.2-1.7c0,.2-.1.3-.3.6-.1.2-.3.4-.5.6-.2.2-.5.4-.8.5-.3.1-.7.2-1.2.2ZM317.7,193c.8,0,1.4-.3,1.8-.8.4-.5.5-1.3.5-2.5,0-.6,0-1.2-.2-1.6-.2-.5-.4-.8-.7-1-.3-.2-.8-.4-1.3-.4s-1.2.2-1.7.7c-.4.5-.6,1.3-.6,2.3s.2,1.8.6,2.4c.4.6,1,.9,1.7.9ZM329.3,185.7v8.3h-1.4v-8.3h1.4ZM329.3,182.4v1.5h-1.5v-1.5h1.5ZM332,194v-8.3h1.4v1.2c.1-.2.3-.4.6-.6.2-.2.5-.4.9-.5.3-.1.7-.2,1.2-.2s1,.1,1.4.3c.4.2.8.5,1.1,1,.3.4.4,1,.4,1.7v5.4h-1.5v-5.3c0-.6-.2-1.1-.5-1.4-.3-.3-.8-.5-1.3-.5s-.7,0-1,.2c-.3.1-.6.3-.8.5-.2.2-.3.5-.3.9v5.5h-1.5ZM113.5,220.2c-.5,0-1.1,0-1.6-.2-.5-.1-1-.3-1.4-.6-.4-.3-.8-.6-1-1-.3-.4-.4-.9-.5-1.4h1.6c0,.4.3.8.6,1.1.3.3.6.5,1,.7.4.1.9.2,1.4.2s1,0,1.5-.2c.4-.2.8-.4,1-.7.3-.3.4-.6.4-1s0-.6-.2-.9c-.2-.3-.4-.5-.7-.6-.3-.2-.7-.3-1.1-.4l-2.3-.5c-.9-.2-1.5-.5-2-1-.5-.5-.7-1.1-.7-1.9,0-.7.2-1.3.5-1.8.4-.5.8-.9,1.5-1.2.6-.3,1.3-.4,2.1-.4s1.7.2,2.3.5c.6.3,1.1.7,1.4,1.2s.5,1.1.5,1.6h-1.5c0-.5-.2-.9-.5-1.2-.3-.3-.6-.5-1-.7-.4-.1-.8-.2-1.3-.2s-.7,0-1,.1c-.3,0-.6.2-.8.4-.2.2-.4.4-.6.6-.1.2-.2.5-.2.9s.1.8.4,1c.3.3.8.5,1.6.7l2.2.5c.6.1,1,.3,1.4.5.4.2.7.5.8.8.2.3.3.6.4,1,0,.3.1.7.1,1,0,.6-.2,1.1-.5,1.6-.3.5-.8.9-1.5,1.1-.6.3-1.4.4-2.3.4ZM119.2,220l4.2-11.6h1.7l4.2,11.6h-1.5l-1.1-3.2h-4.7l-1.2,3.2h-1.5ZM122.2,215.5h4l-2-5.6-2,5.6ZM131.4,220v-11.6h2l3.5,9.6,3.5-9.6h2v11.6h-1.5v-9.4l-3.4,9.4h-1.4l-3.3-9.3v9.3h-1.5ZM144.9,220v-1.9h1.8v1.9h-1.8ZM152.7,222.7c-1.3,0-2.3-.2-3-.6-.7-.4-1.1-.9-1.1-1.6s0-.6.2-.8c.1-.2.3-.4.5-.5.2-.1.4-.2.5-.3.2,0,.3-.1.3-.2,0,0-.2-.1-.3-.2-.1,0-.2-.2-.4-.3-.1-.1-.2-.3-.2-.5s.1-.5.4-.7c.2-.2.6-.4,1.1-.5-.5-.2-.9-.6-1.1-1s-.4-.8-.4-1.3.1-1,.4-1.4c.3-.4.7-.7,1.2-.9.5-.2,1.2-.3,1.9-.3s1,0,1.4.2c.4.1.7.3,1,.5,0,0,.2,0,.4-.2.2,0,.4-.2.6-.3s.4-.2.6-.3c.2,0,.4-.1.5-.2v1.4s-1.5.3-1.5.3c0,.2.1.4.2.6,0,.2,0,.4,0,.6,0,.5-.1.9-.4,1.3-.2.4-.6.7-1.1.9s-1.2.4-1.9.4h-.2c0,0-.2,0-.2,0-.6,0-1,0-1.2.2-.2.1-.3.2-.3.4s.1.3.4.3c.2,0,.6.1,1.2.2.2,0,.5,0,.8,0,.3,0,.7,0,1,0,.9,0,1.5.3,2,.7.5.4.7.9.7,1.6s-.3,1.4-1,1.8c-.7.5-1.7.7-3.1.7ZM153,221.8c.8,0,1.3-.1,1.8-.3.4-.2.6-.6.6-1s-.1-.6-.4-.8c-.2-.2-.6-.3-1.1-.4l-2.3-.2c-.2,0-.4,0-.6.2-.2.1-.4.3-.6.5-.2.2-.2.4-.2.7,0,.4.2.8.7,1,.5.2,1.2.4,2.2.4ZM152.7,215.9c.6,0,1.1-.1,1.4-.4.4-.3.6-.7.6-1.2s-.2-1-.6-1.3c-.4-.3-.8-.4-1.4-.4s-1.1.1-1.5.4c-.4.3-.6.7-.6,1.3s.2.9.5,1.2c.4.3.8.4,1.5.4ZM162.2,220.2c-.8,0-1.4-.2-2-.5-.6-.3-1-.8-1.3-1.4s-.5-1.4-.5-2.3.1-1.6.4-2.3c.3-.7.7-1.2,1.3-1.5.6-.4,1.3-.5,2.1-.5s1.4.2,2,.5c.6.3,1,.8,1.3,1.5.3.6.5,1.4.5,2.4s-.1,1.6-.4,2.2c-.3.6-.7,1.1-1.3,1.5-.6.4-1.2.5-2.1.5ZM162.2,219c.5,0,.9-.1,1.3-.4.3-.3.6-.6.8-1.1.2-.5.3-1,.3-1.7s0-1.1-.2-1.6c-.2-.5-.4-.9-.7-1.1-.3-.3-.8-.4-1.3-.4s-.9.1-1.3.4c-.3.2-.6.6-.8,1.1-.2.5-.3,1-.3,1.7s0,1.1.2,1.6c.2.5.4.9.8,1.1.3.3.8.4,1.3.4ZM174.1,211.7l-3,8.3h-1.3l-3-8.3h1.4l2.2,6.4h.1l2.2-6.4h1.4ZM183.5,212.8h-1.9v5.1c0,.3,0,.5,0,.6,0,.1.2.2.3.3.1,0,.4,0,.6,0h.9v1c-.1,0-.3,0-.5,0-.2,0-.5,0-.8,0-.6,0-1,0-1.3-.2s-.5-.4-.7-.7c-.1-.3-.2-.7-.2-1.1v-5.2h-1.3v-1.1h1.4l.4-2.4h1.1v2.4h1.9v1.1ZM185.7,220v-11.9h1.4v4.8c.1-.2.3-.4.6-.6.2-.2.5-.4.9-.5.3-.1.7-.2,1.2-.2s1,.1,1.5.3c.4.2.8.5,1,.8s.4.8.4,1.3v5.9h-1.5v-5.6c0-.5-.2-.9-.5-1.1-.3-.3-.8-.4-1.3-.4s-.7,0-1,.2c-.3.1-.6.3-.8.5-.2.2-.3.5-.3.9v5.5h-1.5ZM197.1,220.2c-.5,0-1,0-1.4-.3-.4-.2-.7-.5-1-.8-.2-.4-.3-.8-.3-1.3,0-.9.3-1.6,1-2s1.7-.7,3.1-.7h1.5v-.7c0-.5-.2-.9-.5-1.2-.3-.3-.8-.4-1.4-.4-.5,0-.9.1-1.3.3-.4.2-.6.6-.7,1.1h-1.3c0-.5.2-1,.5-1.4.3-.4.7-.7,1.1-.8.5-.2,1.1-.3,1.7-.3s1.3.1,1.8.3c.5.2.8.5,1.1.9.2.4.4.9.4,1.5v5.8h-1.3v-1.6c-.4.6-.8,1.1-1.3,1.3-.5.2-1,.4-1.6.4ZM197.6,219.1c.3,0,.6,0,.8-.2.3-.1.5-.2.8-.4.2-.2.4-.4.5-.6.1-.2.2-.4.2-.7v-1.4h-1.2c-.6,0-1.2,0-1.6.2-.4.1-.7.3-1,.6-.2.3-.3.6-.3,1s.2.8.5,1.1c.3.3.7.4,1.3.4ZM207.7,212.8h-1.9v5.1c0,.3,0,.5,0,.6,0,.1.2.2.3.3.2,0,.4,0,.6,0h.9v1c-.1,0-.3,0-.5,0-.2,0-.5,0-.8,0-.6,0-1,0-1.3-.2-.3-.2-.5-.4-.7-.7-.1-.3-.2-.7-.2-1.1v-5.2h-1.3v-1.1h1.4l.4-2.4h1.1v2.4h1.9v1.1ZM215.1,211.7v8.3h-1.4v-8.3h1.4ZM215.1,208.4v1.5h-1.5v-1.5h1.5ZM222,212.8h-1.9v5.1c0,.3,0,.5,0,.6,0,.1.2.2.3.3.1,0,.4,0,.6,0h.9v1c-.1,0-.3,0-.5,0-.2,0-.5,0-.8,0-.6,0-1,0-1.3-.2-.3-.2-.5-.4-.7-.7-.1-.3-.2-.7-.2-1.1v-5.2h-1.3v-1.1h1.4l.4-2.4h1.1v2.4h1.9v1.1ZM227.8,222.6v-10.8h1.5v1.4c.1-.2.2-.3.4-.5.2-.2.3-.4.6-.5.2-.2.5-.3.8-.4.3-.1.6-.2,1-.2.7,0,1.2.2,1.7.5.5.3.9.8,1.2,1.4.3.6.4,1.4.4,2.4s-.1,1.8-.4,2.4c-.3.7-.7,1.1-1.2,1.5-.5.3-1.1.5-1.9.5s-.7,0-1-.2c-.3-.1-.5-.2-.7-.4-.2-.2-.4-.4-.5-.5-.1-.2-.3-.4-.3-.6v4.1h-1.5ZM231.6,219c.7,0,1.2-.3,1.7-.8.4-.5.6-1.3.6-2.4s-.2-1.7-.6-2.2c-.4-.6-1-.8-1.7-.8s-1.3.3-1.7.9c-.4.6-.6,1.3-.6,2.2s0,1.1.3,1.6.4.9.8,1.2c.3.3.8.4,1.3.4ZM237.3,220v-8.3h1.4v1.6c.1-.4.3-.7.6-1,.3-.3.5-.5.9-.6.3-.1.7-.2,1-.2s.2,0,.4,0c.1,0,.2,0,.3,0v1.4c0,0-.2,0-.3,0-.1,0-.2,0-.3,0-.3,0-.6,0-.9,0-.3,0-.5.2-.8.3-.2.1-.4.3-.5.6-.1.2-.2.5-.2.9v5.1h-1.5ZM246.7,220.2c-.8,0-1.4-.2-2-.5-.6-.3-1-.8-1.3-1.4-.3-.6-.5-1.4-.5-2.3s.1-1.6.4-2.3c.3-.7.7-1.2,1.3-1.5.6-.4,1.3-.5,2.1-.5s1.4.2,2,.5c.6.3,1,.8,1.3,1.5.3.6.5,1.4.5,2.4s-.1,1.6-.4,2.2c-.3.6-.7,1.1-1.3,1.5-.6.4-1.2.5-2.1.5ZM246.7,219c.5,0,.9-.1,1.3-.4.3-.3.6-.6.8-1.1.2-.5.3-1,.3-1.7s0-1.1-.2-1.6c-.2-.5-.4-.9-.7-1.1-.3-.3-.8-.4-1.3-.4s-.9.1-1.3.4c-.3.2-.6.6-.8,1.1-.2.5-.3,1-.3,1.7s0,1.1.2,1.6c.2.5.4.9.8,1.1.3.3.8.4,1.3.4ZM258.6,211.7l-3,8.3h-1.3l-3-8.3h1.4l2.2,6.4h.1l2.2-6.4h1.4ZM261.8,211.7v8.3h-1.4v-8.3h1.4ZM261.8,208.4v1.5h-1.5v-1.5h1.5ZM267.3,220.2c-1.1,0-1.9-.4-2.6-1.1-.6-.7-.9-1.8-.9-3.2s.1-1.6.4-2.2c.3-.6.6-1.1,1.1-1.5.5-.4,1.1-.5,1.9-.5s.7,0,1,.2c.3.1.6.2.8.4s.4.3.5.5c.1.2.2.3.3.5v-4.9h1.5v11.9h-1.1l-.2-1.7c0,.2-.1.3-.3.6-.1.2-.3.4-.5.6-.2.2-.5.4-.8.5-.3.1-.7.2-1.2.2ZM267.6,219c.8,0,1.4-.3,1.8-.8.4-.5.5-1.3.5-2.5,0-.6,0-1.2-.2-1.6-.2-.5-.4-.8-.7-1-.3-.2-.8-.4-1.3-.4s-1.2.2-1.7.7c-.4.5-.6,1.3-.6,2.3s.2,1.8.6,2.4c.4.6,1,.9,1.7.9ZM274.9,216.2c0,.5,0,1,.3,1.4.2.4.4.8.8,1,.4.3.8.4,1.3.4s1-.1,1.4-.4c.4-.2.6-.6.7-1.1h1.4c-.1.6-.3,1-.7,1.4-.3.4-.8.7-1.3.9-.5.2-1,.3-1.5.3-.8,0-1.5-.2-2-.5-.6-.3-1-.8-1.4-1.4-.3-.6-.5-1.4-.5-2.3s.1-1.6.4-2.3c.3-.7.7-1.2,1.3-1.5.6-.4,1.3-.6,2.1-.6s1.4.2,2,.5c.5.3.9.8,1.2,1.4.3.6.4,1.3.4,2.2v.5h-5.9ZM274.9,215.2h4.5c0-.5,0-.9-.2-1.3-.2-.4-.4-.7-.7-.9-.3-.2-.7-.3-1.2-.3s-.9.1-1.3.4c-.3.2-.6.6-.8,1-.2.4-.2.8-.2,1.2ZM285.8,220.2c-.6,0-1.1,0-1.6-.3-.5-.2-.9-.5-1.2-.8-.3-.4-.5-.9-.6-1.5h1.3c0,.3.2.6.4.8.2.2.4.4.7.5.3.1.6.2,1,.2.6,0,1-.1,1.3-.3.3-.2.5-.5.5-1s0-.5-.3-.7c-.2-.2-.5-.3-.8-.4l-1.7-.4c-.7-.2-1.2-.4-1.6-.8s-.6-.8-.6-1.4c0-.5.1-.9.3-1.3.2-.4.6-.7,1.1-.9s1.1-.3,1.8-.3,1.6.2,2.2.6c.6.4.8,1,.9,1.8h-1.3c0-.4-.2-.7-.5-.9-.3-.2-.7-.4-1.2-.4s-1,.1-1.3.3c-.3.2-.5.5-.5,1s.1.5.4.7c.2.2.6.3,1,.4l1.7.4c.4.1.7.2.9.4.3.2.4.3.6.6.1.2.3.4.3.6,0,.2,0,.4,0,.6,0,.5-.1.9-.4,1.3-.3.4-.6.6-1.1.8-.5.2-1,.3-1.7.3ZM297.7,220.2c-.8,0-1.4-.2-2-.5-.6-.3-1-.8-1.3-1.4-.3-.6-.5-1.4-.5-2.3s.1-1.6.4-2.3c.3-.7.7-1.2,1.3-1.5.6-.4,1.3-.5,2.1-.5s1.4.2,2,.5c.6.3,1,.8,1.3,1.5.3.6.5,1.4.5,2.4s-.1,1.6-.4,2.2c-.3.6-.7,1.1-1.3,1.5-.6.4-1.2.5-2.1.5ZM297.7,219c.5,0,.9-.1,1.3-.4.3-.3.6-.6.8-1.1.2-.5.3-1,.3-1.7s0-1.1-.2-1.6c-.2-.5-.4-.9-.7-1.1-.3-.3-.8-.4-1.3-.4s-.9.1-1.3.4c-.3.2-.6.6-.8,1.1-.2.5-.3,1-.3,1.7s0,1.1.2,1.6c.2.5.4.9.8,1.1.3.3.8.4,1.3.4ZM303.4,220v-8.3h1.4v1.6c.1-.4.3-.7.6-1,.2-.3.5-.5.9-.6.3-.1.7-.2,1-.2s.2,0,.4,0c.1,0,.2,0,.3,0v1.4c0,0-.2,0-.3,0-.1,0-.2,0-.3,0-.3,0-.6,0-.9,0-.3,0-.5.2-.8.3-.2.1-.4.3-.5.6-.1.2-.2.5-.2.9v5.1h-1.5ZM316.4,220.2c-.4,0-.8,0-1.2-.2-.4-.1-.7-.3-1-.5-.3-.2-.5-.5-.7-.9-.2-.4-.2-.8-.2-1.2v-5.6h1.5v5.5c0,.5.2,1,.5,1.3.3.3.8.5,1.5.5s1.1-.2,1.5-.5c.4-.3.6-.8.6-1.4v-5.4h1.5v8.3h-1.2l-.2-1.6c-.1.4-.3.8-.5,1-.2.3-.5.4-.9.6-.3.1-.7.2-1.1.2ZM325.4,220.2c-.6,0-1.1,0-1.6-.3-.5-.2-.9-.5-1.2-.8-.3-.4-.5-.9-.6-1.5h1.3c0,.3.2.6.4.8.2.2.4.4.7.5.3.1.6.2,1,.2.6,0,1-.1,1.3-.3.3-.2.5-.5.5-1s0-.5-.3-.7c-.2-.2-.5-.3-.8-.4l-1.7-.4c-.7-.2-1.2-.4-1.6-.8s-.6-.8-.6-1.4c0-.5.1-.9.3-1.3.2-.4.6-.7,1.1-.9.5-.2,1.1-.3,1.8-.3s1.6.2,2.2.6c.6.4.8,1,.9,1.8h-1.3c0-.4-.2-.7-.5-.9-.3-.2-.7-.4-1.2-.4s-1,.1-1.3.3c-.3.2-.5.5-.5,1s.1.5.4.7c.2.2.6.3,1,.4l1.7.4c.4.1.7.2.9.4.2.2.4.3.6.6.1.2.3.4.3.6,0,.2,0,.4,0,.6,0,.5-.1.9-.4,1.3-.3.4-.6.6-1.1.8-.5.2-1,.3-1.7.3ZM331.7,216.2c0,.5,0,1,.3,1.4.2.4.4.8.8,1,.4.3.8.4,1.3.4s1-.1,1.4-.4c.4-.2.6-.6.7-1.1h1.4c-.1.6-.3,1-.7,1.4-.3.4-.8.7-1.3.9-.5.2-1,.3-1.5.3-.8,0-1.5-.2-2-.5s-1-.8-1.4-1.4c-.3-.6-.5-1.4-.5-2.3s.1-1.6.4-2.3c.3-.7.7-1.2,1.3-1.5.6-.4,1.3-.6,2.1-.6s1.4.2,2,.5c.5.3.9.8,1.2,1.4.3.6.4,1.3.4,2.2v.5h-5.9ZM331.7,215.2h4.5c0-.5,0-.9-.2-1.3-.2-.4-.4-.7-.7-.9-.3-.2-.7-.3-1.2-.3s-.9.1-1.3.4c-.3.2-.6.6-.8,1-.2.4-.2.8-.2,1.2ZM342.6,220.2c-.6,0-1.1,0-1.6-.3-.5-.2-.9-.5-1.2-.8-.3-.4-.5-.9-.6-1.5h1.3c0,.3.2.6.4.8.2.2.4.4.7.5.3.1.6.2,1,.2.6,0,1-.1,1.3-.3.3-.2.5-.5.5-1s0-.5-.3-.7c-.2-.2-.5-.3-.8-.4l-1.7-.4c-.7-.2-1.2-.4-1.6-.8s-.6-.8-.6-1.4c0-.5.1-.9.3-1.3.2-.4.6-.7,1.1-.9s1.1-.3,1.8-.3,1.6.2,2.2.6c.6.4.8,1,.9,1.8h-1.3c0-.4-.2-.7-.5-.9-.3-.2-.7-.4-1.2-.4s-1,.1-1.3.3c-.3.2-.5.5-.5,1s.1.5.4.7c.2.2.6.3,1,.4l1.7.4c.4.1.7.2.9.4.3.2.4.3.6.6.1.2.3.4.3.6,0,.2,0,.4,0,.6,0,.5-.1.9-.4,1.3-.3.4-.6.6-1.1.8-.5.2-1,.3-1.7.3ZM109.2,248.6v-10.8h1.5v1.4c.1-.2.2-.3.4-.5.2-.2.3-.4.6-.5.2-.2.5-.3.8-.4.3-.1.6-.2,1-.2.7,0,1.2.2,1.7.5.5.3.9.8,1.2,1.4.3.6.4,1.4.4,2.4s-.1,1.8-.4,2.4c-.3.7-.7,1.1-1.2,1.5-.5.3-1.1.5-1.9.5s-.7,0-1-.2c-.3-.1-.5-.2-.7-.4-.2-.2-.4-.4-.5-.5-.1-.2-.3-.4-.3-.6v4.1h-1.5ZM113,245c.7,0,1.2-.3,1.7-.8.4-.5.6-1.3.6-2.4s-.2-1.7-.6-2.2c-.4-.6-1-.8-1.7-.8s-1.3.3-1.7.9c-.4.6-.6,1.3-.6,2.2s0,1.1.3,1.6.4.9.8,1.2c.3.3.8.4,1.3.4ZM118.7,246v-8.3h1.4v1.6c.1-.4.3-.7.6-1,.3-.3.5-.5.9-.6.3-.1.7-.2,1-.2s.2,0,.4,0c.1,0,.2,0,.3,0v1.4c0,0-.2,0-.3,0-.1,0-.2,0-.3,0-.3,0-.6,0-.9,0-.3,0-.5.2-.8.3s-.4.3-.5.6c-.1.2-.2.5-.2.9v5.1h-1.5ZM128,246.2c-.8,0-1.4-.2-2-.5-.6-.3-1-.8-1.3-1.4-.3-.6-.5-1.4-.5-2.3s.1-1.6.4-2.3c.3-.7.7-1.2,1.3-1.5.6-.4,1.3-.5,2.1-.5s1.4.2,2,.5c.6.3,1,.8,1.3,1.5.3.6.5,1.4.5,2.4s-.1,1.6-.4,2.2c-.3.6-.7,1.1-1.3,1.5-.6.4-1.2.5-2.1.5ZM128,245c.5,0,.9-.1,1.3-.4.3-.3.6-.6.8-1.1.2-.5.3-1,.3-1.7s0-1.1-.2-1.6c-.2-.5-.4-.9-.7-1.1-.3-.3-.8-.4-1.3-.4s-.9.1-1.3.4c-.3.2-.6.6-.8,1.1-.2.5-.3,1-.3,1.7s0,1.1.2,1.6c.2.5.4.9.8,1.1.3.3.8.4,1.3.4ZM133.7,246v-11.9h1.4v4.8c.1-.2.3-.4.6-.6.2-.2.5-.4.9-.5.3-.1.7-.2,1.2-.2s1,.1,1.5.3c.4.2.8.5,1,.8.3.4.4.8.4,1.3v5.9h-1.5v-5.6c0-.5-.2-.9-.5-1.1-.3-.3-.8-.4-1.3-.4s-.7,0-1,.2c-.3.1-.6.3-.8.5-.2.2-.3.5-.3.9v5.5h-1.5ZM144.6,237.7v8.3h-1.4v-8.3h1.4ZM144.6,234.4v1.5h-1.5v-1.5h1.5ZM151.3,246.2c-.5,0-.9,0-1.2-.2-.3-.1-.6-.3-.8-.5-.2-.2-.4-.4-.5-.6-.1-.2-.2-.4-.3-.6l-.2,1.7h-1.1v-11.9h1.5v4.9c0-.1.2-.3.3-.5.1-.2.3-.3.6-.5s.5-.3.8-.4c.3-.1.7-.2,1.1-.2,1,0,1.9.4,2.5,1.1.6.7.9,1.8.9,3.2s-.1,1.6-.4,2.3c-.3.6-.7,1.1-1.2,1.5-.5.4-1.2.5-1.9.5ZM151.1,245c.7,0,1.2-.3,1.6-.8.4-.5.6-1.4.6-2.5s-.2-1.7-.6-2.2c-.4-.5-1-.8-1.7-.8s-1,.1-1.3.4c-.3.2-.6.6-.7,1-.2.5-.2,1-.2,1.6,0,1.2.2,2,.5,2.5.4.5,1,.8,1.8.8ZM158.4,237.7v8.3h-1.4v-8.3h1.4ZM158.4,234.4v1.5h-1.5v-1.5h1.5ZM165.3,238.8h-1.9v5.1c0,.3,0,.5,0,.6,0,.1.2.2.3.3.1,0,.4,0,.6,0h.9v1c-.1,0-.3,0-.5,0-.2,0-.5,0-.8,0-.6,0-1,0-1.3-.2s-.5-.4-.7-.7c-.1-.3-.2-.7-.2-1.1v-5.2h-1.3v-1.1h1.4l.4-2.4h1.1v2.4h1.9v1.1ZM168.2,242.2c0,.5,0,1,.3,1.4.2.4.4.8.8,1,.4.3.8.4,1.3.4s1-.1,1.4-.4c.4-.2.6-.6.7-1.1h1.4c-.1.6-.3,1-.7,1.4-.3.4-.8.7-1.3.9-.5.2-1,.3-1.5.3-.8,0-1.5-.2-2-.5-.6-.3-1-.8-1.4-1.4-.3-.6-.5-1.4-.5-2.3s.1-1.6.4-2.3c.3-.7.7-1.2,1.3-1.5.6-.4,1.3-.6,2.1-.6s1.4.2,2,.5c.5.3.9.8,1.2,1.4.3.6.4,1.3.4,2.2v.5h-5.9ZM168.3,241.2h4.5c0-.5,0-.9-.2-1.3-.2-.4-.4-.7-.7-.9-.3-.2-.7-.3-1.2-.3s-.9.1-1.3.4c-.3.2-.6.6-.8,1-.2.4-.2.8-.2,1.2ZM179.2,246.2c-1.1,0-1.9-.4-2.6-1.1-.6-.7-.9-1.8-.9-3.2s.1-1.6.4-2.2c.3-.6.6-1.1,1.1-1.5.5-.4,1.1-.5,1.9-.5s.7,0,1,.2c.3.1.6.2.8.4s.4.3.5.5c.1.2.3.3.3.5v-4.9h1.5v11.9h-1.1l-.2-1.7c0,.2-.1.3-.3.6-.1.2-.3.4-.5.6-.2.2-.5.4-.8.5-.3.1-.7.2-1.2.2ZM179.5,245c.8,0,1.4-.3,1.8-.8.4-.5.5-1.3.5-2.5,0-.6,0-1.2-.2-1.6-.2-.5-.4-.8-.7-1-.3-.2-.8-.4-1.3-.4s-1.2.2-1.7.7c-.4.5-.6,1.3-.6,2.3s.2,1.8.6,2.4c.4.6,1,.9,1.7.9ZM190.3,242.2c0,.5,0,1,.3,1.4.2.4.4.8.8,1,.4.3.8.4,1.3.4s1-.1,1.4-.4c.4-.2.6-.6.7-1.1h1.4c-.1.6-.3,1-.7,1.4-.3.4-.8.7-1.3.9-.5.2-1,.3-1.5.3-.8,0-1.5-.2-2-.5-.6-.3-1-.8-1.4-1.4-.3-.6-.5-1.4-.5-2.3s.1-1.6.4-2.3c.3-.7.7-1.2,1.3-1.5.6-.4,1.3-.6,2.1-.6s1.4.2,2,.5c.5.3.9.8,1.2,1.4.3.6.4,1.3.4,2.2v.5h-5.9ZM190.3,241.2h4.5c0-.5,0-.9-.2-1.3-.2-.4-.4-.7-.7-.9-.3-.2-.7-.3-1.2-.3s-.9.1-1.3.4c-.3.2-.6.6-.8,1-.2.4-.2.8-.2,1.2ZM205.3,248.6h-1.5v-4.1c0,.2-.2.4-.4.6-.1.2-.3.4-.5.5-.2.2-.5.3-.7.4-.3.1-.6.2-1,.2-.7,0-1.3-.2-1.8-.5-.5-.3-.9-.8-1.2-1.4-.3-.7-.4-1.5-.4-2.5s.1-1.6.4-2.3c.3-.6.6-1.1,1.1-1.4.5-.3,1.1-.5,1.8-.5s.7,0,1,.2.6.2.8.4.4.3.6.5c.2.2.3.4.4.5v-1.4h1.5v10.8ZM201.5,245c.5,0,.9-.1,1.3-.4.3-.3.6-.7.8-1.2.2-.5.3-1,.3-1.6,0-.9-.2-1.7-.6-2.2-.4-.6-1-.9-1.8-.9s-1.2.3-1.7.8c-.4.5-.6,1.3-.6,2.3s.2,1.8.6,2.4c.4.6,1,.9,1.7.9ZM210.8,246.2c-.4,0-.8,0-1.2-.2-.4-.1-.7-.3-1-.5s-.5-.5-.7-.9c-.2-.4-.2-.8-.2-1.2v-5.6h1.5v5.5c0,.5.2,1,.5,1.3.3.3.8.5,1.5.5s1.1-.2,1.5-.5c.4-.3.6-.8.6-1.4v-5.4h1.5v8.3h-1.2l-.2-1.6c-.1.4-.3.8-.5,1-.2.3-.5.4-.9.6-.3.1-.7.2-1.1.2ZM218.6,237.7v8.3h-1.4v-8.3h1.4ZM218.6,234.4v1.5h-1.5v-1.5h1.5ZM221.3,248.6v-10.8h1.5v1.4c.1-.2.2-.3.4-.5.2-.2.3-.4.6-.5.2-.2.5-.3.8-.4.3-.1.6-.2,1-.2.7,0,1.2.2,1.7.5.5.3.9.8,1.2,1.4.3.6.4,1.4.4,2.4s-.1,1.8-.4,2.4c-.3.7-.7,1.1-1.2,1.5-.5.3-1.1.5-1.9.5s-.7,0-1-.2c-.3-.1-.5-.2-.7-.4-.2-.2-.4-.4-.5-.5-.1-.2-.3-.4-.3-.6v4.1h-1.5ZM225.1,245c.7,0,1.2-.3,1.7-.8.4-.5.6-1.3.6-2.4s-.2-1.7-.6-2.2c-.4-.6-1-.8-1.7-.8s-1.3.3-1.7.9c-.4.6-.6,1.3-.6,2.2s0,1.1.3,1.6c.2.5.4.9.8,1.2.3.3.8.4,1.3.4ZM230.8,246v-8.3h1.4v1.2c.2-.4.5-.7.9-1,.4-.3.9-.4,1.6-.4s.6,0,.9.2c.3.1.6.3.9.5.3.2.5.5.6.7.3-.4.6-.7,1-1,.4-.3.9-.4,1.5-.4s.6,0,.9.1c.3,0,.6.2.9.5.3.2.5.5.7.9.2.4.3.9.3,1.5v5.4h-1.5v-5.3c0-.5,0-.9-.2-1.2-.2-.3-.4-.5-.6-.6-.3-.1-.5-.2-.8-.2s-.5,0-.8.2c-.3.1-.5.3-.7.5-.2.2-.3.6-.3,1v5.5h-1.5v-5.7c0-.3,0-.6-.3-.8-.2-.2-.4-.4-.6-.5-.3-.1-.5-.2-.8-.2s-.6,0-.9.2c-.3.1-.5.3-.7.5-.2.2-.3.6-.3.9v5.5h-1.5ZM245.7,242.2c0,.5,0,1,.3,1.4.2.4.4.8.8,1,.4.3.8.4,1.3.4s1-.1,1.4-.4c.4-.2.6-.6.7-1.1h1.4c-.1.6-.3,1-.7,1.4-.3.4-.8.7-1.3.9-.5.2-1,.3-1.5.3-.8,0-1.5-.2-2-.5-.6-.3-1-.8-1.4-1.4-.3-.6-.5-1.4-.5-2.3s.1-1.6.4-2.3c.3-.7.7-1.2,1.3-1.5.6-.4,1.3-.6,2.1-.6s1.4.2,2,.5c.5.3.9.8,1.2,1.4.3.6.4,1.3.4,2.2v.5h-5.9ZM245.7,241.2h4.5c0-.5,0-.9-.2-1.3-.2-.4-.4-.7-.7-.9-.3-.2-.7-.3-1.2-.3s-.9.1-1.3.4c-.3.2-.6.6-.8,1-.2.4-.2.8-.2,1.2ZM253.6,246v-8.3h1.4v1.2c.1-.2.3-.4.6-.6.2-.2.5-.4.9-.5.3-.1.7-.2,1.2-.2s1,.1,1.4.3c.4.2.8.5,1.1,1,.3.4.4,1,.4,1.7v5.4h-1.5v-5.3c0-.6-.2-1.1-.5-1.4-.3-.3-.8-.5-1.3-.5s-.7,0-1,.2c-.3.1-.6.3-.8.5-.2.2-.3.5-.3.9v5.5h-1.5ZM266.7,238.8h-1.9v5.1c0,.3,0,.5,0,.6,0,.1.2.2.3.3.1,0,.4,0,.6,0h.9v1c-.1,0-.3,0-.5,0-.2,0-.5,0-.8,0-.6,0-1,0-1.3-.2-.3-.2-.5-.4-.7-.7-.1-.3-.2-.7-.2-1.1v-5.2h-1.3v-1.1h1.4l.4-2.4h1.1v2.4h1.9v1.1ZM268.5,246v-1.9h1.8v1.9h-1.8Z"/>
  <g>
    <path class="st4" d="M67.7,63.8c-1,0-1.8-.2-2.4-.5-.6-.3-1-.8-1.3-1.4-.3-.6-.4-1.3-.4-2.2v-6.2h2.1v6.4c0,.8.2,1.3.5,1.7.4.3.8.5,1.4.5s.7,0,1-.2c.3-.2.5-.4.7-.7.2-.3.3-.7.3-1.2v-6.4h2.1v6.3c0,.8-.1,1.5-.4,2.1-.3.6-.7,1.1-1.3,1.4-.6.3-1.4.5-2.4.5Z"/>
    <path class="st4" d="M76.4,63.8c-.5,0-1,0-1.5-.2-.5-.2-.9-.4-1.2-.8s-.5-.8-.6-1.4h1.8c0,.3.2.5.3.6.2.1.3.3.6.3.2,0,.4,0,.6,0,.4,0,.7,0,.9-.2.2-.1.4-.3.4-.6s0-.4-.2-.5c-.1-.1-.4-.2-.7-.3l-1.3-.3c-.6-.1-1.2-.4-1.5-.7s-.6-.8-.6-1.4c0-.4.1-.8.3-1.2.2-.3.6-.6,1-.8.5-.2,1-.3,1.7-.3s1.6.2,2.1.6.8.9.8,1.7h-1.7c0-.3-.2-.5-.4-.6s-.5-.2-.9-.2-.6,0-.9.2c-.2.1-.3.3-.3.6s0,.3.3.5c.2.1.5.2.9.3l1.2.3c.4,0,.7.2,1,.4.3.2.5.4.6.6.1.2.2.4.3.6,0,.2,0,.4,0,.6,0,.5-.1.9-.4,1.2-.3.3-.6.6-1.1.8-.5.2-1,.3-1.6.3Z"/>
    <path class="st4" d="M84.2,63.8c-.7,0-1.4-.2-1.9-.5-.5-.3-1-.7-1.3-1.3s-.5-1.2-.5-1.9.1-1.4.4-2c.3-.6.7-1,1.2-1.4s1.2-.5,1.9-.5,1.4.2,1.9.5c.5.3.9.7,1.1,1.3.3.6.4,1.2.4,1.9v.6h-4.9c0,.4,0,.7.2,1,.1.3.3.5.5.6.2.1.5.2.8.2s.7,0,.9-.2c.3-.1.4-.4.6-.7h1.8c0,.5-.3,1-.6,1.3-.3.4-.7.6-1.2.8-.5.2-1,.3-1.5.3ZM82.6,59.3h3c0-.3,0-.6-.2-.8-.1-.2-.3-.4-.5-.6s-.5-.2-.8-.2-.6,0-.8.2c-.2.2-.4.3-.5.6-.1.2-.2.5-.2.8Z"/>
    <path class="st4" d="M95.2,63.7c-.6,0-1.1,0-1.5-.2s-.6-.4-.7-.7c-.1-.3-.2-.6-.2-1v-3.9h-1.2v-1.4h1.2l.5-2.2h1.5v2.2h1.6v1.4h-1.6v3.9c0,.2,0,.3,0,.4,0,0,.1.1.2.2,0,0,.2,0,.4,0h1v1.3c0,0-.2,0-.4.1-.2,0-.5,0-.8,0Z"/>
    <path class="st4" d="M98,63.6v-10.4h2v4.2c.1-.2.3-.3.4-.5s.4-.3.7-.4c.3-.1.6-.2,1-.2s.9,0,1.3.3c.4.2.7.4.9.8.2.3.3.8.3,1.2v5h-2.1v-4.7c0-.3-.1-.6-.4-.8-.2-.2-.5-.3-.9-.3s-.4,0-.6.1c-.2,0-.4.2-.5.4-.1.2-.2.4-.2.6v4.6h-2Z"/>
    <path class="st4" d="M109.6,63.8c-.7,0-1.4-.2-1.9-.5-.5-.3-1-.7-1.3-1.3s-.5-1.2-.5-1.9.1-1.4.4-2c.3-.6.7-1,1.2-1.4s1.2-.5,1.9-.5,1.4.2,1.9.5c.5.3.9.7,1.1,1.3.3.6.4,1.2.4,1.9v.6h-4.9c0,.4,0,.7.2,1,.1.3.3.5.5.6.2.1.5.2.8.2s.7,0,.9-.2c.3-.1.4-.4.6-.7h1.8c0,.5-.3,1-.6,1.3-.3.4-.7.6-1.2.8-.5.2-1,.3-1.5.3ZM108,59.3h3c0-.3,0-.6-.2-.8-.1-.2-.3-.4-.5-.6s-.5-.2-.8-.2-.6,0-.8.2c-.2.2-.4.3-.5.6-.1.2-.2.5-.2.8Z"/>
    <path class="st4" d="M121.3,63.8c-.8,0-1.5-.1-2.1-.4s-1.1-.6-1.4-1c-.3-.4-.5-1-.5-1.6s0-.8.3-1.1c.2-.3.4-.6.7-.9.3-.2.6-.4.9-.5-.4-.2-.8-.5-1.1-.8-.3-.4-.4-.8-.4-1.3s.2-1.1.5-1.6c.3-.4.8-.7,1.3-1,.6-.2,1.2-.3,1.9-.3s1.3.1,1.9.3c.5.2,1,.5,1.3,1,.3.4.5.9.5,1.6s-.1,1-.4,1.3c-.3.4-.6.6-1.1.8.3,0,.6.2.9.5s.5.5.7.9c.2.3.3.7.3,1.1,0,.6-.2,1.1-.5,1.6-.3.4-.8.8-1.4,1-.6.2-1.3.4-2.2.4ZM121.3,62.2c.6,0,1.1-.1,1.4-.4.3-.3.5-.6.5-1.1s0-.6-.2-.8-.4-.4-.7-.5c-.3-.1-.6-.2-1-.2s-.7,0-1,.2-.5.3-.7.5-.2.5-.2.8c0,.4.2.8.5,1.1.3.3.8.4,1.4.4ZM121.3,57.6c.5,0,.9-.1,1.2-.4s.5-.6.5-1-.2-.8-.5-1-.7-.4-1.1-.4-.8.1-1.1.4-.5.6-.5,1,.2.8.5,1,.7.4,1.1.4Z"/>
    <path class="st4" d="M130.6,63.8c-.8,0-1.5-.1-2.1-.4s-1.1-.6-1.4-1c-.3-.4-.5-1-.5-1.6s0-.8.3-1.1c.2-.3.4-.6.7-.9.3-.2.6-.4.9-.5-.4-.2-.8-.5-1.1-.8-.3-.4-.4-.8-.4-1.3s.2-1.1.5-1.6c.3-.4.8-.7,1.3-1,.6-.2,1.2-.3,1.9-.3s1.3.1,1.9.3c.5.2,1,.5,1.3,1,.3.4.5.9.5,1.6s-.1,1-.4,1.3c-.3.4-.6.6-1.1.8.3,0,.6.2.9.5s.5.5.7.9c.2.3.3.7.3,1.1,0,.6-.2,1.1-.5,1.6-.3.4-.8.8-1.4,1-.6.2-1.3.4-2.2.4ZM130.6,62.2c.6,0,1.1-.1,1.4-.4.3-.3.5-.6.5-1.1s0-.6-.2-.8-.4-.4-.7-.5c-.3-.1-.6-.2-1-.2s-.7,0-1,.2-.5.3-.7.5-.2.5-.2.8c0,.4.2.8.5,1.1.3.3.8.4,1.4.4ZM130.6,57.6c.5,0,.9-.1,1.2-.4s.5-.6.5-1-.2-.8-.5-1-.7-.4-1.1-.4-.8.1-1.1.4-.5.6-.5,1,.2.8.5,1,.7.4,1.1.4Z"/>
    <path class="st4" d="M139.6,63.8c-.6,0-1.2-.1-1.8-.4-.5-.2-1-.6-1.3-1-.3-.4-.5-1-.6-1.6h1.9c0,.4.3.7.6,1,.3.2.7.4,1.1.4s.9-.1,1.3-.3.6-.6.8-1.1.2-1.2.2-2c-.1.2-.3.5-.5.6-.2.2-.5.3-.8.4-.3.1-.7.2-1,.2-.7,0-1.3-.1-1.8-.4s-.9-.6-1.2-1.1c-.3-.5-.5-1-.5-1.7s.2-1.3.5-1.8c.3-.5.8-.9,1.3-1.2.6-.3,1.2-.4,2-.4s1.6.2,2.2.6c.6.4,1.1,1,1.4,1.7.3.8.5,1.6.5,2.6s-.2,2.2-.5,3c-.3.8-.8,1.4-1.5,1.8-.6.4-1.4.6-2.3.6ZM139.8,58.4c.3,0,.6,0,.8-.2s.5-.3.7-.5.3-.4.3-.6c0-.5,0-.8-.2-1.2-.1-.3-.4-.6-.6-.7-.3-.2-.6-.3-.9-.3s-.6,0-.9.2c-.3.1-.5.4-.6.6-.1.3-.2.6-.2.9,0,.5.2.9.5,1.2.3.3.7.4,1.2.4Z"/>
    <path class="st4" d="M148.8,63.6v-10.1h4.3c.8,0,1.5.1,2,.4.5.3.9.6,1.1,1.1.2.5.4,1,.4,1.6s0,1-.2,1.3c-.2.4-.4.7-.7.9-.3.2-.6.4-.9.6l1.9,4.2h-2.1l-1.6-3.9h-2.1v3.9h-2ZM150.9,58.1h1.9c.5,0,1-.1,1.3-.4.3-.3.5-.7.5-1.1s-.2-.8-.5-1.1c-.3-.3-.7-.4-1.2-.4h-2v3.1Z"/>
    <path class="st4" d="M161.4,63.8c-.7,0-1.4-.2-1.9-.5-.5-.3-1-.7-1.3-1.3s-.5-1.2-.5-1.9.1-1.4.4-2c.3-.6.7-1,1.2-1.4s1.2-.5,1.9-.5,1.4.2,1.9.5c.5.3.9.7,1.1,1.3.3.6.4,1.2.4,1.9v.6h-4.9c0,.4,0,.7.2,1,.1.3.3.5.5.6.2.1.5.2.8.2s.7,0,.9-.2c.3-.1.4-.4.6-.7h1.8c0,.5-.3,1-.6,1.3-.3.4-.7.6-1.2.8-.5.2-1,.3-1.5.3ZM159.8,59.3h3c0-.3,0-.6-.2-.8-.1-.2-.3-.4-.5-.6s-.5-.2-.8-.2-.6,0-.8.2c-.2.2-.4.3-.5.6-.1.2-.2.5-.2.8Z"/>
    <path class="st4" d="M166.2,65.9v-9.5h2.1v1c.1-.2.2-.3.4-.5s.3-.3.5-.4c.2-.1.4-.2.6-.2.2,0,.5,0,.7,0,.5,0,1,.1,1.4.4.4.3.8.7,1,1.2s.4,1.2.4,2.1-.1,1.6-.4,2.2c-.3.6-.6,1-1.1,1.3-.5.3-1,.4-1.5.4s-.5,0-.7,0-.4-.2-.6-.3c-.2-.1-.3-.2-.5-.4-.1-.1-.3-.3-.4-.5v3.3h-2ZM169.8,62.3c.4,0,.8-.2,1.1-.6.3-.4.5-1,.5-1.8s-.1-1.2-.4-1.6c-.3-.4-.7-.6-1.1-.6s-.9.2-1.2.6c-.3.4-.4,1-.4,1.6s0,.8.2,1.1c.1.4.3.6.5.8.2.2.5.3.9.3Z"/>
    <path class="st4" d="M174.7,63.6v-7.2h2v1.7c.1-.4.3-.7.5-1,.2-.3.5-.5.8-.7.3-.2.6-.2,1-.2s.1,0,.2,0c0,0,.1,0,.1,0v1.9s0,0-.2,0c0,0-.1,0-.2,0-.4,0-.7,0-1,0-.3,0-.5.2-.7.3-.2.1-.3.3-.4.5,0,.2-.1.4-.1.7v4h-2Z"/>
    <path class="st4" d="M183.8,63.8c-.7,0-1.4-.2-1.9-.5-.5-.3-1-.7-1.3-1.3s-.5-1.2-.5-1.9.1-1.4.4-2c.3-.6.7-1,1.2-1.4s1.2-.5,1.9-.5,1.4.2,1.9.5c.5.3.9.7,1.1,1.3.3.6.4,1.2.4,1.9v.6h-4.9c0,.4,0,.7.2,1,.1.3.3.5.5.6.2.1.5.2.8.2s.7,0,.9-.2c.3-.1.4-.4.6-.7h1.8c0,.5-.3,1-.6,1.3-.3.4-.7.6-1.2.8-.5.2-1,.3-1.5.3ZM182.2,59.3h3c0-.3,0-.6-.2-.8-.1-.2-.3-.4-.5-.6s-.5-.2-.8-.2-.6,0-.8.2c-.2.2-.4.3-.5.6-.1.2-.2.5-.2.8Z"/>
    <path class="st4" d="M191.4,63.8c-.5,0-1,0-1.5-.2-.5-.2-.9-.4-1.2-.8s-.5-.8-.6-1.4h1.8c0,.3.2.5.3.6.2.1.3.3.6.3.2,0,.4,0,.6,0,.4,0,.7,0,.9-.2.2-.1.4-.3.4-.6s0-.4-.2-.5c-.1-.1-.4-.2-.7-.3l-1.3-.3c-.6-.1-1.2-.4-1.5-.7s-.6-.8-.6-1.4c0-.4.1-.8.3-1.2.2-.3.6-.6,1-.8.5-.2,1-.3,1.7-.3s1.6.2,2.1.6.8.9.8,1.7h-1.7c0-.3-.2-.5-.4-.6s-.5-.2-.9-.2-.6,0-.9.2c-.2.1-.3.3-.3.6s0,.3.3.5c.2.1.5.2.9.3l1.2.3c.4,0,.7.2,1,.4.3.2.5.4.6.6.1.2.2.4.3.6,0,.2,0,.4,0,.6,0,.5-.1.9-.4,1.2-.3.3-.6.6-1.1.8-.5.2-1,.3-1.6.3Z"/>
    <path class="st4" d="M199.2,63.8c-.7,0-1.4-.2-1.9-.5-.5-.3-1-.7-1.3-1.3s-.5-1.2-.5-1.9.1-1.4.4-2c.3-.6.7-1,1.2-1.4s1.2-.5,1.9-.5,1.4.2,1.9.5c.5.3.9.7,1.1,1.3.3.6.4,1.2.4,1.9v.6h-4.9c0,.4,0,.7.2,1,.1.3.3.5.5.6.2.1.5.2.8.2s.7,0,.9-.2c.3-.1.4-.4.6-.7h1.8c0,.5-.3,1-.6,1.3-.3.4-.7.6-1.2.8-.5.2-1,.3-1.5.3ZM197.6,59.3h3c0-.3,0-.6-.2-.8-.1-.2-.3-.4-.5-.6s-.5-.2-.8-.2-.6,0-.8.2c-.2.2-.4.3-.5.6-.1.2-.2.5-.2.8Z"/>
    <path class="st4" d="M204,63.6v-7.2h2v1c.1-.2.3-.3.4-.5.2-.2.4-.3.7-.4.3-.1.6-.2,1-.2s.9,0,1.2.3c.4.2.7.4.9.8.2.4.4.9.4,1.5v4.8h-2v-4.5c0-.4-.1-.7-.4-.9-.2-.2-.5-.3-.9-.3s-.4,0-.6.1c-.2,0-.4.2-.5.4-.1.2-.2.4-.2.6v4.6h-2Z"/>
    <path class="st4" d="M215.1,63.7c-.6,0-1.1,0-1.5-.2s-.6-.4-.7-.7c-.1-.3-.2-.6-.2-1v-3.9h-1.2v-1.4h1.2l.5-2.2h1.5v2.2h1.6v1.4h-1.6v3.9c0,.2,0,.3,0,.4,0,0,.1.1.2.2,0,0,.2,0,.4,0h1v1.3c0,0-.2,0-.4.1-.2,0-.5,0-.8,0Z"/>
    <path class="st4" d="M220,63.8c-.5,0-.9,0-1.2-.3s-.7-.4-.9-.8c-.2-.3-.3-.7-.3-1.2,0-.8.3-1.4.9-1.8s1.5-.6,2.8-.6h.9v-.4c0-.3,0-.6-.3-.8-.2-.2-.5-.3-.9-.3-.3,0-.6,0-.8.2-.3.1-.5.4-.6.7h-1.7c0-.5.2-1,.5-1.3s.7-.6,1.1-.8c.5-.2,1-.2,1.6-.2s1.3,0,1.8.3c.4.2.8.4,1,.8.2.3.3.8.3,1.2v5.1h-1.7l-.2-1.2c-.2.5-.6.9-.9,1.1-.4.2-.8.3-1.3.3ZM220.7,62.4c.2,0,.4,0,.5-.1s.3-.2.5-.3c.1-.1.3-.2.3-.4,0-.1.1-.3.1-.4v-1.1h-.7c-.3,0-.7,0-1,.1s-.5.2-.7.4c-.2.2-.3.4-.3.7s.1.6.3.8c.2.2.5.3.9.3Z"/>
    <path class="st4" d="M228.6,63.7c-.6,0-1.1,0-1.5-.2s-.6-.4-.7-.7c-.1-.3-.2-.6-.2-1v-3.9h-1.2v-1.4h1.2l.5-2.2h1.5v2.2h1.6v1.4h-1.6v3.9c0,.2,0,.3,0,.4,0,0,.1.1.2.2,0,0,.2,0,.4,0h1v1.3c0,0-.2,0-.4.1-.2,0-.5,0-.8,0Z"/>
    <path class="st4" d="M231.4,55.3v-1.8h2v1.8h-2ZM231.4,63.6v-7.2h2v7.2h-2Z"/>
    <path class="st4" d="M238.3,63.8c-.7,0-1.3-.2-1.9-.5-.5-.3-.9-.7-1.2-1.3s-.4-1.2-.4-2,.1-1.4.4-2c.3-.6.7-1,1.2-1.3.5-.3,1.1-.5,1.9-.5s1.3.2,1.9.5.9.8,1.2,1.3c.3.6.4,1.2.4,2s-.1,1.4-.4,1.9c-.3.6-.7,1-1.2,1.3-.5.3-1.2.5-1.9.5ZM238.3,62.2c.4,0,.6-.1.9-.3.2-.2.4-.5.5-.8,0-.3.1-.7.1-1.1s0-.7-.1-1.1c0-.3-.2-.6-.5-.8-.2-.2-.5-.3-.9-.3s-.7,0-.9.3c-.2.2-.4.5-.5.8-.1.3-.2.7-.2,1.1s0,.7.1,1.1c0,.3.2.6.5.9s.5.3.9.3Z"/>
    <path class="st4" d="M243.2,63.6v-7.2h2v1c.1-.2.3-.3.4-.5.2-.2.4-.3.7-.4.3-.1.6-.2,1-.2s.9,0,1.2.3c.4.2.7.4.9.8.2.4.4.9.4,1.5v4.8h-2v-4.5c0-.4-.1-.7-.4-.9-.2-.2-.5-.3-.9-.3s-.4,0-.6.1c-.2,0-.4.2-.5.4-.1.2-.2.4-.2.6v4.6h-2Z"/>
    <path class="st4" d="M254.3,63.8c-.5,0-1,0-1.5-.2-.5-.2-.9-.4-1.2-.8-.3-.4-.5-.8-.6-1.4h1.8c0,.3.2.5.3.6.2.1.3.3.6.3.2,0,.4,0,.6,0,.4,0,.7,0,1-.2.2-.1.4-.3.4-.6s0-.4-.2-.5c-.1-.1-.4-.2-.7-.3l-1.3-.3c-.6-.1-1.2-.4-1.5-.7-.4-.3-.6-.8-.6-1.4,0-.4.1-.8.3-1.2.2-.3.6-.6,1-.8.5-.2,1-.3,1.7-.3s1.6.2,2.1.6c.5.4.8.9.8,1.7h-1.7c0-.3-.2-.5-.4-.6s-.5-.2-.9-.2-.6,0-.9.2c-.2.1-.3.3-.3.6s0,.3.3.5c.2.1.5.2.9.3l1.2.3c.4,0,.7.2,1,.4s.5.4.6.6c.1.2.2.4.3.6,0,.2,0,.4,0,.6,0,.5-.1.9-.4,1.2-.3.3-.6.6-1.1.8-.5.2-1,.3-1.6.3Z"/>
    <path class="st4" d="M265.9,63.8c-.5,0-1,0-1.5-.2-.5-.1-.9-.3-1.3-.6s-.7-.6-1-.9c-.3-.4-.4-.8-.5-1.3h2.1c0,.3.2.6.4.8.2.2.5.4.8.5.3.1.7.2,1.1.2s.6,0,.9-.1c.3,0,.5-.2.7-.4.2-.2.3-.4.3-.7s-.1-.6-.4-.8c-.3-.2-.6-.3-1-.4l-1.9-.4c-.5-.1-1-.3-1.4-.5-.4-.2-.7-.5-.9-.9s-.3-.8-.3-1.4.2-1.2.5-1.6c.3-.5.8-.8,1.4-1.1.6-.2,1.3-.4,2-.4s1.6.1,2.1.4c.6.3,1,.6,1.3,1.1s.5,1,.5,1.6h-2c0-.4-.1-.6-.3-.8-.2-.2-.4-.4-.7-.5-.3,0-.6-.1-.9-.1-.6,0-1.1.1-1.3.4s-.4.5-.4.9.1.6.3.7c.2.2.6.3,1,.4l1.8.4c.7.1,1.2.3,1.6.6s.7.6.9,1c.2.4.3.8.3,1.3s-.2,1.2-.5,1.6c-.3.5-.8.8-1.4,1.1s-1.3.4-2.1.4Z"/>
    <path class="st4" d="M274.8,63.8c-.7,0-1.4-.2-1.9-.5-.5-.3-1-.7-1.3-1.3s-.5-1.2-.5-1.9.1-1.4.4-2c.3-.6.7-1,1.2-1.4.5-.3,1.2-.5,1.9-.5s1.4.2,1.9.5.9.7,1.1,1.3.4,1.2.4,1.9v.6h-4.9c0,.4,0,.7.2,1,.1.3.3.5.5.6.2.1.5.2.8.2s.7,0,.9-.2c.3-.1.4-.4.6-.7h1.8c0,.5-.3,1-.6,1.3-.3.4-.7.6-1.2.8-.5.2-1,.3-1.5.3ZM273.2,59.3h3c0-.3,0-.6-.2-.8-.1-.2-.3-.4-.5-.6-.2-.1-.5-.2-.8-.2s-.6,0-.8.2c-.2.2-.4.3-.5.6-.1.2-.2.5-.2.8Z"/>
    <path class="st4" d="M281.7,63.8c-.5,0-.9,0-1.2-.3-.4-.2-.7-.4-.9-.8s-.3-.7-.3-1.2c0-.8.3-1.4.9-1.8s1.5-.6,2.8-.6h.9v-.4c0-.3,0-.6-.3-.8-.2-.2-.5-.3-.9-.3-.3,0-.6,0-.8.2-.3.1-.5.4-.6.7h-1.7c0-.5.2-1,.5-1.3.3-.3.7-.6,1.1-.8.5-.2,1-.2,1.6-.2s1.3,0,1.8.3.8.4,1,.8c.2.3.3.8.3,1.2v5.1h-1.7l-.2-1.2c-.2.5-.6.9-.9,1.1-.4.2-.8.3-1.3.3ZM282.4,62.4c.2,0,.4,0,.5-.1.2,0,.3-.2.5-.3.1-.1.3-.2.3-.4,0-.1.1-.3.1-.4v-1.1h-.7c-.3,0-.7,0-1,.1-.3,0-.5.2-.7.4s-.3.4-.3.7.1.6.3.8c.2.2.5.3.9.3Z"/>
    <path class="st4" d="M287.5,63.6v-7.2h2v1.7c.1-.4.3-.7.5-1,.2-.3.5-.5.8-.7.3-.2.6-.2,1-.2s.1,0,.2,0c0,0,.1,0,.1,0v1.9s0,0-.2,0c0,0-.1,0-.2,0-.4,0-.7,0-1,0s-.5.2-.7.3c-.2.1-.3.3-.4.5,0,.2-.1.4-.1.7v4h-2Z"/>
    <path class="st4" d="M296.4,63.8c-.7,0-1.3-.1-1.8-.4-.5-.3-.9-.7-1.2-1.3-.3-.6-.5-1.2-.5-2s.1-1.4.4-2c.3-.6.7-1,1.2-1.3.5-.3,1.1-.5,1.8-.5s1.1.1,1.6.4.8.6,1,1c.3.4.4.9.4,1.4h-1.7c0-.2-.1-.4-.2-.6-.1-.2-.2-.3-.4-.5-.2-.1-.4-.2-.7-.2-.5,0-.9.2-1.2.6-.3.4-.4.9-.4,1.7s.1,1.3.4,1.7c.3.4.7.6,1.2.6s.5,0,.7-.2c.2-.1.3-.3.4-.5.1-.2.2-.4.2-.5h1.7c0,.5-.2,1-.4,1.4s-.6.7-1,1-1,.4-1.6.4Z"/>
    <path class="st4" d="M300.8,63.6v-10.4h2v4.2c.1-.2.3-.3.4-.5.2-.2.4-.3.7-.4.3-.1.6-.2,1-.2s.9,0,1.3.3.7.4.9.8c.2.3.3.8.3,1.2v5h-2.1v-4.7c0-.3-.1-.6-.4-.8-.2-.2-.5-.3-.9-.3s-.4,0-.6.1c-.2,0-.4.2-.5.4-.1.2-.2.4-.2.6v4.6h-2Z"/>
    <path class="st4" d="M315.4,63.7c-.6,0-1.1,0-1.5-.2s-.6-.4-.7-.7c-.1-.3-.2-.6-.2-1v-3.9h-1.2v-1.4h1.2l.5-2.2h1.5v2.2h1.6v1.4h-1.6v3.9c0,.2,0,.3,0,.4,0,0,.1.1.2.2,0,0,.2,0,.4,0h1v1.3c0,0-.2,0-.4.1-.2,0-.5,0-.8,0Z"/>
    <path class="st4" d="M321.1,63.8c-.7,0-1.3-.2-1.9-.5-.5-.3-.9-.7-1.2-1.3s-.4-1.2-.4-2,.1-1.4.4-2c.3-.6.7-1,1.2-1.3.5-.3,1.1-.5,1.9-.5s1.3.2,1.9.5.9.8,1.2,1.3c.3.6.4,1.2.4,2s-.1,1.4-.4,1.9c-.3.6-.7,1-1.2,1.3-.5.3-1.2.5-1.9.5ZM321.1,62.2c.4,0,.6-.1.9-.3.2-.2.4-.5.5-.8,0-.3.1-.7.1-1.1s0-.7-.1-1.1c0-.3-.2-.6-.5-.8-.2-.2-.5-.3-.9-.3s-.7,0-.9.3c-.2.2-.4.5-.5.8-.1.3-.2.7-.2,1.1s0,.7.1,1.1c0,.3.2.6.5.9s.5.3.9.3Z"/>
    <path class="st4" d="M329.9,63.6v-5.8h-1.3v-1.4h1.3v-1c0-.6.2-1,.5-1.4s.8-.5,1.5-.5h1.7v1.4s-.9,0-.9,0c-.3,0-.4,0-.5.2,0,.1-.1.3-.1.6v.7h1.6v1.4h-1.5v5.8h-2.1ZM334.7,55.3v-1.8h2v1.8h-2ZM334.7,63.6v-7.2h2v7.2h-2Z"/>
    <path class="st4" d="M338.4,63.6v-7.2h2v1c.1-.2.3-.3.4-.5.2-.2.4-.3.7-.4.3-.1.6-.2,1-.2s.9,0,1.2.3c.4.2.7.4.9.8.2.4.4.9.4,1.5v4.8h-2v-4.5c0-.4-.1-.7-.4-.9-.2-.2-.5-.3-.9-.3s-.4,0-.6.1c-.2,0-.4.2-.5.4-.1.2-.2.4-.2.6v4.6h-2Z"/>
    <path class="st4" d="M349.5,63.8c-1,0-1.7-.3-2.3-1-.5-.7-.8-1.6-.8-2.8s.1-1.4.3-2,.5-1,1-1.3c.4-.3,1-.5,1.6-.5s.5,0,.7,0c.2,0,.4.1.6.2.2.1.4.2.5.4.1.1.3.3.3.4v-4.1h2.1v10.4h-1.5l-.2-1.5c0,.2-.2.4-.3.6-.1.2-.3.4-.4.5-.2.2-.4.3-.7.4s-.6.1-.9.1ZM349.9,62.3c.5,0,.9-.2,1.2-.5s.4-1,.4-1.8c0-.5,0-.9-.2-1.2-.1-.3-.3-.6-.5-.7-.2-.2-.5-.2-.8-.2s-.8.2-1.1.5-.4.9-.4,1.7.1,1.4.4,1.8c.3.4.6.6,1.1.6Z"/>
    <path class="st4" d="M359.5,65.9c-.5,0-.9,0-1.4-.2v-1.3h.7c.3,0,.6,0,.8,0,.2,0,.3-.1.4-.2,0,0,.2-.2.2-.2,0,0,0-.2,0-.2v-.4c.1,0-2.7-6.9-2.7-6.9h2l1.7,4.7,1.8-4.7h2l-2.9,7.3c-.3.6-.5,1.1-.8,1.4-.3.3-.6.6-.9.7-.3.1-.7.2-1,.2Z"/>
    <path class="st4" d="M369.2,63.8c-.7,0-1.3-.2-1.9-.5-.5-.3-.9-.7-1.2-1.3s-.4-1.2-.4-2,.1-1.4.4-2c.3-.6.7-1,1.2-1.3.5-.3,1.1-.5,1.9-.5s1.3.2,1.9.5.9.8,1.2,1.3c.3.6.4,1.2.4,2s-.1,1.4-.4,1.9c-.3.6-.7,1-1.2,1.3-.5.3-1.2.5-1.9.5ZM369.2,62.2c.4,0,.6-.1.9-.3.2-.2.4-.5.5-.8,0-.3.1-.7.1-1.1s0-.7-.1-1.1c0-.3-.2-.6-.5-.8-.2-.2-.5-.3-.9-.3s-.7,0-.9.3c-.2.2-.4.5-.5.8-.1.3-.2.7-.2,1.1s0,.7.1,1.1c0,.3.2.6.5.9s.5.3.9.3Z"/>
    <path class="st4" d="M376.8,63.8c-.3,0-.7,0-1-.2-.3-.1-.6-.3-.9-.5-.3-.2-.5-.4-.6-.7s-.2-.6-.2-1v-5h2v4.8c0,.3.1.6.3.8s.5.3,1,.3.7-.1,1-.3c.2-.2.4-.5.4-.9v-4.7h2v7.2h-1.5l-.2-1.4c0,.4-.2.8-.5,1s-.5.4-.8.5c-.3,0-.6.1-.9.1Z"/>
    <path class="st4" d="M382.5,63.6v-7.2h2v1.7c.1-.4.3-.7.5-1,.2-.3.5-.5.8-.7.3-.2.6-.2,1-.2s.1,0,.2,0c0,0,.1,0,.1,0v1.9s0,0-.2,0c0,0-.1,0-.2,0-.4,0-.7,0-1,0s-.5.2-.7.3c-.2.1-.3.3-.4.5,0,.2-.1.4-.1.7v4h-2Z"/>
    <path class="st4" d="M393.4,63.6l-2.7-7.2h1.8l1.6,4.6h0l1.6-4.6h1.9l-2.7,7.2h-1.5Z"/>
    <path class="st4" d="M401.8,63.8c-.7,0-1.4-.2-1.9-.5-.5-.3-1-.7-1.3-1.3s-.5-1.2-.5-1.9.1-1.4.4-2c.3-.6.7-1,1.2-1.4.5-.3,1.2-.5,1.9-.5s1.4.2,1.9.5.9.7,1.1,1.3.4,1.2.4,1.9v.6h-4.9c0,.4,0,.7.2,1,.1.3.3.5.5.6.2.1.5.2.8.2s.7,0,.9-.2c.3-.1.4-.4.6-.7h1.8c0,.5-.3,1-.6,1.3-.3.4-.7.6-1.2.8-.5.2-1,.3-1.5.3ZM400.2,59.3h3c0-.3,0-.6-.2-.8-.1-.2-.3-.4-.5-.6-.2-.1-.5-.2-.8-.2s-.6,0-.8.2c-.2.2-.4.3-.5.6-.1.2-.2.5-.2.8Z"/>
    <path class="st4" d="M406.5,63.6v-7.2h2v1c.1-.2.3-.3.4-.5.2-.2.4-.3.7-.4.3-.1.6-.2,1-.2s.9,0,1.2.3c.4.2.7.4.9.8.2.4.4.9.4,1.5v4.8h-2v-4.5c0-.4-.1-.7-.4-.9-.2-.2-.5-.3-.9-.3s-.4,0-.6.1c-.2,0-.4.2-.5.4-.1.2-.2.4-.2.6v4.6h-2Z"/>
    <path class="st4" d="M417.6,63.8c-1,0-1.7-.3-2.3-1-.5-.7-.8-1.6-.8-2.8s.1-1.4.3-2,.5-1,1-1.3c.4-.3,1-.5,1.6-.5s.5,0,.7,0c.2,0,.4.1.6.2.2.1.4.2.5.4.1.1.3.3.3.4v-4.1h2.1v10.4h-1.5l-.2-1.5c0,.2-.2.4-.3.6-.1.2-.3.4-.4.5-.2.2-.4.3-.7.4s-.6.1-.9.1ZM418,62.3c.5,0,.9-.2,1.2-.5s.4-1,.4-1.8c0-.5,0-.9-.2-1.2-.1-.3-.3-.6-.5-.7-.2-.2-.5-.2-.8-.2s-.8.2-1.1.5-.4.9-.4,1.7.1,1.4.4,1.8c.3.4.6.6,1.1.6Z"/>
    <path class="st4" d="M426.5,63.8c-.7,0-1.3-.2-1.9-.5-.5-.3-.9-.7-1.2-1.3s-.4-1.2-.4-2,.1-1.4.4-2c.3-.6.7-1,1.2-1.3.5-.3,1.1-.5,1.9-.5s1.3.2,1.9.5.9.8,1.2,1.3c.3.6.4,1.2.4,2s-.1,1.4-.4,1.9c-.3.6-.7,1-1.2,1.3-.5.3-1.2.5-1.9.5ZM426.5,62.2c.4,0,.6-.1.9-.3.2-.2.4-.5.5-.8,0-.3.1-.7.1-1.1s0-.7-.1-1.1c0-.3-.2-.6-.5-.8-.2-.2-.5-.3-.9-.3s-.7,0-.9.3c-.2.2-.4.5-.5.8-.1.3-.2.7-.2,1.1s0,.7.1,1.1c0,.3.2.6.5.9s.5.3.9.3Z"/>
    <path class="st4" d="M431.4,63.6v-7.2h2v1.7c.1-.4.3-.7.5-1,.2-.3.5-.5.8-.7.3-.2.6-.2,1-.2s.1,0,.2,0c0,0,.1,0,.1,0v1.9s0,0-.2,0c0,0-.1,0-.2,0-.4,0-.7,0-1,0s-.5.2-.7.3c-.2.1-.3.3-.4.5,0,.2-.1.4-.1.7v4h-2Z"/>
  </g>
</svg>