<svg width="468" height="258" viewBox="0 0 468 258" fill="none" xmlns="http://www.w3.org/2000/svg">
<rect width="468" height="258" rx="4" fill="#E8EBF0"/>
<rect x="33" y="36" width="402" height="58" fill="white" stroke="#7F8CA3" stroke-width="2"/>
<path fill-rule="evenodd" clip-rule="evenodd" d="M68.6667 67.6667H67.6133L67.24 67.3067C68.5467 65.7867 69.3333 63.8133 69.3333 61.6667C69.3333 56.88 65.4533 53 60.6667 53C55.88 53 52 56.88 52 61.6667C52 66.4533 55.88 70.3333 60.6667 70.3333C62.8133 70.3333 64.7867 69.5467 66.3067 68.24L66.6667 68.6133V69.6667L73.3333 76.32L75.32 74.3333L68.6667 67.6667ZM60.6667 67.6667C57.3467 67.6667 54.6667 64.9867 54.6667 61.6667C54.6667 58.3467 57.3467 55.6667 60.6667 55.6667C63.9867 55.6667 66.6667 58.3467 66.6667 61.6667C66.6667 64.9867 63.9867 67.6667 60.6667 67.6667Z" fill="#566580"/>
<path d="M106.552 66.592C106.552 67.5253 106.4 68.336 106.096 69.024C105.792 69.7067 105.299 70.2347 104.616 70.608C103.939 70.976 103.04 71.16 101.92 71.16C100.795 71.16 99.8933 70.9733 99.216 70.6C98.5387 70.2213 98.048 69.6853 97.744 68.992C97.4453 68.2987 97.296 67.472 97.296 66.512V59.432H99.672V66.688C99.672 67.552 99.88 68.184 100.296 68.584C100.712 68.9787 101.253 69.176 101.92 69.176C102.363 69.176 102.755 69.0907 103.096 68.92C103.437 68.744 103.704 68.4747 103.896 68.112C104.093 67.744 104.192 67.2693 104.192 66.688V59.432H106.552V66.592ZM111.85 71.16C111.274 71.16 110.719 71.0667 110.186 70.88C109.653 70.688 109.202 70.3893 108.834 69.984C108.466 69.5733 108.231 69.0427 108.13 68.392H110.154C110.223 68.6853 110.349 68.9173 110.53 69.088C110.717 69.2587 110.927 69.3813 111.162 69.456C111.397 69.5253 111.621 69.56 111.834 69.56C112.282 69.56 112.642 69.4907 112.914 69.352C113.191 69.208 113.33 68.9893 113.33 68.696C113.33 68.472 113.247 68.2933 113.082 68.16C112.922 68.0267 112.655 67.9253 112.282 67.856L110.826 67.552C110.095 67.3973 109.509 67.136 109.066 66.768C108.623 66.3947 108.397 65.8667 108.386 65.184C108.386 64.688 108.517 64.2427 108.778 63.848C109.045 63.4533 109.437 63.1413 109.954 62.912C110.471 62.6827 111.106 62.568 111.858 62.568C112.877 62.568 113.69 62.792 114.298 63.24C114.911 63.688 115.223 64.32 115.234 65.136H113.282C113.223 64.816 113.063 64.5707 112.802 64.4C112.546 64.224 112.223 64.136 111.834 64.136C111.429 64.136 111.095 64.208 110.834 64.352C110.573 64.496 110.442 64.7147 110.442 65.008C110.442 65.2267 110.549 65.4 110.762 65.528C110.975 65.6507 111.306 65.7573 111.754 65.848L113.098 66.152C113.562 66.264 113.938 66.4187 114.226 66.616C114.519 66.808 114.746 67.0187 114.906 67.248C115.066 67.4773 115.175 67.7093 115.234 67.944C115.298 68.1733 115.33 68.3813 115.33 68.568C115.33 69.1173 115.183 69.5867 114.89 69.976C114.597 70.36 114.189 70.6533 113.666 70.856C113.143 71.0587 112.538 71.16 111.85 71.16ZM118.889 67.4C118.883 67.8213 118.95 68.1893 119.089 68.504C119.227 68.8133 119.427 69.0533 119.689 69.224C119.955 69.3893 120.275 69.472 120.649 69.472C121.049 69.472 121.398 69.3867 121.697 69.216C122.001 69.0453 122.211 68.7653 122.329 68.376H124.433C124.342 68.9627 124.107 69.464 123.729 69.88C123.355 70.296 122.902 70.6133 122.369 70.832C121.835 71.0507 121.281 71.16 120.705 71.16C119.889 71.16 119.169 70.9893 118.545 70.648C117.926 70.3013 117.443 69.8133 117.097 69.184C116.75 68.5547 116.577 67.8133 116.577 66.96C116.577 66.1333 116.734 65.3893 117.049 64.728C117.363 64.0613 117.819 63.536 118.417 63.152C119.019 62.7627 119.742 62.568 120.585 62.568C121.427 62.568 122.134 62.7467 122.705 63.104C123.281 63.456 123.713 63.9493 124.001 64.584C124.294 65.2133 124.441 65.9413 124.441 66.768V67.4H118.889ZM118.881 66.008H122.257C122.257 65.6773 122.195 65.3733 122.073 65.096C121.95 64.8187 121.763 64.6 121.513 64.44C121.267 64.28 120.958 64.2 120.585 64.2C120.222 64.2 119.913 64.288 119.657 64.464C119.406 64.6347 119.214 64.8587 119.081 65.136C118.947 65.4133 118.881 65.704 118.881 66.008ZM134.399 64.352H132.559L132.575 68.76C132.575 68.9627 132.599 69.1147 132.647 69.216C132.701 69.312 132.781 69.376 132.887 69.408C132.999 69.4347 133.141 69.448 133.311 69.448H134.423V70.888C134.317 70.936 134.149 70.9813 133.919 71.024C133.695 71.0667 133.381 71.088 132.975 71.088C132.25 71.088 131.687 70.9947 131.287 70.808C130.893 70.6213 130.618 70.36 130.463 70.024C130.309 69.688 130.231 69.2987 130.231 68.856V64.352H128.887V62.728H130.311L130.895 60.232H132.559V62.72H134.399V64.352ZM136.125 71V59.112H138.445V63.92C138.578 63.728 138.746 63.5387 138.949 63.352C139.152 63.16 139.405 63 139.709 62.872C140.013 62.744 140.384 62.68 140.821 62.68C141.349 62.68 141.829 62.784 142.261 62.992C142.698 63.1947 143.048 63.4907 143.309 63.88C143.576 64.2693 143.709 64.744 143.709 65.304V71H141.365V65.648C141.365 65.2747 141.229 64.9893 140.957 64.792C140.69 64.5893 140.365 64.488 139.981 64.488C139.73 64.488 139.488 64.5333 139.253 64.624C139.018 64.7147 138.826 64.8533 138.677 65.04C138.533 65.2213 138.461 65.448 138.461 65.72V71H136.125ZM147.529 67.4C147.524 67.8213 147.591 68.1893 147.729 68.504C147.868 68.8133 148.068 69.0533 148.329 69.224C148.596 69.3893 148.916 69.472 149.289 69.472C149.689 69.472 150.039 69.3867 150.337 69.216C150.641 69.0453 150.852 68.7653 150.969 68.376H153.073C152.983 68.9627 152.748 69.464 152.369 69.88C151.996 70.296 151.543 70.6133 151.009 70.832C150.476 71.0507 149.921 71.16 149.345 71.16C148.529 71.16 147.809 70.9893 147.185 70.648C146.567 70.3013 146.084 69.8133 145.737 69.184C145.391 68.5547 145.217 67.8133 145.217 66.96C145.217 66.1333 145.375 65.3893 145.689 64.728C146.004 64.0613 146.46 63.536 147.057 63.152C147.66 62.7627 148.383 62.568 149.225 62.568C150.068 62.568 150.775 62.7467 151.345 63.104C151.921 63.456 152.353 63.9493 152.641 64.584C152.935 65.2133 153.081 65.9413 153.081 66.768V67.4H147.529ZM147.521 66.008H150.897C150.897 65.6773 150.836 65.3733 150.713 65.096C150.591 64.8187 150.404 64.6 150.153 64.44C149.908 64.28 149.599 64.2 149.225 64.2C148.863 64.2 148.553 64.288 148.297 64.464C148.047 64.6347 147.855 64.8587 147.721 65.136C147.588 65.4133 147.521 65.704 147.521 66.008ZM162.407 59.272C163.202 59.272 163.911 59.3973 164.535 59.648C165.164 59.8987 165.66 60.2667 166.023 60.752C166.386 61.232 166.567 61.824 166.567 62.528C166.567 63.12 166.404 63.624 166.079 64.04C165.754 64.456 165.354 64.776 164.879 65C165.231 65.0747 165.575 65.2507 165.911 65.528C166.252 65.8 166.532 66.136 166.751 66.536C166.97 66.9307 167.079 67.3493 167.079 67.792C167.079 68.48 166.884 69.0773 166.495 69.584C166.111 70.0907 165.567 70.4827 164.863 70.76C164.164 71.032 163.346 71.168 162.407 71.168C161.479 71.168 160.666 71.032 159.967 70.76C159.268 70.4827 158.724 70.0907 158.335 69.584C157.946 69.0773 157.751 68.48 157.751 67.792C157.751 67.3493 157.86 66.9307 158.079 66.536C158.298 66.136 158.575 65.8 158.911 65.528C159.247 65.2507 159.594 65.0747 159.951 65C159.476 64.776 159.074 64.456 158.743 64.04C158.412 63.624 158.247 63.12 158.247 62.528C158.247 61.824 158.428 61.232 158.791 60.752C159.159 60.2667 159.658 59.8987 160.287 59.648C160.916 59.3973 161.623 59.272 162.407 59.272ZM162.407 64.096C162.94 64.096 163.378 63.9547 163.719 63.672C164.066 63.384 164.239 62.9867 164.239 62.48C164.239 61.9787 164.066 61.5813 163.719 61.288C163.372 60.9947 162.935 60.848 162.407 60.848C161.884 60.848 161.45 60.9947 161.103 61.288C160.756 61.5813 160.583 61.9787 160.583 62.48C160.583 62.9867 160.756 63.384 161.103 63.672C161.45 63.9547 161.884 64.096 162.407 64.096ZM162.407 69.408C163.09 69.408 163.623 69.256 164.007 68.952C164.396 68.6427 164.591 68.2347 164.591 67.728C164.591 67.3867 164.503 67.088 164.327 66.832C164.151 66.5707 163.9 66.3653 163.575 66.216C163.25 66.0667 162.86 65.992 162.407 65.992C161.964 65.992 161.58 66.0667 161.255 66.216C160.93 66.3653 160.679 66.5707 160.503 66.832C160.327 67.088 160.239 67.3867 160.239 67.728C160.239 68.2347 160.434 68.6427 160.823 68.952C161.212 69.256 161.74 69.408 162.407 69.408ZM173.094 59.272C173.889 59.272 174.598 59.3973 175.222 59.648C175.852 59.8987 176.348 60.2667 176.71 60.752C177.073 61.232 177.254 61.824 177.254 62.528C177.254 63.12 177.092 63.624 176.766 64.04C176.441 64.456 176.041 64.776 175.566 65C175.918 65.0747 176.262 65.2507 176.598 65.528C176.94 65.8 177.22 66.136 177.438 66.536C177.657 66.9307 177.766 67.3493 177.766 67.792C177.766 68.48 177.572 69.0773 177.182 69.584C176.798 70.0907 176.254 70.4827 175.55 70.76C174.852 71.032 174.033 71.168 173.094 71.168C172.166 71.168 171.353 71.032 170.654 70.76C169.956 70.4827 169.412 70.0907 169.022 69.584C168.633 69.0773 168.438 68.48 168.438 67.792C168.438 67.3493 168.548 66.9307 168.766 66.536C168.985 66.136 169.262 65.8 169.598 65.528C169.934 65.2507 170.281 65.0747 170.638 65C170.164 64.776 169.761 64.456 169.43 64.04C169.1 63.624 168.934 63.12 168.934 62.528C168.934 61.824 169.116 61.232 169.478 60.752C169.846 60.2667 170.345 59.8987 170.974 59.648C171.604 59.3973 172.31 59.272 173.094 59.272ZM173.094 64.096C173.628 64.096 174.065 63.9547 174.406 63.672C174.753 63.384 174.926 62.9867 174.926 62.48C174.926 61.9787 174.753 61.5813 174.406 61.288C174.06 60.9947 173.622 60.848 173.094 60.848C172.572 60.848 172.137 60.9947 171.79 61.288C171.444 61.5813 171.27 61.9787 171.27 62.48C171.27 62.9867 171.444 63.384 171.79 63.672C172.137 63.9547 172.572 64.096 173.094 64.096ZM173.094 69.408C173.777 69.408 174.31 69.256 174.694 68.952C175.084 68.6427 175.278 68.2347 175.278 67.728C175.278 67.3867 175.19 67.088 175.014 66.832C174.838 66.5707 174.588 66.3653 174.262 66.216C173.937 66.0667 173.548 65.992 173.094 65.992C172.652 65.992 172.268 66.0667 171.942 66.216C171.617 66.3653 171.366 66.5707 171.19 66.832C171.014 67.088 170.926 67.3867 170.926 67.728C170.926 68.2347 171.121 68.6427 171.51 68.952C171.9 69.256 172.428 69.408 173.094 69.408ZM183.374 71.176C182.654 71.176 181.982 71.0373 181.358 70.76C180.734 70.4827 180.225 70.0933 179.83 69.592C179.435 69.0853 179.214 68.4933 179.166 67.816H181.39C181.486 68.264 181.699 68.6293 182.03 68.912C182.361 69.1893 182.777 69.328 183.278 69.328C183.833 69.328 184.318 69.1973 184.734 68.936C185.155 68.6747 185.47 68.2587 185.678 67.688C185.891 67.1173 185.966 66.3707 185.902 65.448C185.753 65.7307 185.545 65.9787 185.278 66.192C185.017 66.4 184.71 66.5627 184.358 66.68C184.006 66.792 183.614 66.848 183.182 66.848C182.398 66.848 181.702 66.7013 181.094 66.408C180.491 66.1093 180.017 65.688 179.67 65.144C179.329 64.5947 179.158 63.944 179.158 63.192C179.158 62.4347 179.339 61.76 179.702 61.168C180.065 60.576 180.571 60.112 181.222 59.776C181.873 59.44 182.635 59.272 183.51 59.272C184.491 59.272 185.337 59.5067 186.046 59.976C186.761 60.44 187.307 61.1013 187.686 61.96C188.07 62.8133 188.262 63.8187 188.262 64.976C188.262 66.3573 188.065 67.5093 187.67 68.432C187.281 69.3493 186.721 70.0373 185.99 70.496C185.259 70.9493 184.387 71.176 183.374 71.176ZM183.582 64.992C183.907 64.992 184.222 64.92 184.526 64.776C184.835 64.6267 185.089 64.44 185.286 64.216C185.483 63.992 185.582 63.76 185.582 63.52C185.587 63.0027 185.505 62.56 185.334 62.192C185.169 61.8187 184.934 61.5333 184.63 61.336C184.331 61.1387 183.982 61.04 183.582 61.04C183.214 61.04 182.886 61.1253 182.598 61.296C182.31 61.4667 182.083 61.7067 181.918 62.016C181.753 62.3253 181.67 62.6827 181.67 63.088C181.67 63.6907 181.846 64.16 182.198 64.496C182.55 64.8267 183.011 64.992 183.582 64.992ZM196.631 71.16C196.055 71.16 195.501 71.0667 194.967 70.88C194.434 70.688 193.983 70.3893 193.615 69.984C193.247 69.5733 193.013 69.0427 192.911 68.392H194.935C195.005 68.6853 195.13 68.9173 195.311 69.088C195.498 69.2587 195.709 69.3813 195.943 69.456C196.178 69.5253 196.402 69.56 196.615 69.56C197.063 69.56 197.423 69.4907 197.695 69.352C197.973 69.208 198.111 68.9893 198.111 68.696C198.111 68.472 198.029 68.2933 197.863 68.16C197.703 68.0267 197.437 67.9253 197.063 67.856L195.607 67.552C194.877 67.3973 194.29 67.136 193.847 66.768C193.405 66.3947 193.178 65.8667 193.167 65.184C193.167 64.688 193.298 64.2427 193.559 63.848C193.826 63.4533 194.218 63.1413 194.735 62.912C195.253 62.6827 195.887 62.568 196.639 62.568C197.658 62.568 198.471 62.792 199.079 63.24C199.693 63.688 200.005 64.32 200.015 65.136H198.063C198.005 64.816 197.845 64.5707 197.583 64.4C197.327 64.224 197.005 64.136 196.615 64.136C196.21 64.136 195.877 64.208 195.615 64.352C195.354 64.496 195.223 64.7147 195.223 65.008C195.223 65.2267 195.33 65.4 195.543 65.528C195.757 65.6507 196.087 65.7573 196.535 65.848L197.879 66.152C198.343 66.264 198.719 66.4187 199.007 66.616C199.301 66.808 199.527 67.0187 199.687 67.248C199.847 67.4773 199.957 67.7093 200.015 67.944C200.079 68.1733 200.111 68.3813 200.111 68.568C200.111 69.1173 199.965 69.5867 199.671 69.976C199.378 70.36 198.97 70.6533 198.447 70.856C197.925 71.0587 197.319 71.16 196.631 71.16ZM203.67 67.4C203.665 67.8213 203.731 68.1893 203.87 68.504C204.009 68.8133 204.209 69.0533 204.47 69.224C204.737 69.3893 205.057 69.472 205.43 69.472C205.83 69.472 206.179 69.3867 206.478 69.216C206.782 69.0453 206.993 68.7653 207.11 68.376H209.214C209.123 68.9627 208.889 69.464 208.51 69.88C208.137 70.296 207.683 70.6133 207.15 70.832C206.617 71.0507 206.062 71.16 205.486 71.16C204.67 71.16 203.95 70.9893 203.326 70.648C202.707 70.3013 202.225 69.8133 201.878 69.184C201.531 68.5547 201.358 67.8133 201.358 66.96C201.358 66.1333 201.515 65.3893 201.83 64.728C202.145 64.0613 202.601 63.536 203.198 63.152C203.801 62.7627 204.523 62.568 205.366 62.568C206.209 62.568 206.915 62.7467 207.486 63.104C208.062 63.456 208.494 63.9493 208.782 64.584C209.075 65.2133 209.222 65.9413 209.222 66.768V67.4H203.67ZM203.662 66.008H207.038C207.038 65.6773 206.977 65.3733 206.854 65.096C206.731 64.8187 206.545 64.6 206.294 64.44C206.049 64.28 205.739 64.2 205.366 64.2C205.003 64.2 204.694 64.288 204.438 64.464C204.187 64.6347 203.995 64.8587 203.862 65.136C203.729 65.4133 203.662 65.704 203.662 66.008ZM213.197 71.16C212.669 71.16 212.194 71.0613 211.773 70.864C211.352 70.6667 211.018 70.3813 210.773 70.008C210.528 69.6293 210.405 69.1707 210.405 68.632C210.405 67.7253 210.744 67.0373 211.421 66.568C212.098 66.0933 213.168 65.848 214.629 65.832L215.661 65.816V65.32C215.661 64.9413 215.549 64.6507 215.325 64.448C215.106 64.24 214.765 64.1387 214.301 64.144C213.96 64.1493 213.634 64.2293 213.325 64.384C213.021 64.5387 212.813 64.808 212.701 65.192H210.757C210.789 64.5947 210.962 64.104 211.277 63.72C211.592 63.3307 212.018 63.0427 212.557 62.856C213.101 62.664 213.717 62.568 214.405 62.568C215.253 62.568 215.933 62.6747 216.445 62.888C216.957 63.096 217.328 63.3973 217.557 63.792C217.786 64.1813 217.901 64.6453 217.901 65.184V71H215.949L215.757 69.576C215.474 70.1733 215.12 70.5867 214.693 70.816C214.272 71.0453 213.773 71.16 213.197 71.16ZM213.981 69.624C214.194 69.624 214.4 69.5867 214.597 69.512C214.8 69.432 214.978 69.328 215.133 69.2C215.293 69.0667 215.421 68.9173 215.517 68.752C215.613 68.5867 215.661 68.416 215.661 68.24V67.016L214.821 67.032C214.432 67.0373 214.069 67.0853 213.733 67.176C213.397 67.2613 213.125 67.4027 212.917 67.6C212.714 67.7973 212.613 68.064 212.613 68.4C212.613 68.784 212.746 69.0853 213.013 69.304C213.28 69.5173 213.602 69.624 213.981 69.624ZM219.969 71V62.728H222.217V64.688C222.35 64.2667 222.537 63.8987 222.777 63.584C223.022 63.264 223.318 63.016 223.665 62.84C224.011 62.6587 224.403 62.568 224.841 62.568C224.915 62.568 224.985 62.5733 225.049 62.584C225.118 62.5893 225.169 62.6 225.201 62.616V64.84C225.153 64.8187 225.094 64.8053 225.025 64.8C224.961 64.7947 224.902 64.7893 224.849 64.784C224.39 64.7467 223.998 64.76 223.673 64.824C223.347 64.888 223.083 64.9973 222.881 65.152C222.678 65.3067 222.531 65.496 222.441 65.72C222.35 65.944 222.305 66.1947 222.305 66.472V71H219.969ZM229.966 62.568C230.659 62.568 231.257 62.7093 231.758 62.992C232.265 63.2747 232.662 63.656 232.95 64.136C233.243 64.616 233.411 65.152 233.454 65.744H231.51C231.473 65.5253 231.395 65.3093 231.278 65.096C231.161 64.8773 230.995 64.6987 230.782 64.56C230.569 64.416 230.302 64.344 229.982 64.344C229.438 64.344 228.995 64.5547 228.654 64.976C228.318 65.392 228.15 66.0267 228.15 66.88C228.15 67.6853 228.315 68.3253 228.646 68.8C228.977 69.2693 229.438 69.504 230.03 69.504C230.345 69.504 230.606 69.4267 230.814 69.272C231.027 69.1173 231.193 68.9333 231.31 68.72C231.427 68.5013 231.502 68.2987 231.534 68.112H233.43C233.393 68.6827 233.227 69.2 232.934 69.664C232.641 70.1227 232.241 70.488 231.734 70.76C231.233 71.0267 230.643 71.16 229.966 71.16C229.198 71.16 228.513 70.9893 227.91 70.648C227.307 70.3067 226.833 69.8187 226.486 69.184C226.145 68.544 225.974 67.7813 225.974 66.896C225.974 66.0427 226.139 65.2907 226.47 64.64C226.801 63.9893 227.265 63.4827 227.862 63.12C228.465 62.752 229.166 62.568 229.966 62.568ZM235.062 71V59.112H237.383V63.92C237.516 63.728 237.684 63.5387 237.887 63.352C238.089 63.16 238.343 63 238.647 62.872C238.951 62.744 239.321 62.68 239.759 62.68C240.287 62.68 240.767 62.784 241.199 62.992C241.636 63.1947 241.985 63.4907 242.247 63.88C242.513 64.2693 242.647 64.744 242.647 65.304V71H240.303V65.648C240.303 65.2747 240.167 64.9893 239.895 64.792C239.628 64.5893 239.303 64.488 238.919 64.488C238.668 64.488 238.425 64.5333 238.191 64.624C237.956 64.7147 237.764 64.8533 237.615 65.04C237.471 65.2213 237.399 65.448 237.399 65.72V71H235.062ZM252.931 64.352H251.091L251.107 68.76C251.107 68.9627 251.131 69.1147 251.179 69.216C251.232 69.312 251.312 69.376 251.419 69.408C251.531 69.4347 251.672 69.448 251.843 69.448H252.955V70.888C252.848 70.936 252.68 70.9813 252.451 71.024C252.227 71.0667 251.912 71.088 251.507 71.088C250.781 71.088 250.219 70.9947 249.819 70.808C249.424 70.6213 249.149 70.36 248.995 70.024C248.84 69.688 248.763 69.2987 248.763 68.856V64.352H247.419V62.728H248.843L249.427 60.232H251.091V62.72H252.931V64.352ZM257.943 71.16C257.132 71.16 256.425 70.9867 255.823 70.64C255.225 70.2933 254.761 69.8027 254.431 69.168C254.105 68.5333 253.943 67.7813 253.943 66.912C253.943 66.0427 254.105 65.2827 254.431 64.632C254.761 63.9813 255.225 63.4747 255.823 63.112C256.425 62.7493 257.135 62.568 257.951 62.568C258.767 62.568 259.473 62.7467 260.071 63.104C260.668 63.456 261.129 63.9573 261.455 64.608C261.78 65.2587 261.943 66.0267 261.943 66.912C261.943 67.744 261.783 68.48 261.463 69.12C261.148 69.7547 260.692 70.2533 260.095 70.616C259.503 70.9787 258.785 71.16 257.943 71.16ZM257.951 69.424C258.361 69.424 258.692 69.304 258.943 69.064C259.193 68.824 259.375 68.5093 259.487 68.12C259.604 67.7253 259.663 67.296 259.663 66.832C259.663 66.3947 259.609 65.9813 259.503 65.592C259.401 65.2027 259.225 64.888 258.975 64.648C258.724 64.408 258.383 64.288 257.951 64.288C257.54 64.288 257.207 64.4027 256.951 64.632C256.7 64.856 256.516 65.1627 256.399 65.552C256.281 65.936 256.223 66.3627 256.223 66.832C256.223 67.264 256.276 67.68 256.383 68.08C256.489 68.4747 256.668 68.7973 256.919 69.048C257.169 69.2987 257.513 69.424 257.951 69.424ZM271.845 62.728V64.352H270.101V71H267.765V64.352H266.237V62.728H267.765V61.536C267.765 60.8693 267.96 60.352 268.349 59.984C268.744 59.616 269.301 59.432 270.021 59.432H271.917L271.925 60.984H270.837C270.538 60.984 270.333 61.0587 270.221 61.208C270.114 61.352 270.061 61.592 270.061 61.928V62.728H271.845ZM275.565 62.728V71H273.333V62.728H275.565ZM275.589 59.44V61.544H273.317V59.44H275.589ZM277.734 71V62.728H280.03V63.896C280.158 63.6933 280.324 63.4987 280.526 63.312C280.734 63.12 280.996 62.9627 281.31 62.84C281.625 62.7173 281.998 62.656 282.43 62.656C282.937 62.656 283.409 62.7547 283.846 62.952C284.289 63.1493 284.646 63.4613 284.918 63.888C285.19 64.3093 285.326 64.8613 285.326 65.544V71H282.99V65.832C282.99 65.384 282.857 65.048 282.59 64.824C282.324 64.6 281.998 64.488 281.614 64.488C281.358 64.488 281.11 64.5333 280.87 64.624C280.636 64.7147 280.444 64.8507 280.294 65.032C280.145 65.2133 280.07 65.4373 280.07 65.704V71H277.734ZM290.291 71.16C289.181 71.16 288.317 70.7787 287.699 70.016C287.08 69.248 286.771 68.1813 286.771 66.816C286.771 65.952 286.896 65.2027 287.147 64.568C287.397 63.9333 287.768 63.4427 288.259 63.096C288.749 62.744 289.349 62.568 290.059 62.568C290.357 62.568 290.635 62.6027 290.891 62.672C291.152 62.736 291.389 62.8267 291.603 62.944C291.816 63.0613 292.003 63.1973 292.163 63.352C292.323 63.5067 292.453 63.672 292.555 63.848V59.112H294.899V71H293.203L292.939 69.304C292.864 69.5333 292.76 69.7573 292.627 69.976C292.493 70.1947 292.323 70.3947 292.115 70.576C291.907 70.752 291.651 70.8933 291.347 71C291.048 71.1067 290.696 71.16 290.291 71.16ZM290.803 69.48C291.389 69.48 291.827 69.2747 292.115 68.864C292.408 68.4533 292.555 67.76 292.555 66.784C292.549 66.2187 292.483 65.7493 292.355 65.376C292.227 65.0027 292.035 64.7253 291.779 64.544C291.528 64.3573 291.208 64.264 290.819 64.264C290.312 64.264 289.891 64.4587 289.555 64.848C289.219 65.232 289.051 65.8773 289.051 66.784C289.051 67.7067 289.208 68.3867 289.523 68.824C289.837 69.2613 290.264 69.48 290.803 69.48ZM301.538 73.64C300.973 73.64 300.573 73.592 300.338 73.496C300.109 73.4053 299.994 73.36 299.994 73.36V71.872L300.81 71.904C301.167 71.9253 301.455 71.9067 301.674 71.848C301.893 71.7947 302.058 71.7227 302.17 71.632C302.287 71.5413 302.37 71.4453 302.418 71.344C302.466 71.248 302.501 71.1707 302.522 71.112L302.674 70.656L299.458 62.728H301.77L303.754 68.12L305.762 62.728H308.042L304.69 71.048C304.402 71.752 304.098 72.2907 303.778 72.664C303.458 73.0373 303.111 73.2933 302.738 73.432C302.37 73.5707 301.97 73.64 301.538 73.64ZM312.443 71.16C311.632 71.16 310.925 70.9867 310.323 70.64C309.725 70.2933 309.261 69.8027 308.931 69.168C308.605 68.5333 308.443 67.7813 308.443 66.912C308.443 66.0427 308.605 65.2827 308.931 64.632C309.261 63.9813 309.725 63.4747 310.323 63.112C310.925 62.7493 311.635 62.568 312.451 62.568C313.267 62.568 313.973 62.7467 314.571 63.104C315.168 63.456 315.629 63.9573 315.955 64.608C316.28 65.2587 316.443 66.0267 316.443 66.912C316.443 67.744 316.283 68.48 315.963 69.12C315.648 69.7547 315.192 70.2533 314.595 70.616C314.003 70.9787 313.285 71.16 312.443 71.16ZM312.451 69.424C312.861 69.424 313.192 69.304 313.443 69.064C313.693 68.824 313.875 68.5093 313.987 68.12C314.104 67.7253 314.163 67.296 314.163 66.832C314.163 66.3947 314.109 65.9813 314.003 65.592C313.901 65.2027 313.725 64.888 313.475 64.648C313.224 64.408 312.883 64.288 312.451 64.288C312.04 64.288 311.707 64.4027 311.451 64.632C311.2 64.856 311.016 65.1627 310.899 65.552C310.781 65.936 310.723 66.3627 310.723 66.832C310.723 67.264 310.776 67.68 310.883 68.08C310.989 68.4747 311.168 68.7973 311.419 69.048C311.669 69.2987 312.013 69.424 312.451 69.424ZM320.939 71.16C320.555 71.16 320.176 71.1013 319.803 70.984C319.435 70.8667 319.099 70.6933 318.795 70.464C318.491 70.2347 318.245 69.952 318.059 69.616C317.877 69.28 317.787 68.8907 317.787 68.448V62.728H320.123V68.152C320.123 68.536 320.248 68.8507 320.499 69.096C320.749 69.3413 321.117 69.464 321.603 69.464C322.061 69.464 322.424 69.3467 322.691 69.112C322.963 68.872 323.099 68.5387 323.099 68.112V62.728H325.411V71H323.651L323.379 69.36C323.283 69.8453 323.101 70.2187 322.835 70.48C322.573 70.736 322.272 70.912 321.931 71.008C321.595 71.1093 321.264 71.16 320.939 71.16ZM327.359 71V62.728H329.607V64.688C329.741 64.2667 329.927 63.8987 330.167 63.584C330.413 63.264 330.709 63.016 331.055 62.84C331.402 62.6587 331.794 62.568 332.231 62.568C332.306 62.568 332.375 62.5733 332.439 62.584C332.509 62.5893 332.559 62.6 332.591 62.616V64.84C332.543 64.8187 332.485 64.8053 332.415 64.8C332.351 64.7947 332.293 64.7893 332.239 64.784C331.781 64.7467 331.389 64.76 331.063 64.824C330.738 64.888 330.474 64.9973 330.271 65.152C330.069 65.3067 329.922 65.496 329.831 65.72C329.741 65.944 329.695 66.1947 329.695 66.472V71H327.359ZM344.315 62.728L341.211 71H339.523L336.411 62.728H338.523L340.331 68H340.395L342.179 62.728H344.315ZM347.076 67.4C347.071 67.8213 347.138 68.1893 347.276 68.504C347.415 68.8133 347.615 69.0533 347.876 69.224C348.143 69.3893 348.463 69.472 348.836 69.472C349.236 69.472 349.586 69.3867 349.884 69.216C350.188 69.0453 350.399 68.7653 350.516 68.376H352.62C352.53 68.9627 352.295 69.464 351.916 69.88C351.543 70.296 351.09 70.6133 350.556 70.832C350.023 71.0507 349.468 71.16 348.892 71.16C348.076 71.16 347.356 70.9893 346.732 70.648C346.114 70.3013 345.631 69.8133 345.284 69.184C344.938 68.5547 344.764 67.8133 344.764 66.96C344.764 66.1333 344.922 65.3893 345.236 64.728C345.551 64.0613 346.007 63.536 346.604 63.152C347.207 62.7627 347.93 62.568 348.772 62.568C349.615 62.568 350.322 62.7467 350.892 63.104C351.468 63.456 351.9 63.9493 352.188 64.584C352.482 65.2133 352.628 65.9413 352.628 66.768V67.4H347.076ZM347.068 66.008H350.444C350.444 65.6773 350.383 65.3733 350.26 65.096C350.138 64.8187 349.951 64.6 349.7 64.44C349.455 64.28 349.146 64.2 348.772 64.2C348.41 64.2 348.1 64.288 347.844 64.464C347.594 64.6347 347.402 64.8587 347.268 65.136C347.135 65.4133 347.068 65.704 347.068 66.008ZM354.25 71V62.728H356.546V63.896C356.674 63.6933 356.839 63.4987 357.042 63.312C357.25 63.12 357.511 62.9627 357.826 62.84C358.141 62.7173 358.514 62.656 358.946 62.656C359.453 62.656 359.925 62.7547 360.362 62.952C360.805 63.1493 361.162 63.4613 361.434 63.888C361.706 64.3093 361.842 64.8613 361.842 65.544V71H359.506V65.832C359.506 65.384 359.373 65.048 359.106 64.824C358.839 64.6 358.514 64.488 358.13 64.488C357.874 64.488 357.626 64.5333 357.386 64.624C357.151 64.7147 356.959 64.8507 356.81 65.032C356.661 65.2133 356.586 65.4373 356.586 65.704V71H354.25ZM366.806 71.16C365.697 71.16 364.833 70.7787 364.214 70.016C363.596 69.248 363.286 68.1813 363.286 66.816C363.286 65.952 363.412 65.2027 363.662 64.568C363.913 63.9333 364.284 63.4427 364.774 63.096C365.265 62.744 365.865 62.568 366.574 62.568C366.873 62.568 367.15 62.6027 367.406 62.672C367.668 62.736 367.905 62.8267 368.118 62.944C368.332 63.0613 368.518 63.1973 368.678 63.352C368.838 63.5067 368.969 63.672 369.07 63.848V59.112H371.414V71H369.718L369.454 69.304C369.38 69.5333 369.276 69.7573 369.142 69.976C369.009 70.1947 368.838 70.3947 368.63 70.576C368.422 70.752 368.166 70.8933 367.862 71C367.564 71.1067 367.212 71.16 366.806 71.16ZM367.318 69.48C367.905 69.48 368.342 69.2747 368.63 68.864C368.924 68.4533 369.07 67.76 369.07 66.784C369.065 66.2187 368.998 65.7493 368.87 65.376C368.742 65.0027 368.55 64.7253 368.294 64.544C368.044 64.3573 367.724 64.264 367.334 64.264C366.828 64.264 366.406 64.4587 366.07 64.848C365.734 65.232 365.566 65.8773 365.566 66.784C365.566 67.7067 365.724 68.3867 366.038 68.824C366.353 69.2613 366.78 69.48 367.318 69.48ZM376.974 71.16C376.163 71.16 375.457 70.9867 374.854 70.64C374.257 70.2933 373.793 69.8027 373.462 69.168C373.137 68.5333 372.974 67.7813 372.974 66.912C372.974 66.0427 373.137 65.2827 373.462 64.632C373.793 63.9813 374.257 63.4747 374.854 63.112C375.457 62.7493 376.166 62.568 376.982 62.568C377.798 62.568 378.505 62.7467 379.102 63.104C379.699 63.456 380.161 63.9573 380.486 64.608C380.811 65.2587 380.974 66.0267 380.974 66.912C380.974 67.744 380.814 68.48 380.494 69.12C380.179 69.7547 379.723 70.2533 379.126 70.616C378.534 70.9787 377.817 71.16 376.974 71.16ZM376.982 69.424C377.393 69.424 377.723 69.304 377.974 69.064C378.225 68.824 378.406 68.5093 378.518 68.12C378.635 67.7253 378.694 67.296 378.694 66.832C378.694 66.3947 378.641 65.9813 378.534 65.592C378.433 65.2027 378.257 64.888 378.006 64.648C377.755 64.408 377.414 64.288 376.982 64.288C376.571 64.288 376.238 64.4027 375.982 64.632C375.731 64.856 375.547 65.1627 375.43 65.552C375.313 65.936 375.254 66.3627 375.254 66.832C375.254 67.264 375.307 67.68 375.414 68.08C375.521 68.4747 375.699 68.7973 375.95 69.048C376.201 69.2987 376.545 69.424 376.982 69.424ZM382.531 71V62.728H384.779V64.688C384.913 64.2667 385.099 63.8987 385.339 63.584C385.585 63.264 385.881 63.016 386.227 62.84C386.574 62.6587 386.966 62.568 387.403 62.568C387.478 62.568 387.547 62.5733 387.611 62.584C387.681 62.5893 387.731 62.6 387.763 62.616V64.84C387.715 64.8187 387.657 64.8053 387.587 64.8C387.523 64.7947 387.465 64.7893 387.411 64.784C386.953 64.7467 386.561 64.76 386.235 64.824C385.91 64.888 385.646 64.9973 385.443 65.152C385.241 65.3067 385.094 65.496 385.003 65.72C384.913 65.944 384.867 66.1947 384.867 66.472V71H382.531Z" fill="#566580"/>
<rect x="48" y="99" width="372" height="60" fill="white"/>
<path fill-rule="evenodd" clip-rule="evenodd" d="M80.0013 116.666C72.6413 116.666 66.668 122.639 66.668 129.999C66.668 137.359 72.6413 143.333 80.0013 143.333C87.3613 143.333 93.3346 137.359 93.3346 129.999C93.3346 122.639 87.3613 116.666 80.0013 116.666ZM77.3346 136.666L70.668 129.999L72.548 128.119L77.3346 132.893L87.4546 122.773L89.3346 124.666L77.3346 136.666Z" fill="#4D8055"/>
<path d="M109.528 124.432H111.008V136H109.528V124.432ZM113.755 136V127.728H115.187V128.928C115.321 128.699 115.505 128.483 115.739 128.28C115.979 128.077 116.267 127.915 116.603 127.792C116.945 127.669 117.337 127.608 117.779 127.608C118.302 127.608 118.782 127.712 119.219 127.92C119.662 128.128 120.014 128.453 120.275 128.896C120.542 129.333 120.675 129.899 120.675 130.592V136H119.195V130.736C119.195 130.091 119.025 129.613 118.683 129.304C118.347 128.989 117.91 128.832 117.371 128.832C116.998 128.832 116.649 128.893 116.323 129.016C115.998 129.133 115.734 129.315 115.531 129.56C115.329 129.8 115.227 130.104 115.227 130.472V136H113.755ZM129.77 127.568C130.362 127.568 130.895 127.683 131.37 127.912C131.845 128.136 132.231 128.456 132.53 128.872C132.834 129.288 133.023 129.779 133.098 130.344H131.786C131.738 130.056 131.626 129.792 131.45 129.552C131.279 129.312 131.053 129.12 130.77 128.976C130.487 128.832 130.157 128.76 129.778 128.76C129.069 128.76 128.493 129.016 128.05 129.528C127.607 130.04 127.386 130.824 127.386 131.88C127.386 132.835 127.589 133.6 127.994 134.176C128.405 134.747 129.007 135.032 129.802 135.032C130.181 135.032 130.509 134.96 130.786 134.816C131.069 134.667 131.295 134.472 131.466 134.232C131.637 133.987 131.746 133.725 131.794 133.448H133.082C133.013 134.003 132.826 134.483 132.522 134.888C132.218 135.293 131.829 135.608 131.354 135.832C130.885 136.051 130.357 136.16 129.77 136.16C129.029 136.16 128.37 135.997 127.794 135.672C127.223 135.347 126.775 134.867 126.45 134.232C126.125 133.597 125.962 132.819 125.962 131.896C125.962 131.032 126.109 130.277 126.402 129.632C126.701 128.981 127.133 128.475 127.698 128.112C128.269 127.749 128.959 127.568 129.77 127.568ZM138.387 136.16C137.624 136.16 136.958 135.997 136.387 135.672C135.816 135.341 135.374 134.859 135.059 134.224C134.744 133.589 134.587 132.813 134.587 131.896C134.587 131.032 134.734 130.275 135.027 129.624C135.32 128.973 135.75 128.469 136.315 128.112C136.886 127.749 137.576 127.568 138.387 127.568C139.15 127.568 139.811 127.736 140.371 128.072C140.936 128.403 141.374 128.891 141.683 129.536C141.992 130.181 142.147 130.968 142.147 131.896C142.147 132.739 142.003 133.48 141.715 134.12C141.432 134.76 141.011 135.261 140.451 135.624C139.896 135.981 139.208 136.16 138.387 136.16ZM138.387 134.992C138.883 134.992 139.302 134.867 139.643 134.616C139.984 134.365 140.243 134.005 140.419 133.536C140.595 133.067 140.683 132.509 140.683 131.864C140.683 131.272 140.606 130.741 140.451 130.272C140.296 129.797 140.048 129.421 139.707 129.144C139.371 128.867 138.931 128.728 138.387 128.728C137.886 128.728 137.462 128.853 137.115 129.104C136.768 129.349 136.504 129.707 136.323 130.176C136.147 130.645 136.059 131.208 136.059 131.864C136.059 132.445 136.139 132.973 136.299 133.448C136.459 133.923 136.71 134.299 137.051 134.576C137.392 134.853 137.838 134.992 138.387 134.992ZM144.083 136V127.728H145.507V128.928C145.737 128.565 146.051 128.248 146.451 127.976C146.851 127.704 147.371 127.568 148.011 127.568C148.31 127.568 148.614 127.619 148.923 127.72C149.238 127.821 149.526 127.973 149.787 128.176C150.049 128.379 150.251 128.627 150.395 128.92C150.651 128.515 150.998 128.189 151.435 127.944C151.873 127.693 152.366 127.568 152.915 127.568C153.203 127.568 153.505 127.613 153.819 127.704C154.134 127.789 154.425 127.944 154.691 128.168C154.963 128.387 155.185 128.693 155.355 129.088C155.526 129.477 155.611 129.979 155.611 130.592V136H154.123V130.736C154.123 130.235 154.043 129.848 153.883 129.576C153.723 129.299 153.513 129.104 153.251 128.992C152.995 128.88 152.721 128.824 152.427 128.824C152.171 128.824 151.899 128.875 151.611 128.976C151.323 129.077 151.078 129.248 150.875 129.488C150.673 129.728 150.571 130.056 150.571 130.472V136H149.099V130.304C149.099 129.979 149.011 129.707 148.835 129.488C148.665 129.269 148.449 129.104 148.187 128.992C147.931 128.88 147.675 128.824 147.419 128.824C147.137 128.824 146.851 128.88 146.563 128.992C146.281 129.104 146.041 129.283 145.843 129.528C145.651 129.768 145.555 130.083 145.555 130.472V136H144.083ZM157.927 138.576V127.728H159.399L159.415 129.168C159.511 128.997 159.634 128.819 159.783 128.632C159.938 128.445 160.124 128.272 160.343 128.112C160.567 127.952 160.826 127.821 161.119 127.72C161.418 127.619 161.756 127.568 162.135 127.568C162.796 127.568 163.378 127.72 163.879 128.024C164.386 128.323 164.78 128.781 165.063 129.4C165.346 130.019 165.487 130.803 165.487 131.752C165.487 132.701 165.348 133.504 165.071 134.16C164.799 134.811 164.404 135.307 163.887 135.648C163.37 135.989 162.746 136.16 162.015 136.16C161.647 136.16 161.319 136.107 161.031 136C160.748 135.899 160.5 135.765 160.287 135.6C160.079 135.429 159.903 135.248 159.759 135.056C159.62 134.864 159.506 134.68 159.415 134.504V138.576H157.927ZM161.735 135.008C162.418 135.008 162.975 134.749 163.407 134.232C163.839 133.709 164.055 132.899 164.055 131.8C164.055 130.856 163.858 130.107 163.463 129.552C163.068 128.997 162.492 128.72 161.735 128.72C160.967 128.72 160.386 129.005 159.991 129.576C159.596 130.141 159.399 130.883 159.399 131.8C159.399 132.392 159.487 132.931 159.663 133.416C159.839 133.901 160.1 134.288 160.447 134.576C160.794 134.864 161.223 135.008 161.735 135.008ZM169.515 136.104C169.067 136.104 168.704 136.043 168.427 135.92C168.155 135.797 167.944 135.632 167.795 135.424C167.651 135.216 167.552 134.979 167.499 134.712C167.451 134.44 167.427 134.16 167.427 133.872V124.112H168.883V133.728C168.883 134.144 168.963 134.456 169.123 134.664C169.288 134.872 169.518 134.987 169.811 135.008L170.259 135.016V135.976C170.136 136.013 170.008 136.043 169.875 136.064C169.742 136.091 169.622 136.104 169.515 136.104ZM173.762 127.728V136H172.33V127.728H173.762ZM173.794 124.44V125.976H172.282V124.44H173.794ZM178.653 136.16C178.119 136.16 177.647 136.067 177.237 135.88C176.826 135.688 176.503 135.413 176.269 135.056C176.039 134.699 175.925 134.267 175.925 133.76C175.925 132.843 176.245 132.16 176.885 131.712C177.525 131.264 178.551 131.024 179.965 130.992L181.445 130.952V130.304C181.445 129.797 181.293 129.397 180.989 129.104C180.685 128.805 180.213 128.656 179.573 128.656C179.098 128.661 178.679 128.773 178.317 128.992C177.959 129.211 177.727 129.568 177.621 130.064H176.317C176.349 129.525 176.501 129.072 176.773 128.704C177.045 128.331 177.423 128.048 177.909 127.856C178.399 127.664 178.978 127.568 179.645 127.568C180.365 127.568 180.962 127.669 181.437 127.872C181.917 128.075 182.274 128.373 182.509 128.768C182.749 129.163 182.869 129.648 182.869 130.224V136H181.605L181.501 134.448C181.181 135.093 180.773 135.541 180.277 135.792C179.786 136.037 179.245 136.16 178.653 136.16ZM179.101 135.096C179.378 135.096 179.653 135.045 179.925 134.944C180.202 134.843 180.455 134.707 180.685 134.536C180.914 134.36 181.095 134.165 181.229 133.952C181.367 133.733 181.439 133.509 181.445 133.28V131.864L180.213 131.888C179.583 131.899 179.055 131.963 178.629 132.08C178.207 132.197 177.89 132.381 177.677 132.632C177.469 132.883 177.365 133.211 177.365 133.616C177.365 134.08 177.525 134.443 177.845 134.704C178.17 134.965 178.589 135.096 179.101 135.096ZM185.396 136V127.728H186.828V128.928C186.961 128.699 187.145 128.483 187.38 128.28C187.62 128.077 187.908 127.915 188.244 127.792C188.585 127.669 188.977 127.608 189.42 127.608C189.943 127.608 190.423 127.712 190.86 127.92C191.303 128.128 191.655 128.453 191.916 128.896C192.183 129.333 192.316 129.899 192.316 130.592V136H190.836V130.736C190.836 130.091 190.665 129.613 190.324 129.304C189.988 128.989 189.551 128.832 189.012 128.832C188.639 128.832 188.289 128.893 187.964 129.016C187.639 129.133 187.375 129.315 187.172 129.56C186.969 129.8 186.868 130.104 186.868 130.472V136H185.396ZM197.926 127.568C198.518 127.568 199.052 127.683 199.526 127.912C200.001 128.136 200.388 128.456 200.686 128.872C200.99 129.288 201.18 129.779 201.254 130.344H199.942C199.894 130.056 199.782 129.792 199.606 129.552C199.436 129.312 199.209 129.12 198.926 128.976C198.644 128.832 198.313 128.76 197.934 128.76C197.225 128.76 196.649 129.016 196.206 129.528C195.764 130.04 195.542 130.824 195.542 131.88C195.542 132.835 195.745 133.6 196.15 134.176C196.561 134.747 197.164 135.032 197.958 135.032C198.337 135.032 198.665 134.96 198.942 134.816C199.225 134.667 199.452 134.472 199.622 134.232C199.793 133.987 199.902 133.725 199.95 133.448H201.238C201.169 134.003 200.982 134.483 200.678 134.888C200.374 135.293 199.985 135.608 199.51 135.832C199.041 136.051 198.513 136.16 197.926 136.16C197.185 136.16 196.526 135.997 195.95 135.672C195.38 135.347 194.932 134.867 194.606 134.232C194.281 133.597 194.118 132.819 194.118 131.896C194.118 131.032 194.265 130.277 194.558 129.632C194.857 128.981 195.289 128.475 195.854 128.112C196.425 127.749 197.116 127.568 197.926 127.568ZM204.311 132.208C204.311 132.731 204.397 133.205 204.567 133.632C204.743 134.053 205.007 134.389 205.359 134.64C205.717 134.891 206.162 135.016 206.695 135.016C207.223 135.016 207.677 134.893 208.055 134.648C208.439 134.403 208.685 134.048 208.791 133.584H210.191C210.09 134.144 209.866 134.616 209.519 135C209.173 135.384 208.754 135.675 208.263 135.872C207.773 136.064 207.261 136.16 206.727 136.16C205.954 136.16 205.274 135.992 204.687 135.656C204.101 135.32 203.642 134.837 203.311 134.208C202.981 133.579 202.815 132.824 202.815 131.944C202.815 131.075 202.965 130.312 203.263 129.656C203.562 129 203.994 128.488 204.559 128.12C205.13 127.752 205.815 127.568 206.615 127.568C207.394 127.568 208.053 127.736 208.591 128.072C209.13 128.408 209.538 128.883 209.815 129.496C210.098 130.104 210.239 130.827 210.239 131.664V132.208H204.311ZM204.319 131.208H208.815C208.815 130.733 208.735 130.307 208.575 129.928C208.415 129.544 208.17 129.243 207.839 129.024C207.514 128.8 207.103 128.688 206.607 128.688C206.09 128.688 205.661 128.813 205.319 129.064C204.983 129.309 204.73 129.627 204.559 130.016C204.394 130.4 204.314 130.797 204.319 131.208ZM226.62 127.728L224.116 136H222.66L220.772 129.896L218.98 136H217.532L214.98 127.728H216.348L218.244 134.088H218.372L220.236 127.728H221.356L223.292 134.072H223.42L225.236 127.728H226.62ZM229.902 127.728V136H228.47V127.728H229.902ZM229.934 124.44V125.976H228.422V124.44H229.934ZM236.817 128.808H234.953V133.952C234.953 134.245 234.983 134.461 235.041 134.6C235.105 134.733 235.209 134.819 235.353 134.856C235.503 134.893 235.705 134.912 235.961 134.912H236.865V135.904C236.764 135.941 236.609 135.973 236.401 136C236.199 136.027 235.945 136.04 235.641 136.04C235.071 136.04 234.628 135.963 234.313 135.808C233.999 135.653 233.777 135.424 233.649 135.12C233.527 134.816 233.465 134.443 233.465 134V128.808H232.121V127.728H233.505L233.865 125.32H234.953V127.72H236.817V128.808ZM238.943 136V124.112H240.383V128.944C240.521 128.715 240.708 128.501 240.943 128.304C241.177 128.101 241.463 127.939 241.799 127.816C242.135 127.688 242.524 127.624 242.967 127.624C243.505 127.624 243.993 127.725 244.431 127.928C244.868 128.125 245.215 128.408 245.471 128.776C245.727 129.144 245.855 129.581 245.855 130.088V136H244.375V130.384C244.375 129.888 244.204 129.507 243.863 129.24C243.527 128.968 243.087 128.832 242.543 128.832C242.175 128.832 241.828 128.893 241.503 129.016C241.177 129.133 240.913 129.315 240.711 129.56C240.513 129.8 240.415 130.107 240.415 130.48V136H238.943ZM256.081 136.16C255.537 136.16 255.009 136.093 254.497 135.96C253.985 135.821 253.521 135.616 253.105 135.344C252.689 135.072 252.342 134.736 252.065 134.336C251.793 133.931 251.622 133.461 251.553 132.928H253.105C253.201 133.365 253.39 133.733 253.673 134.032C253.961 134.331 254.31 134.555 254.721 134.704C255.137 134.853 255.588 134.928 256.073 134.928C256.617 134.928 257.102 134.853 257.529 134.704C257.961 134.549 258.3 134.331 258.545 134.048C258.796 133.765 258.921 133.427 258.921 133.032C258.921 132.685 258.841 132.384 258.681 132.128C258.526 131.872 258.3 131.659 258.001 131.488C257.702 131.317 257.34 131.184 256.913 131.088L254.641 130.56C253.788 130.373 253.118 130.04 252.633 129.56C252.153 129.08 251.908 128.445 251.897 127.656C251.897 126.989 252.073 126.403 252.425 125.896C252.782 125.389 253.27 124.995 253.889 124.712C254.513 124.429 255.225 124.288 256.025 124.288C256.948 124.288 257.724 124.445 258.353 124.76C258.982 125.075 259.457 125.488 259.777 126C260.097 126.512 260.26 127.059 260.265 127.64H258.737C258.689 127.117 258.534 126.704 258.273 126.4C258.017 126.091 257.694 125.872 257.305 125.744C256.916 125.611 256.492 125.544 256.033 125.544C255.702 125.544 255.382 125.587 255.073 125.672C254.769 125.752 254.494 125.875 254.249 126.04C254.009 126.205 253.817 126.411 253.673 126.656C253.529 126.901 253.457 127.187 253.457 127.512C253.457 127.928 253.598 128.267 253.881 128.528C254.169 128.789 254.689 129.013 255.441 129.2L257.641 129.728C258.217 129.851 258.686 130.032 259.049 130.272C259.417 130.512 259.7 130.784 259.897 131.088C260.1 131.392 260.238 131.709 260.313 132.04C260.393 132.371 260.433 132.696 260.433 133.016C260.433 133.597 260.26 134.128 259.913 134.608C259.566 135.083 259.068 135.461 258.417 135.744C257.772 136.021 256.993 136.16 256.081 136.16ZM263.686 132.208C263.686 132.731 263.772 133.205 263.942 133.632C264.118 134.053 264.382 134.389 264.734 134.64C265.092 134.891 265.537 135.016 266.07 135.016C266.598 135.016 267.052 134.893 267.43 134.648C267.814 134.403 268.06 134.048 268.166 133.584H269.566C269.465 134.144 269.241 134.616 268.894 135C268.548 135.384 268.129 135.675 267.638 135.872C267.148 136.064 266.636 136.16 266.102 136.16C265.329 136.16 264.649 135.992 264.062 135.656C263.476 135.32 263.017 134.837 262.686 134.208C262.356 133.579 262.19 132.824 262.19 131.944C262.19 131.075 262.34 130.312 262.638 129.656C262.937 129 263.369 128.488 263.934 128.12C264.505 127.752 265.19 127.568 265.99 127.568C266.769 127.568 267.428 127.736 267.966 128.072C268.505 128.408 268.913 128.883 269.19 129.496C269.473 130.104 269.614 130.827 269.614 131.664V132.208H263.686ZM263.694 131.208H268.19C268.19 130.733 268.11 130.307 267.95 129.928C267.79 129.544 267.545 129.243 267.214 129.024C266.889 128.8 266.478 128.688 265.982 128.688C265.465 128.688 265.036 128.813 264.694 129.064C264.358 129.309 264.105 129.627 263.934 130.016C263.769 130.4 263.689 130.797 263.694 131.208ZM274.942 127.568C275.534 127.568 276.067 127.683 276.542 127.912C277.017 128.136 277.403 128.456 277.702 128.872C278.006 129.288 278.195 129.779 278.27 130.344H276.958C276.91 130.056 276.798 129.792 276.622 129.552C276.451 129.312 276.225 129.12 275.942 128.976C275.659 128.832 275.329 128.76 274.95 128.76C274.241 128.76 273.665 129.016 273.222 129.528C272.779 130.04 272.558 130.824 272.558 131.88C272.558 132.835 272.761 133.6 273.166 134.176C273.577 134.747 274.179 135.032 274.974 135.032C275.353 135.032 275.681 134.96 275.958 134.816C276.241 134.667 276.467 134.472 276.638 134.232C276.809 133.987 276.918 133.725 276.966 133.448H278.254C278.185 134.003 277.998 134.483 277.694 134.888C277.39 135.293 277.001 135.608 276.526 135.832C276.057 136.051 275.529 136.16 274.942 136.16C274.201 136.16 273.542 135.997 272.966 135.672C272.395 135.347 271.947 134.867 271.622 134.232C271.297 133.597 271.134 132.819 271.134 131.896C271.134 131.032 271.281 130.277 271.574 129.632C271.873 128.981 272.305 128.475 272.87 128.112C273.441 127.749 274.131 127.568 274.942 127.568ZM284.208 128.808H282.344V133.952C282.344 134.245 282.373 134.461 282.432 134.6C282.496 134.733 282.6 134.819 282.744 134.856C282.893 134.893 283.096 134.912 283.352 134.912H284.256V135.904C284.155 135.941 284 135.973 283.792 136C283.589 136.027 283.336 136.04 283.032 136.04C282.461 136.04 282.019 135.963 281.704 135.808C281.389 135.653 281.168 135.424 281.04 135.12C280.917 134.816 280.856 134.443 280.856 134V128.808H279.512V127.728H280.896L281.256 125.32H282.344V127.72H284.208V128.808ZM287.933 127.728V136H286.501V127.728H287.933ZM287.965 124.44V125.976H286.453V124.44H287.965ZM293.825 136.16C293.062 136.16 292.395 135.997 291.825 135.672C291.254 135.341 290.811 134.859 290.497 134.224C290.182 133.589 290.025 132.813 290.025 131.896C290.025 131.032 290.171 130.275 290.465 129.624C290.758 128.973 291.187 128.469 291.753 128.112C292.323 127.749 293.014 127.568 293.825 127.568C294.587 127.568 295.249 127.736 295.809 128.072C296.374 128.403 296.811 128.891 297.121 129.536C297.43 130.181 297.585 130.968 297.585 131.896C297.585 132.739 297.441 133.48 297.153 134.12C296.87 134.76 296.449 135.261 295.889 135.624C295.334 135.981 294.646 136.16 293.825 136.16ZM293.825 134.992C294.321 134.992 294.739 134.867 295.081 134.616C295.422 134.365 295.681 134.005 295.857 133.536C296.033 133.067 296.121 132.509 296.121 131.864C296.121 131.272 296.043 130.741 295.889 130.272C295.734 129.797 295.486 129.421 295.145 129.144C294.809 128.867 294.369 128.728 293.825 128.728C293.323 128.728 292.899 128.853 292.553 129.104C292.206 129.349 291.942 129.707 291.761 130.176C291.585 130.645 291.497 131.208 291.497 131.864C291.497 132.445 291.577 132.973 291.737 133.448C291.897 133.923 292.147 134.299 292.489 134.576C292.83 134.853 293.275 134.992 293.825 134.992ZM299.521 136V127.728H300.953V128.928C301.086 128.699 301.27 128.483 301.505 128.28C301.745 128.077 302.033 127.915 302.369 127.792C302.71 127.669 303.102 127.608 303.545 127.608C304.068 127.608 304.548 127.712 304.985 127.92C305.428 128.128 305.78 128.453 306.041 128.896C306.308 129.333 306.441 129.899 306.441 130.592V136H304.961V130.736C304.961 130.091 304.79 129.613 304.449 129.304C304.113 128.989 303.676 128.832 303.137 128.832C302.764 128.832 302.414 128.893 302.089 129.016C301.764 129.133 301.5 129.315 301.297 129.56C301.094 129.8 300.993 130.104 300.993 130.472V136H299.521ZM316.395 124.272C317.136 124.272 317.8 124.395 318.387 124.64C318.973 124.885 319.437 125.243 319.779 125.712C320.12 126.181 320.291 126.752 320.291 127.424C320.291 128.053 320.12 128.581 319.779 129.008C319.443 129.435 319.008 129.76 318.475 129.984C318.864 130.059 319.235 130.24 319.587 130.528C319.944 130.816 320.237 131.165 320.467 131.576C320.696 131.987 320.811 132.416 320.811 132.864C320.811 133.531 320.627 134.112 320.259 134.608C319.896 135.104 319.384 135.491 318.723 135.768C318.061 136.04 317.285 136.176 316.395 136.176C315.509 136.176 314.736 136.04 314.075 135.768C313.413 135.491 312.899 135.104 312.531 134.608C312.168 134.112 311.987 133.531 311.987 132.864C311.987 132.416 312.099 131.987 312.323 131.576C312.552 131.165 312.845 130.816 313.203 130.528C313.56 130.24 313.933 130.059 314.323 129.984C313.795 129.76 313.357 129.435 313.011 129.008C312.669 128.581 312.499 128.053 312.499 127.424C312.499 126.752 312.669 126.181 313.011 125.712C313.352 125.243 313.816 124.885 314.403 124.64C314.995 124.395 315.659 124.272 316.395 124.272ZM316.395 129.36C317.099 129.36 317.669 129.187 318.107 128.84C318.549 128.493 318.771 128.011 318.771 127.392C318.771 126.768 318.549 126.277 318.107 125.92C317.664 125.557 317.093 125.376 316.395 125.376C315.696 125.376 315.125 125.557 314.683 125.92C314.24 126.283 314.019 126.773 314.019 127.392C314.019 128.011 314.24 128.493 314.683 128.84C315.125 129.187 315.696 129.36 316.395 129.36ZM316.395 134.976C317.253 134.976 317.939 134.784 318.451 134.4C318.963 134.011 319.219 133.496 319.219 132.856C319.219 132.435 319.101 132.059 318.867 131.728C318.637 131.397 318.312 131.139 317.891 130.952C317.469 130.76 316.971 130.664 316.395 130.664C315.824 130.664 315.328 130.76 314.907 130.952C314.491 131.139 314.165 131.397 313.931 131.728C313.701 132.059 313.587 132.435 313.587 132.856C313.587 133.496 313.84 134.011 314.347 134.4C314.859 134.784 315.541 134.976 316.395 134.976ZM326.645 124.272C327.386 124.272 328.05 124.395 328.637 124.64C329.223 124.885 329.687 125.243 330.029 125.712C330.37 126.181 330.541 126.752 330.541 127.424C330.541 128.053 330.37 128.581 330.029 129.008C329.693 129.435 329.258 129.76 328.725 129.984C329.114 130.059 329.485 130.24 329.837 130.528C330.194 130.816 330.487 131.165 330.717 131.576C330.946 131.987 331.061 132.416 331.061 132.864C331.061 133.531 330.877 134.112 330.509 134.608C330.146 135.104 329.634 135.491 328.973 135.768C328.311 136.04 327.535 136.176 326.645 136.176C325.759 136.176 324.986 136.04 324.325 135.768C323.663 135.491 323.149 135.104 322.781 134.608C322.418 134.112 322.237 133.531 322.237 132.864C322.237 132.416 322.349 131.987 322.573 131.576C322.802 131.165 323.095 130.816 323.453 130.528C323.81 130.24 324.183 130.059 324.573 129.984C324.045 129.76 323.607 129.435 323.261 129.008C322.919 128.581 322.749 128.053 322.749 127.424C322.749 126.752 322.919 126.181 323.261 125.712C323.602 125.243 324.066 124.885 324.653 124.64C325.245 124.395 325.909 124.272 326.645 124.272ZM326.645 129.36C327.349 129.36 327.919 129.187 328.357 128.84C328.799 128.493 329.021 128.011 329.021 127.392C329.021 126.768 328.799 126.277 328.357 125.92C327.914 125.557 327.343 125.376 326.645 125.376C325.946 125.376 325.375 125.557 324.933 125.92C324.49 126.283 324.269 126.773 324.269 127.392C324.269 128.011 324.49 128.493 324.933 128.84C325.375 129.187 325.946 129.36 326.645 129.36ZM326.645 134.976C327.503 134.976 328.189 134.784 328.701 134.4C329.213 134.011 329.469 133.496 329.469 132.856C329.469 132.435 329.351 132.059 329.117 131.728C328.887 131.397 328.562 131.139 328.141 130.952C327.719 130.76 327.221 130.664 326.645 130.664C326.074 130.664 325.578 130.76 325.157 130.952C324.741 131.139 324.415 131.397 324.181 131.728C323.951 132.059 323.837 132.435 323.837 132.856C323.837 133.496 324.09 134.011 324.597 134.4C325.109 134.784 325.791 134.976 326.645 134.976ZM336.367 136.176C335.727 136.176 335.129 136.056 334.575 135.816C334.025 135.571 333.564 135.224 333.191 134.776C332.823 134.328 332.596 133.792 332.511 133.168H333.951C334.084 133.696 334.361 134.125 334.783 134.456C335.204 134.781 335.716 134.944 336.319 134.944C337.001 134.944 337.585 134.765 338.071 134.408C338.561 134.051 338.927 133.499 339.167 132.752C339.407 132.005 339.497 131.048 339.439 129.88C339.305 130.285 339.095 130.643 338.807 130.952C338.519 131.256 338.172 131.496 337.767 131.672C337.361 131.848 336.913 131.936 336.423 131.936C335.66 131.936 334.988 131.787 334.407 131.488C333.825 131.189 333.372 130.763 333.047 130.208C332.727 129.653 332.567 128.989 332.567 128.216C332.567 127.443 332.727 126.76 333.047 126.168C333.367 125.576 333.825 125.112 334.423 124.776C335.02 124.44 335.729 124.272 336.551 124.272C337.447 124.272 338.223 124.504 338.879 124.968C339.535 125.427 340.041 126.088 340.399 126.952C340.756 127.811 340.935 128.843 340.935 130.048C340.935 131.344 340.756 132.448 340.399 133.36C340.047 134.272 339.529 134.971 338.847 135.456C338.169 135.936 337.343 136.176 336.367 136.176ZM336.583 130.68C337.009 130.68 337.415 130.581 337.799 130.384C338.183 130.187 338.495 129.925 338.735 129.6C338.98 129.269 339.103 128.909 339.103 128.52C339.108 127.923 339.007 127.397 338.799 126.944C338.591 126.485 338.295 126.128 337.911 125.872C337.527 125.611 337.079 125.48 336.567 125.48C336.097 125.48 335.681 125.592 335.319 125.816C334.961 126.04 334.679 126.352 334.471 126.752C334.268 127.152 334.167 127.616 334.167 128.144C334.167 128.917 334.372 129.533 334.783 129.992C335.193 130.451 335.793 130.68 336.583 130.68Z" fill="#1A1F28"/>
<rect x="48" y="163" width="372" height="60" fill="white"/>
<path fill-rule="evenodd" clip-rule="evenodd" d="M65.332 204.999H94.6654L79.9987 179.666L65.332 204.999ZM81.332 200.999H78.6654V198.333H81.332V200.999ZM81.332 195.666H78.6654V190.333H81.332V195.666Z" fill="#B51D09"/>
<path d="M117.056 187.432H118.536V199H117.216L111.008 189.88V199H109.528V187.432H110.944L117.056 196.424V187.432ZM124.465 199.16C123.702 199.16 123.036 198.997 122.465 198.672C121.894 198.341 121.452 197.859 121.137 197.224C120.822 196.589 120.665 195.813 120.665 194.896C120.665 194.032 120.812 193.275 121.105 192.624C121.398 191.973 121.828 191.469 122.393 191.112C122.964 190.749 123.654 190.568 124.465 190.568C125.228 190.568 125.889 190.736 126.449 191.072C127.014 191.403 127.452 191.891 127.761 192.536C128.07 193.181 128.225 193.968 128.225 194.896C128.225 195.739 128.081 196.48 127.793 197.12C127.51 197.76 127.089 198.261 126.529 198.624C125.974 198.981 125.286 199.16 124.465 199.16ZM124.465 197.992C124.961 197.992 125.38 197.867 125.721 197.616C126.062 197.365 126.321 197.005 126.497 196.536C126.673 196.067 126.761 195.509 126.761 194.864C126.761 194.272 126.684 193.741 126.529 193.272C126.374 192.797 126.126 192.421 125.785 192.144C125.449 191.867 125.009 191.728 124.465 191.728C123.964 191.728 123.54 191.853 123.193 192.104C122.846 192.349 122.582 192.707 122.401 193.176C122.225 193.645 122.137 194.208 122.137 194.864C122.137 195.445 122.217 195.973 122.377 196.448C122.537 196.923 122.788 197.299 123.129 197.576C123.47 197.853 123.916 197.992 124.465 197.992ZM134.099 191.808H132.235V196.952C132.235 197.245 132.264 197.461 132.323 197.6C132.387 197.733 132.491 197.819 132.635 197.856C132.784 197.893 132.987 197.912 133.243 197.912H134.147V198.904C134.045 198.941 133.891 198.973 133.683 199C133.48 199.027 133.227 199.04 132.923 199.04C132.352 199.04 131.909 198.963 131.595 198.808C131.28 198.653 131.059 198.424 130.931 198.12C130.808 197.816 130.747 197.443 130.747 197V191.808H129.403V190.728H130.787L131.147 188.32H132.235V190.72H134.099V191.808ZM141.512 190.728V199H140.08V190.728H141.512ZM141.544 187.44V188.976H140.032V187.44H141.544ZM144.224 199V190.728H145.656V191.928C145.789 191.699 145.973 191.483 146.208 191.28C146.448 191.077 146.736 190.915 147.072 190.792C147.413 190.669 147.805 190.608 148.248 190.608C148.771 190.608 149.251 190.712 149.688 190.92C150.131 191.128 150.483 191.453 150.744 191.896C151.011 192.333 151.144 192.899 151.144 193.592V199H149.664V193.736C149.664 193.091 149.493 192.613 149.152 192.304C148.816 191.989 148.379 191.832 147.84 191.832C147.467 191.832 147.117 191.893 146.792 192.016C146.467 192.133 146.203 192.315 146 192.56C145.797 192.8 145.696 193.104 145.696 193.472V199H144.224ZM160.239 190.568C160.831 190.568 161.364 190.683 161.839 190.912C162.313 191.136 162.7 191.456 162.999 191.872C163.303 192.288 163.492 192.779 163.567 193.344H162.255C162.207 193.056 162.095 192.792 161.919 192.552C161.748 192.312 161.521 192.12 161.239 191.976C160.956 191.832 160.625 191.76 160.247 191.76C159.537 191.76 158.961 192.016 158.519 192.528C158.076 193.04 157.855 193.824 157.855 194.88C157.855 195.835 158.057 196.6 158.463 197.176C158.873 197.747 159.476 198.032 160.271 198.032C160.649 198.032 160.977 197.96 161.255 197.816C161.537 197.667 161.764 197.472 161.935 197.232C162.105 196.987 162.215 196.725 162.263 196.448H163.551C163.481 197.003 163.295 197.483 162.991 197.888C162.687 198.293 162.297 198.608 161.823 198.832C161.353 199.051 160.825 199.16 160.239 199.16C159.497 199.16 158.839 198.997 158.263 198.672C157.692 198.347 157.244 197.867 156.919 197.232C156.593 196.597 156.431 195.819 156.431 194.896C156.431 194.032 156.577 193.277 156.871 192.632C157.169 191.981 157.601 191.475 158.167 191.112C158.737 190.749 159.428 190.568 160.239 190.568ZM168.856 199.16C168.093 199.16 167.426 198.997 166.856 198.672C166.285 198.341 165.842 197.859 165.528 197.224C165.213 196.589 165.056 195.813 165.056 194.896C165.056 194.032 165.202 193.275 165.496 192.624C165.789 191.973 166.218 191.469 166.784 191.112C167.354 190.749 168.045 190.568 168.856 190.568C169.618 190.568 170.28 190.736 170.84 191.072C171.405 191.403 171.842 191.891 172.152 192.536C172.461 193.181 172.616 193.968 172.616 194.896C172.616 195.739 172.472 196.48 172.184 197.12C171.901 197.76 171.48 198.261 170.92 198.624C170.365 198.981 169.677 199.16 168.856 199.16ZM168.856 197.992C169.352 197.992 169.77 197.867 170.112 197.616C170.453 197.365 170.712 197.005 170.888 196.536C171.064 196.067 171.152 195.509 171.152 194.864C171.152 194.272 171.074 193.741 170.92 193.272C170.765 192.797 170.517 192.421 170.176 192.144C169.84 191.867 169.4 191.728 168.856 191.728C168.354 191.728 167.93 191.853 167.584 192.104C167.237 192.349 166.973 192.707 166.792 193.176C166.616 193.645 166.528 194.208 166.528 194.864C166.528 195.445 166.608 195.973 166.768 196.448C166.928 196.923 167.178 197.299 167.52 197.576C167.861 197.853 168.306 197.992 168.856 197.992ZM174.552 199V190.728H175.976V191.928C176.205 191.565 176.52 191.248 176.92 190.976C177.32 190.704 177.84 190.568 178.48 190.568C178.779 190.568 179.083 190.619 179.392 190.72C179.707 190.821 179.995 190.973 180.256 191.176C180.517 191.379 180.72 191.627 180.864 191.92C181.12 191.515 181.467 191.189 181.904 190.944C182.341 190.693 182.835 190.568 183.384 190.568C183.672 190.568 183.973 190.613 184.288 190.704C184.603 190.789 184.893 190.944 185.16 191.168C185.432 191.387 185.653 191.693 185.824 192.088C185.995 192.477 186.08 192.979 186.08 193.592V199H184.592V193.736C184.592 193.235 184.512 192.848 184.352 192.576C184.192 192.299 183.981 192.104 183.72 191.992C183.464 191.88 183.189 191.824 182.896 191.824C182.64 191.824 182.368 191.875 182.08 191.976C181.792 192.077 181.547 192.248 181.344 192.488C181.141 192.728 181.04 193.056 181.04 193.472V199H179.568V193.304C179.568 192.979 179.48 192.707 179.304 192.488C179.133 192.269 178.917 192.104 178.656 191.992C178.4 191.88 178.144 191.824 177.888 191.824C177.605 191.824 177.32 191.88 177.032 191.992C176.749 192.104 176.509 192.283 176.312 192.528C176.12 192.768 176.024 193.083 176.024 193.472V199H174.552ZM188.396 201.576V190.728H189.868L189.884 192.168C189.98 191.997 190.103 191.819 190.252 191.632C190.407 191.445 190.593 191.272 190.812 191.112C191.036 190.952 191.295 190.821 191.588 190.72C191.887 190.619 192.225 190.568 192.604 190.568C193.265 190.568 193.847 190.72 194.348 191.024C194.855 191.323 195.249 191.781 195.532 192.4C195.815 193.019 195.956 193.803 195.956 194.752C195.956 195.701 195.817 196.504 195.54 197.16C195.268 197.811 194.873 198.307 194.356 198.648C193.839 198.989 193.215 199.16 192.484 199.16C192.116 199.16 191.788 199.107 191.5 199C191.217 198.899 190.969 198.765 190.756 198.6C190.548 198.429 190.372 198.248 190.228 198.056C190.089 197.864 189.975 197.68 189.884 197.504V201.576H188.396ZM192.204 198.008C192.887 198.008 193.444 197.749 193.876 197.232C194.308 196.709 194.524 195.899 194.524 194.8C194.524 193.856 194.327 193.107 193.932 192.552C193.537 191.997 192.961 191.72 192.204 191.72C191.436 191.72 190.855 192.005 190.46 192.576C190.065 193.141 189.868 193.883 189.868 194.8C189.868 195.392 189.956 195.931 190.132 196.416C190.308 196.901 190.569 197.288 190.916 197.576C191.263 197.864 191.692 198.008 192.204 198.008ZM199.984 199.104C199.536 199.104 199.173 199.043 198.896 198.92C198.624 198.797 198.413 198.632 198.264 198.424C198.12 198.216 198.021 197.979 197.968 197.712C197.92 197.44 197.896 197.16 197.896 196.872V187.112H199.352V196.728C199.352 197.144 199.432 197.456 199.592 197.664C199.757 197.872 199.987 197.987 200.28 198.008L200.728 198.016V198.976C200.605 199.013 200.477 199.043 200.344 199.064C200.211 199.091 200.091 199.104 199.984 199.104ZM204.23 190.728V199H202.798V190.728H204.23ZM204.262 187.44V188.976H202.75V187.44H204.262ZM209.121 199.16C208.588 199.16 208.116 199.067 207.705 198.88C207.295 198.688 206.972 198.413 206.737 198.056C206.508 197.699 206.393 197.267 206.393 196.76C206.393 195.843 206.713 195.16 207.353 194.712C207.993 194.264 209.02 194.024 210.433 193.992L211.913 193.952V193.304C211.913 192.797 211.761 192.397 211.457 192.104C211.153 191.805 210.681 191.656 210.041 191.656C209.567 191.661 209.148 191.773 208.785 191.992C208.428 192.211 208.196 192.568 208.089 193.064H206.785C206.817 192.525 206.969 192.072 207.241 191.704C207.513 191.331 207.892 191.048 208.377 190.856C208.868 190.664 209.447 190.568 210.113 190.568C210.833 190.568 211.431 190.669 211.905 190.872C212.385 191.075 212.743 191.373 212.977 191.768C213.217 192.163 213.337 192.648 213.337 193.224V199H212.073L211.969 197.448C211.649 198.093 211.241 198.541 210.745 198.792C210.255 199.037 209.713 199.16 209.121 199.16ZM209.569 198.096C209.847 198.096 210.121 198.045 210.393 197.944C210.671 197.843 210.924 197.707 211.153 197.536C211.383 197.36 211.564 197.165 211.697 196.952C211.836 196.733 211.908 196.509 211.913 196.28V194.864L210.681 194.888C210.052 194.899 209.524 194.963 209.097 195.08C208.676 195.197 208.359 195.381 208.145 195.632C207.937 195.883 207.833 196.211 207.833 196.616C207.833 197.08 207.993 197.443 208.313 197.704C208.639 197.965 209.057 198.096 209.569 198.096ZM215.865 199V190.728H217.297V191.928C217.43 191.699 217.614 191.483 217.849 191.28C218.089 191.077 218.377 190.915 218.713 190.792C219.054 190.669 219.446 190.608 219.889 190.608C220.411 190.608 220.891 190.712 221.329 190.92C221.771 191.128 222.123 191.453 222.385 191.896C222.651 192.333 222.785 192.899 222.785 193.592V199H221.305V193.736C221.305 193.091 221.134 192.613 220.793 192.304C220.457 191.989 220.019 191.832 219.481 191.832C219.107 191.832 218.758 191.893 218.433 192.016C218.107 192.133 217.843 192.315 217.641 192.56C217.438 192.8 217.337 193.104 217.337 193.472V199H215.865ZM228.395 190.568C228.987 190.568 229.52 190.683 229.995 190.912C230.47 191.136 230.856 191.456 231.155 191.872C231.459 192.288 231.648 192.779 231.723 193.344H230.411C230.363 193.056 230.251 192.792 230.075 192.552C229.904 192.312 229.678 192.12 229.395 191.976C229.112 191.832 228.782 191.76 228.403 191.76C227.694 191.76 227.118 192.016 226.675 192.528C226.232 193.04 226.011 193.824 226.011 194.88C226.011 195.835 226.214 196.6 226.619 197.176C227.03 197.747 227.632 198.032 228.427 198.032C228.806 198.032 229.134 197.96 229.411 197.816C229.694 197.667 229.92 197.472 230.091 197.232C230.262 196.987 230.371 196.725 230.419 196.448H231.707C231.638 197.003 231.451 197.483 231.147 197.888C230.843 198.293 230.454 198.608 229.979 198.832C229.51 199.051 228.982 199.16 228.395 199.16C227.654 199.16 226.995 198.997 226.419 198.672C225.848 198.347 225.4 197.867 225.075 197.232C224.75 196.597 224.587 195.819 224.587 194.896C224.587 194.032 224.734 193.277 225.027 192.632C225.326 191.981 225.758 191.475 226.323 191.112C226.894 190.749 227.584 190.568 228.395 190.568ZM234.78 195.208C234.78 195.731 234.865 196.205 235.036 196.632C235.212 197.053 235.476 197.389 235.828 197.64C236.185 197.891 236.631 198.016 237.164 198.016C237.692 198.016 238.145 197.893 238.524 197.648C238.908 197.403 239.153 197.048 239.26 196.584H240.66C240.559 197.144 240.335 197.616 239.988 198C239.641 198.384 239.223 198.675 238.732 198.872C238.241 199.064 237.729 199.16 237.196 199.16C236.423 199.16 235.743 198.992 235.156 198.656C234.569 198.32 234.111 197.837 233.78 197.208C233.449 196.579 233.284 195.824 233.284 194.944C233.284 194.075 233.433 193.312 233.732 192.656C234.031 192 234.463 191.488 235.028 191.12C235.599 190.752 236.284 190.568 237.084 190.568C237.863 190.568 238.521 190.736 239.06 191.072C239.599 191.408 240.007 191.883 240.284 192.496C240.567 193.104 240.708 193.827 240.708 194.664V195.208H234.78ZM234.788 194.208H239.284C239.284 193.733 239.204 193.307 239.044 192.928C238.884 192.544 238.639 192.243 238.308 192.024C237.983 191.8 237.572 191.688 237.076 191.688C236.559 191.688 236.129 191.813 235.788 192.064C235.452 192.309 235.199 192.627 235.028 193.016C234.863 193.4 234.783 193.797 234.788 194.208ZM257.088 190.728L254.584 199H253.128L251.24 192.896L249.448 199H248L245.448 190.728H246.816L248.712 197.088H248.84L250.704 190.728H251.824L253.76 197.072H253.888L255.704 190.728H257.088ZM260.371 190.728V199H258.939V190.728H260.371ZM260.403 187.44V188.976H258.891V187.44H260.403ZM267.286 191.808H265.422V196.952C265.422 197.245 265.451 197.461 265.51 197.6C265.574 197.733 265.678 197.819 265.822 197.856C265.971 197.893 266.174 197.912 266.43 197.912H267.334V198.904C267.233 198.941 267.078 198.973 266.87 199C266.667 199.027 266.414 199.04 266.11 199.04C265.539 199.04 265.097 198.963 264.782 198.808C264.467 198.653 264.246 198.424 264.118 198.12C263.995 197.816 263.934 197.443 263.934 197V191.808H262.59V190.728H263.974L264.334 188.32H265.422V190.72H267.286V191.808ZM269.412 199V187.112H270.852V191.944C270.99 191.715 271.177 191.501 271.412 191.304C271.646 191.101 271.932 190.939 272.268 190.816C272.604 190.688 272.993 190.624 273.436 190.624C273.974 190.624 274.462 190.725 274.9 190.928C275.337 191.125 275.684 191.408 275.94 191.776C276.196 192.144 276.324 192.581 276.324 193.088V199H274.844V193.384C274.844 192.888 274.673 192.507 274.332 192.24C273.996 191.968 273.556 191.832 273.012 191.832C272.644 191.832 272.297 191.893 271.972 192.016C271.646 192.133 271.382 192.315 271.18 192.56C270.982 192.8 270.884 193.107 270.884 193.48V199H269.412ZM286.55 199.16C286.006 199.16 285.478 199.093 284.966 198.96C284.454 198.821 283.99 198.616 283.574 198.344C283.158 198.072 282.811 197.736 282.534 197.336C282.262 196.931 282.091 196.461 282.022 195.928H283.574C283.67 196.365 283.859 196.733 284.142 197.032C284.43 197.331 284.779 197.555 285.19 197.704C285.606 197.853 286.056 197.928 286.542 197.928C287.086 197.928 287.571 197.853 287.998 197.704C288.43 197.549 288.768 197.331 289.014 197.048C289.264 196.765 289.39 196.427 289.39 196.032C289.39 195.685 289.31 195.384 289.15 195.128C288.995 194.872 288.768 194.659 288.47 194.488C288.171 194.317 287.808 194.184 287.382 194.088L285.11 193.56C284.256 193.373 283.587 193.04 283.102 192.56C282.622 192.08 282.376 191.445 282.366 190.656C282.366 189.989 282.542 189.403 282.894 188.896C283.251 188.389 283.739 187.995 284.358 187.712C284.982 187.429 285.694 187.288 286.494 187.288C287.416 187.288 288.192 187.445 288.822 187.76C289.451 188.075 289.926 188.488 290.246 189C290.566 189.512 290.728 190.059 290.734 190.64H289.206C289.158 190.117 289.003 189.704 288.742 189.4C288.486 189.091 288.163 188.872 287.774 188.744C287.384 188.611 286.96 188.544 286.502 188.544C286.171 188.544 285.851 188.587 285.542 188.672C285.238 188.752 284.963 188.875 284.718 189.04C284.478 189.205 284.286 189.411 284.142 189.656C283.998 189.901 283.926 190.187 283.926 190.512C283.926 190.928 284.067 191.267 284.35 191.528C284.638 191.789 285.158 192.013 285.91 192.2L288.11 192.728C288.686 192.851 289.155 193.032 289.518 193.272C289.886 193.512 290.168 193.784 290.366 194.088C290.568 194.392 290.707 194.709 290.782 195.04C290.862 195.371 290.902 195.696 290.902 196.016C290.902 196.597 290.728 197.128 290.382 197.608C290.035 198.083 289.536 198.461 288.886 198.744C288.24 199.021 287.462 199.16 286.55 199.16ZM294.155 195.208C294.155 195.731 294.24 196.205 294.411 196.632C294.587 197.053 294.851 197.389 295.203 197.64C295.56 197.891 296.006 198.016 296.539 198.016C297.067 198.016 297.52 197.893 297.899 197.648C298.283 197.403 298.528 197.048 298.635 196.584H300.035C299.934 197.144 299.71 197.616 299.363 198C299.016 198.384 298.598 198.675 298.107 198.872C297.616 199.064 297.104 199.16 296.571 199.16C295.798 199.16 295.118 198.992 294.531 198.656C293.944 198.32 293.486 197.837 293.155 197.208C292.824 196.579 292.659 195.824 292.659 194.944C292.659 194.075 292.808 193.312 293.107 192.656C293.406 192 293.838 191.488 294.403 191.12C294.974 190.752 295.659 190.568 296.459 190.568C297.238 190.568 297.896 190.736 298.435 191.072C298.974 191.408 299.382 191.883 299.659 192.496C299.942 193.104 300.083 193.827 300.083 194.664V195.208H294.155ZM294.163 194.208H298.659C298.659 193.733 298.579 193.307 298.419 192.928C298.259 192.544 298.014 192.243 297.683 192.024C297.358 191.8 296.947 191.688 296.451 191.688C295.934 191.688 295.504 191.813 295.163 192.064C294.827 192.309 294.574 192.627 294.403 193.016C294.238 193.4 294.158 193.797 294.163 194.208ZM305.411 190.568C306.003 190.568 306.536 190.683 307.011 190.912C307.485 191.136 307.872 191.456 308.171 191.872C308.475 192.288 308.664 192.779 308.739 193.344H307.427C307.379 193.056 307.267 192.792 307.091 192.552C306.92 192.312 306.693 192.12 306.411 191.976C306.128 191.832 305.797 191.76 305.419 191.76C304.709 191.76 304.133 192.016 303.691 192.528C303.248 193.04 303.027 193.824 303.027 194.88C303.027 195.835 303.229 196.6 303.635 197.176C304.045 197.747 304.648 198.032 305.443 198.032C305.821 198.032 306.149 197.96 306.427 197.816C306.709 197.667 306.936 197.472 307.107 197.232C307.277 196.987 307.387 196.725 307.435 196.448H308.723C308.653 197.003 308.467 197.483 308.163 197.888C307.859 198.293 307.469 198.608 306.995 198.832C306.525 199.051 305.997 199.16 305.411 199.16C304.669 199.16 304.011 198.997 303.435 198.672C302.864 198.347 302.416 197.867 302.091 197.232C301.765 196.597 301.603 195.819 301.603 194.896C301.603 194.032 301.749 193.277 302.043 192.632C302.341 191.981 302.773 191.475 303.339 191.112C303.909 190.749 304.6 190.568 305.411 190.568ZM314.677 191.808H312.813V196.952C312.813 197.245 312.842 197.461 312.901 197.6C312.965 197.733 313.069 197.819 313.213 197.856C313.362 197.893 313.565 197.912 313.821 197.912H314.725V198.904C314.623 198.941 314.469 198.973 314.261 199C314.058 199.027 313.805 199.04 313.501 199.04C312.93 199.04 312.487 198.963 312.173 198.808C311.858 198.653 311.637 198.424 311.509 198.12C311.386 197.816 311.325 197.443 311.325 197V191.808H309.981V190.728H311.365L311.725 188.32H312.813V190.72H314.677V191.808ZM318.402 190.728V199H316.97V190.728H318.402ZM318.434 187.44V188.976H316.922V187.44H318.434ZM324.293 199.16C323.531 199.16 322.864 198.997 322.293 198.672C321.723 198.341 321.28 197.859 320.965 197.224C320.651 196.589 320.493 195.813 320.493 194.896C320.493 194.032 320.64 193.275 320.933 192.624C321.227 191.973 321.656 191.469 322.221 191.112C322.792 190.749 323.483 190.568 324.293 190.568C325.056 190.568 325.717 190.736 326.277 191.072C326.843 191.403 327.28 191.891 327.589 192.536C327.899 193.181 328.053 193.968 328.053 194.896C328.053 195.739 327.909 196.48 327.621 197.12C327.339 197.76 326.917 198.261 326.357 198.624C325.803 198.981 325.115 199.16 324.293 199.16ZM324.293 197.992C324.789 197.992 325.208 197.867 325.549 197.616C325.891 197.365 326.149 197.005 326.325 196.536C326.501 196.067 326.589 195.509 326.589 194.864C326.589 194.272 326.512 193.741 326.357 193.272C326.203 192.797 325.955 192.421 325.613 192.144C325.277 191.867 324.837 191.728 324.293 191.728C323.792 191.728 323.368 191.853 323.021 192.104C322.675 192.349 322.411 192.707 322.229 193.176C322.053 193.645 321.965 194.208 321.965 194.864C321.965 195.445 322.045 195.973 322.205 196.448C322.365 196.923 322.616 197.299 322.957 197.576C323.299 197.853 323.744 197.992 324.293 197.992ZM329.99 199V190.728H331.422V191.928C331.555 191.699 331.739 191.483 331.974 191.28C332.214 191.077 332.502 190.915 332.838 190.792C333.179 190.669 333.571 190.608 334.014 190.608C334.536 190.608 335.016 190.712 335.454 190.92C335.896 191.128 336.248 191.453 336.51 191.896C336.776 192.333 336.91 192.899 336.91 193.592V199H335.43V193.736C335.43 193.091 335.259 192.613 334.918 192.304C334.582 191.989 334.144 191.832 333.606 191.832C333.232 191.832 332.883 191.893 332.558 192.016C332.232 192.133 331.968 192.315 331.766 192.56C331.563 192.8 331.462 193.104 331.462 193.472V199H329.99ZM346.864 187.272C347.605 187.272 348.269 187.395 348.856 187.64C349.442 187.885 349.906 188.243 350.248 188.712C350.589 189.181 350.76 189.752 350.76 190.424C350.76 191.053 350.589 191.581 350.248 192.008C349.912 192.435 349.477 192.76 348.944 192.984C349.333 193.059 349.704 193.24 350.056 193.528C350.413 193.816 350.706 194.165 350.936 194.576C351.165 194.987 351.28 195.416 351.28 195.864C351.28 196.531 351.095 197.112 350.727 197.608C350.365 198.104 349.853 198.491 349.192 198.768C348.53 199.04 347.754 199.176 346.864 199.176C345.978 199.176 345.205 199.04 344.544 198.768C343.882 198.491 343.368 198.104 343 197.608C342.637 197.112 342.456 196.531 342.456 195.864C342.456 195.416 342.568 194.987 342.792 194.576C343.021 194.165 343.314 193.816 343.672 193.528C344.029 193.24 344.402 193.059 344.792 192.984C344.264 192.76 343.826 192.435 343.48 192.008C343.138 191.581 342.968 191.053 342.968 190.424C342.968 189.752 343.138 189.181 343.48 188.712C343.821 188.243 344.285 187.885 344.872 187.64C345.464 187.395 346.128 187.272 346.864 187.272ZM346.864 192.36C347.568 192.36 348.138 192.187 348.576 191.84C349.018 191.493 349.24 191.011 349.24 190.392C349.24 189.768 349.018 189.277 348.576 188.92C348.133 188.557 347.562 188.376 346.864 188.376C346.165 188.376 345.594 188.557 345.152 188.92C344.709 189.283 344.488 189.773 344.488 190.392C344.488 191.011 344.709 191.493 345.152 191.84C345.594 192.187 346.165 192.36 346.864 192.36ZM346.864 197.976C347.722 197.976 348.408 197.784 348.92 197.4C349.432 197.011 349.688 196.496 349.688 195.856C349.688 195.435 349.57 195.059 349.336 194.728C349.106 194.397 348.781 194.139 348.36 193.952C347.938 193.76 347.44 193.664 346.864 193.664C346.293 193.664 345.797 193.76 345.376 193.952C344.96 194.139 344.634 194.397 344.4 194.728C344.17 195.059 344.056 195.435 344.056 195.856C344.056 196.496 344.309 197.011 344.816 197.4C345.328 197.784 346.01 197.976 346.864 197.976ZM357.114 187.272C357.855 187.272 358.519 187.395 359.106 187.64C359.692 187.885 360.156 188.243 360.498 188.712C360.839 189.181 361.01 189.752 361.01 190.424C361.01 191.053 360.839 191.581 360.498 192.008C360.162 192.435 359.727 192.76 359.194 192.984C359.583 193.059 359.954 193.24 360.306 193.528C360.663 193.816 360.956 194.165 361.186 194.576C361.415 194.987 361.53 195.416 361.53 195.864C361.53 196.531 361.345 197.112 360.977 197.608C360.615 198.104 360.103 198.491 359.442 198.768C358.78 199.04 358.004 199.176 357.114 199.176C356.228 199.176 355.455 199.04 354.794 198.768C354.132 198.491 353.618 198.104 353.25 197.608C352.887 197.112 352.706 196.531 352.706 195.864C352.706 195.416 352.818 194.987 353.042 194.576C353.271 194.165 353.564 193.816 353.922 193.528C354.279 193.24 354.652 193.059 355.042 192.984C354.514 192.76 354.076 192.435 353.73 192.008C353.388 191.581 353.218 191.053 353.218 190.424C353.218 189.752 353.388 189.181 353.73 188.712C354.071 188.243 354.535 187.885 355.122 187.64C355.714 187.395 356.378 187.272 357.114 187.272ZM357.114 192.36C357.818 192.36 358.388 192.187 358.826 191.84C359.268 191.493 359.49 191.011 359.49 190.392C359.49 189.768 359.268 189.277 358.826 188.92C358.383 188.557 357.812 188.376 357.114 188.376C356.415 188.376 355.844 188.557 355.402 188.92C354.959 189.283 354.738 189.773 354.738 190.392C354.738 191.011 354.959 191.493 355.402 191.84C355.844 192.187 356.415 192.36 357.114 192.36ZM357.114 197.976C357.972 197.976 358.658 197.784 359.17 197.4C359.682 197.011 359.938 196.496 359.938 195.856C359.938 195.435 359.82 195.059 359.586 194.728C359.356 194.397 359.031 194.139 358.61 193.952C358.188 193.76 357.69 193.664 357.114 193.664C356.543 193.664 356.047 193.76 355.626 193.952C355.21 194.139 354.884 194.397 354.65 194.728C354.42 195.059 354.306 195.435 354.306 195.856C354.306 196.496 354.559 197.011 355.066 197.4C355.578 197.784 356.26 197.976 357.114 197.976ZM366.836 199.176C366.196 199.176 365.598 199.056 365.044 198.816C364.494 198.571 364.033 198.224 363.66 197.776C363.292 197.328 363.065 196.792 362.98 196.168H364.42C364.553 196.696 364.83 197.125 365.252 197.456C365.673 197.781 366.185 197.944 366.788 197.944C367.47 197.944 368.054 197.765 368.54 197.408C369.03 197.051 369.396 196.499 369.636 195.752C369.876 195.005 369.966 194.048 369.908 192.88C369.774 193.285 369.564 193.643 369.276 193.952C368.988 194.256 368.641 194.496 368.236 194.672C367.83 194.848 367.382 194.936 366.891 194.936C366.129 194.936 365.457 194.787 364.876 194.488C364.294 194.189 363.841 193.763 363.516 193.208C363.196 192.653 363.036 191.989 363.036 191.216C363.036 190.443 363.196 189.76 363.516 189.168C363.836 188.576 364.294 188.112 364.892 187.776C365.489 187.44 366.198 187.272 367.02 187.272C367.916 187.272 368.692 187.504 369.348 187.968C370.004 188.427 370.51 189.088 370.868 189.952C371.225 190.811 371.404 191.843 371.404 193.048C371.404 194.344 371.225 195.448 370.868 196.36C370.516 197.272 369.998 197.971 369.316 198.456C368.638 198.936 367.812 199.176 366.836 199.176ZM367.052 193.68C367.478 193.68 367.884 193.581 368.268 193.384C368.652 193.187 368.964 192.925 369.204 192.6C369.449 192.269 369.572 191.909 369.572 191.52C369.577 190.923 369.476 190.397 369.268 189.944C369.06 189.485 368.764 189.128 368.38 188.872C367.996 188.611 367.548 188.48 367.036 188.48C366.566 188.48 366.15 188.592 365.788 188.816C365.43 189.04 365.148 189.352 364.94 189.752C364.737 190.152 364.636 190.616 364.636 191.144C364.636 191.917 364.841 192.533 365.252 192.992C365.662 193.451 366.262 193.68 367.052 193.68Z" fill="#1A1F28"/>
</svg>
