<svg version="1.1" id="Layer_1" xmlns="http://www.w3.org/2000/svg" xmlns:xlink="http://www.w3.org/1999/xlink" x="0px" y="0px"
	 width="100%" viewBox="0 0 168 168" enable-background="new 0 0 168 168" xml:space="preserve">
<path fill="#05568F" opacity="1.000000" stroke="none" 
	d="
M1.000000,168.000000 
	C1.000000,130.645767 1.000000,93.291542 1.343837,55.242584 
	C5.293027,54.721420 8.898379,54.894997 13.517927,55.117393 
	C6.652134,49.696655 7.963686,44.422577 13.957951,39.200157 
	C8.835271,38.613247 4.425729,43.126808 1.000000,38.000000 
	C1.000000,25.776142 1.000000,13.552284 1.000000,1.000000 
	C5.345072,1.000000 9.698408,1.000000 14.747857,1.407482 
	C17.165148,9.471844 12.949298,12.835016 4.888562,13.915380 
	C8.998185,15.961941 12.763792,16.676620 14.227554,18.903997 
	C15.595272,20.985226 14.520041,24.671885 14.520041,27.651934 
	C14.902740,27.939871 15.285439,28.227806 15.668139,28.515743 
	C19.030636,20.722210 24.405994,19.973309 31.604710,23.733765 
	C25.613630,17.727026 25.915739,12.422571 31.926512,7.043421 
	C29.714998,7.040616 28.179733,7.359157 26.662090,7.746709 
	C21.572342,9.046453 18.800144,6.896286 18.000000,1.000000 
	C25.020948,1.000000 32.041897,1.000000 39.431427,1.416750 
	C41.245495,8.077046 42.690975,14.320594 44.045391,20.979053 
	C45.884560,29.194000 47.814789,36.994030 49.699711,45.131851 
	C50.904308,51.453789 52.086941,57.452938 53.417564,63.419083 
	C56.574833,77.575378 57.478039,78.124733 71.846596,75.086235 
	C72.322136,74.985672 72.766594,74.738106 73.618134,74.573639 
	C75.002312,74.266022 75.993881,73.943840 77.353394,73.637558 
	C87.132523,68.871147 96.543716,64.088821 106.277534,59.252846 
	C107.992393,58.110920 109.384628,57.022633 111.190247,55.950859 
	C120.764778,50.630314 129.768951,44.996742 139.131454,40.039993 
	C148.401489,35.132202 158.144302,31.325748 169.000000,32.000000 
	C169.000000,77.020897 169.000000,122.041786 168.531342,167.532715 
	C145.131470,168.003357 122.200172,167.978256 99.269157,168.047882 
	C97.178497,168.054214 95.089676,168.668198 93.000000,169.000000 
	C90.629440,169.000000 88.258888,169.000000 85.097359,168.774872 
	C82.335213,168.367966 80.364258,168.030792 78.392830,168.027985 
	C52.595257,167.991089 26.797621,168.001480 1.000000,168.000000 
M143.213852,122.503754 
	C143.452576,123.007774 143.691299,123.511803 143.858505,124.648323 
	C144.199158,125.158493 144.539825,125.668663 144.983795,126.544220 
	C144.983795,126.544220 145.177170,126.871002 145.093628,127.470917 
	C145.423660,127.958206 145.753693,128.445496 146.285019,129.631851 
	C147.083755,131.464996 147.883545,133.297684 148.681061,135.131363 
	C151.232254,140.997177 153.499680,141.842010 159.975021,139.109497 
	C156.320282,131.085983 152.667984,123.067825 149.035690,114.427826 
	C148.407257,113.621246 147.778824,112.814659 147.264435,111.238251 
	C143.357620,102.416824 139.450806,93.595390 135.543991,84.773964 
	C135.061172,84.822021 134.578354,84.870079 134.095551,84.918137 
	C131.066742,92.015793 128.037949,99.113449 124.735443,106.252823 
	C124.735443,106.252823 124.623344,106.504250 124.623344,106.504250 
	C124.623344,106.504250 124.792000,106.721794 124.233528,107.430031 
	C124.173332,107.724594 124.113136,108.019150 123.585320,108.793587 
	C118.948639,119.021553 114.311958,129.249527 109.438354,140.000107 
	C122.418762,141.963165 130.600967,133.344574 140.852005,129.724854 
	C137.390274,124.584496 133.926361,123.634789 129.543701,126.913567 
	C128.395447,127.772598 126.874718,128.133759 125.103828,128.181152 
	C124.954475,128.007675 124.805122,127.834190 124.688858,126.948936 
	C128.099792,121.888840 127.996590,117.222519 122.585564,113.758118 
	C125.893410,112.714424 128.513306,111.887787 131.540604,110.806229 
	C131.720200,110.535629 131.842133,110.241158 132.313477,109.695023 
	C132.538712,109.414444 132.555054,109.122208 132.626633,108.313843 
	C132.683334,108.132698 132.740036,107.951561 133.261566,107.441948 
	C133.368546,106.908043 133.475525,106.374146 133.795670,105.418365 
	C133.795670,105.418365 133.946716,104.970490 134.545837,105.042480 
	C135.101913,105.274010 135.657990,105.505539 136.363556,106.297630 
	C136.444931,106.473068 136.526291,106.648499 136.478394,107.279305 
	C136.531845,107.640610 136.738098,107.854721 137.304642,108.565155 
	C137.771271,109.586624 138.237885,110.608101 138.985825,112.326591 
	C140.575119,112.570114 142.232864,112.614578 143.729019,113.129013 
	C144.684113,113.457397 145.400101,114.481277 145.850296,115.515587 
	C145.612305,115.742210 145.376678,115.971275 144.620865,116.253944 
	C144.459961,116.544395 144.299057,116.834846 143.589142,117.584389 
	C143.222610,118.628510 142.856094,119.672630 142.311462,121.097061 
	C142.559189,121.387436 142.806931,121.677811 143.213852,122.503754 
M53.645031,140.186829 
	C57.867306,140.034180 59.401623,137.893707 58.970860,133.705246 
	C58.631897,130.409470 58.902622,127.050972 58.902622,123.720329 
	C58.902611,110.207794 58.902630,110.207787 45.421509,110.237206 
	C38.593410,110.252106 38.103104,110.955963 40.137558,117.822395 
	C50.330688,119.026917 50.447552,119.037186 49.564098,129.092270 
	C49.441528,130.487366 47.649086,132.676285 46.375393,132.875992 
	C38.525188,134.106934 31.224010,132.611725 26.281935,125.831657 
	C21.144949,118.784195 20.724884,110.883781 24.467100,103.105843 
	C28.009365,95.743484 34.508533,92.478363 42.442020,92.830292 
	C47.304989,93.046013 52.117245,94.404869 57.028145,95.263649 
	C59.486370,87.990578 59.125092,86.928284 51.484051,85.640656 
	C46.778500,84.847702 41.834553,84.507851 37.105110,84.999130 
	C23.089342,86.455048 13.380454,97.055367 12.710134,110.949287 
	C11.962024,126.455574 19.923573,137.825592 34.475269,140.448578 
	C40.385654,141.513931 46.680904,140.444107 53.645031,140.186829 
M72.169746,105.088417 
	C75.007698,112.033501 81.804970,113.862030 87.586143,116.985901 
	C93.207870,120.023605 95.236450,123.252182 94.029884,127.435219 
	C92.855804,131.505630 88.302002,133.871765 82.512253,133.099533 
	C79.438042,132.689514 76.428841,131.792053 73.443474,131.126480 
	C70.891350,138.389282 71.211998,139.312317 77.954033,140.528687 
	C81.509407,141.170120 85.272041,141.390045 88.855003,141.003098 
	C96.846893,140.140076 101.942017,135.601364 103.449921,128.740875 
	C105.143074,121.037575 102.481239,114.894676 95.334999,110.543358 
	C92.353584,108.727989 89.142891,107.293434 86.083527,105.600639 
	C82.893097,103.835320 79.895866,101.702446 81.130730,97.431854 
	C82.330795,93.281624 86.031876,92.641914 89.605530,92.802711 
	C93.017273,92.956223 96.398064,93.797325 99.752777,94.329880 
	C102.184311,86.756287 101.852142,86.067474 94.617462,85.048218 
	C91.997757,84.679146 89.285683,84.582024 86.648659,84.786034 
	C75.462364,85.651451 69.797813,93.254982 72.169746,105.088417 
M31.554201,50.246067 
	C30.998158,49.726768 30.442116,49.207474 28.550947,47.441280 
	C30.787018,56.659195 26.257580,59.769245 18.871206,61.221634 
	C27.177082,62.733654 29.762583,67.454819 28.280735,75.411926 
	C32.398579,68.155792 37.565781,66.537842 44.982159,70.681320 
	C38.708618,64.626244 39.583599,59.210762 46.509560,53.287937 
	C40.008282,54.172321 34.626987,58.094852 31.554201,50.246067 
z"/>
<path fill="#EA1F27" opacity="1.000000" stroke="none" 
	d="
M169.000000,31.531343 
	C158.144302,31.325748 148.401489,35.132202 139.131454,40.039993 
	C129.768951,44.996742 120.764778,50.630314 111.237457,55.435631 
	C110.291527,50.242046 109.844887,45.558483 109.088661,40.925446 
	C108.513519,37.401875 107.544968,33.942524 106.869980,30.237919 
	C107.287369,29.832815 107.462807,29.563868 107.834427,29.119837 
	C116.424889,23.917652 124.695747,18.810026 133.280090,13.698755 
	C134.250443,13.209463 134.907288,12.723816 135.883209,12.198483 
	C137.118362,11.621614 138.034439,11.084432 139.257446,10.566036 
	C140.218094,10.131673 140.871765,9.678524 141.881775,9.201387 
	C150.833939,5.711155 159.487167,2.493585 169.000000,3.000000 
	C169.000000,12.354229 169.000000,21.708458 169.000000,31.531343 
z"/>
<path fill="#FEFBFC" opacity="1.000000" stroke="none" 
	d="
M132.966599,13.702394 
	C124.695747,18.810026 116.424889,23.917652 107.444107,29.036243 
	C105.367714,27.772787 103.536232,26.741520 102.719543,25.179628 
	C99.960030,19.902107 97.560524,14.436344 95.065628,8.849201 
	C95.107872,8.655854 95.131363,8.260735 95.483337,8.211733 
	C99.556877,5.775155 103.278435,3.387578 107.000000,1.000001 
	C126.500000,1.000000 146.000046,0.982816 165.499863,1.042772 
	C166.667557,1.046363 167.833328,1.666669 169.000000,2.500001 
	C159.487167,2.493585 150.833939,5.711155 141.564880,9.175339 
	C140.244614,9.631270 139.597549,10.089262 138.950500,10.547253 
	C138.034439,11.084432 137.118362,11.621614 135.552902,12.175851 
	C134.257858,12.696068 133.612228,13.199230 132.966599,13.702394 
z"/>
<path fill="#E4EBF1" opacity="1.000000" stroke="none" 
	d="
M17.625000,1.000000 
	C18.800144,6.896286 21.572342,9.046453 26.662090,7.746709 
	C28.179733,7.359157 29.714998,7.040616 31.926512,7.043421 
	C25.915739,12.422571 25.613630,17.727026 31.604710,23.733765 
	C24.405994,19.973309 19.030636,20.722210 15.668139,28.515743 
	C15.285439,28.227806 14.902740,27.939871 14.520041,27.651934 
	C14.520041,24.671885 15.595272,20.985226 14.227554,18.903997 
	C12.763792,16.676620 8.998185,15.961941 4.888562,13.915380 
	C12.949298,12.835016 17.165148,9.471844 15.221985,1.407482 
	C15.750000,1.000000 16.500000,1.000000 17.625000,1.000000 
z"/>
<path fill="#E62029" opacity="1.000000" stroke="none" 
	d="
M44.136452,20.564140 
	C42.690975,14.320594 41.245495,8.077046 39.900009,1.416750 
	C44.689255,1.000000 49.378513,1.000000 54.460190,1.371819 
	C54.573608,8.183844 54.294601,14.624049 53.641525,21.136730 
	C52.518471,21.268579 51.769482,21.327951 50.603745,21.248444 
	C48.170147,20.927757 46.153301,20.745949 44.136452,20.564140 
z"/>
<path fill="#D11A22" opacity="1.000000" stroke="none" 
	d="
M60.000000,1.000000 
	C68.020897,1.000000 76.041801,1.000000 84.604324,1.337804 
	C87.167603,4.577041 89.189247,7.478475 91.187302,10.587629 
	C91.163719,10.795350 91.064560,11.201158 90.719292,11.224181 
	C89.305862,11.670491 88.237701,12.093777 87.084045,12.142694 
	C84.987389,7.168996 81.553513,4.830355 76.452766,4.985980 
	C73.459717,5.077299 70.460617,4.958220 67.466492,5.029021 
	C63.215992,5.129529 61.073570,7.399555 61.020119,11.619955 
	C60.980080,14.781564 61.013035,17.944098 60.673767,21.246048 
	C59.886227,21.569311 59.438412,21.752748 58.658150,21.820068 
	C57.880878,21.564301 57.436050,21.424648 56.992722,20.801126 
	C57.085777,13.736517 55.986382,6.970465 60.000000,1.000000 
z"/>
<path fill="#E2E9EF" opacity="1.000000" stroke="none" 
	d="
M1.000000,38.467606 
	C4.425729,43.126808 8.835271,38.613247 13.957951,39.200157 
	C7.963686,44.422577 6.652134,49.696655 13.517927,55.117393 
	C8.898379,54.894997 5.293027,54.721420 1.343837,54.773926 
	C1.000000,49.645069 1.000000,44.290142 1.000000,38.467606 
z"/>
<path fill="#145F90" opacity="1.000000" stroke="none" 
	d="
M1.000000,168.500000 
	C26.797621,168.001480 52.595257,167.991089 78.392830,168.027985 
	C80.364258,168.030792 82.335213,168.367966 84.653198,168.774872 
	C57.000000,169.000000 29.000000,169.000000 1.000000,168.500000 
z"/>
<path fill="#145F90" opacity="1.000000" stroke="none" 
	d="
M93.468658,169.000000 
	C95.089676,168.668198 97.178497,168.054214 99.269157,168.047882 
	C122.200172,167.978256 145.131470,168.003357 168.531342,168.001373 
	C167.676193,168.333344 166.353104,168.954041 165.028473,168.957321 
	C141.331543,169.016068 117.634407,169.000000 93.468658,169.000000 
z"/>
<path fill="#E01D25" opacity="1.000000" stroke="none" 
	d="
M59.583336,1.000000 
	C55.986382,6.970465 57.085777,13.736517 56.767731,20.976982 
	C56.376045,21.731411 56.210854,21.826115 55.729027,21.730183 
	C54.946793,21.381117 54.481194,21.222687 54.015594,21.064255 
	C54.294601,14.624049 54.573608,8.183844 54.926308,1.371819 
	C56.388889,1.000000 57.777779,1.000000 59.583336,1.000000 
z"/>
<path fill="#EB272E" opacity="1.000000" stroke="none" 
	d="
M106.533142,1.000001 
	C103.278435,3.387578 99.556877,5.775155 95.392258,7.862026 
	C93.632805,5.374214 92.316406,3.187107 91.000000,1.000000 
	C96.022095,1.000000 101.044182,1.000000 106.533142,1.000001 
z"/>
<path fill="#E11C23" opacity="1.000000" stroke="none" 
	d="
M90.571533,1.000000 
	C92.316406,3.187107 93.632805,5.374214 95.040283,7.911028 
	C95.131363,8.260735 95.107872,8.655854 94.723831,8.869283 
	C93.296829,9.515109 92.253860,9.947507 91.210892,10.379906 
	C89.189247,7.478475 87.167603,4.577041 85.072983,1.337804 
	C86.714355,1.000000 88.428719,1.000000 90.571533,1.000000 
z"/>
<path fill="#EEF1F2" opacity="1.000000" stroke="none" 
	d="
M53.223034,140.266327 
	C46.680904,140.444107 40.385654,141.513931 34.475269,140.448578 
	C19.923573,137.825592 11.962024,126.455574 12.710134,110.949287 
	C13.380454,97.055367 23.089342,86.455048 37.105110,84.999130 
	C41.834553,84.507851 46.778500,84.847702 51.484051,85.640656 
	C59.125092,86.928284 59.486370,87.990578 57.028145,95.263649 
	C52.117245,94.404869 47.304989,93.046013 42.442020,92.830292 
	C34.508533,92.478363 28.009365,95.743484 24.467100,103.105843 
	C20.724884,110.883781 21.144949,118.784195 26.281935,125.831657 
	C31.224010,132.611725 38.525188,134.106934 46.375393,132.875992 
	C47.649086,132.676285 49.441528,130.487366 49.564098,129.092270 
	C50.447552,119.037186 50.330688,119.026917 40.137558,117.822395 
	C38.103104,110.955963 38.593410,110.252106 45.421509,110.237206 
	C58.902630,110.207787 58.902611,110.207794 58.902622,123.720329 
	C58.902622,127.050972 58.631897,130.409470 58.970860,133.705246 
	C59.401623,137.893707 57.867306,140.034180 53.223034,140.266327 
z"/>
<path fill="#EFF1F3" opacity="1.000000" stroke="none" 
	d="
M72.042030,104.718735 
	C69.797813,93.254982 75.462364,85.651451 86.648659,84.786034 
	C89.285683,84.582024 91.997757,84.679146 94.617462,85.048218 
	C101.852142,86.067474 102.184311,86.756287 99.752777,94.329880 
	C96.398064,93.797325 93.017273,92.956223 89.605530,92.802711 
	C86.031876,92.641914 82.330795,93.281624 81.130730,97.431854 
	C79.895866,101.702446 82.893097,103.835320 86.083527,105.600639 
	C89.142891,107.293434 92.353584,108.727989 95.334999,110.543358 
	C102.481239,114.894676 105.143074,121.037575 103.449921,128.740875 
	C101.942017,135.601364 96.846893,140.140076 88.855003,141.003098 
	C85.272041,141.390045 81.509407,141.170120 77.954033,140.528687 
	C71.211998,139.312317 70.891350,138.389282 73.443474,131.126480 
	C76.428841,131.792053 79.438042,132.689514 82.512253,133.099533 
	C88.302002,133.871765 92.855804,131.505630 94.029884,127.435219 
	C95.236450,123.252182 93.207870,120.023605 87.586143,116.985901 
	C81.804970,113.862030 75.007698,112.033501 72.042030,104.718735 
z"/>
<path fill="#ECEFF1" opacity="1.000000" stroke="none" 
	d="
M131.133194,111.061157 
	C128.513306,111.887787 125.893410,112.714424 122.585564,113.758118 
	C127.996590,117.222519 128.099792,121.888840 124.480980,127.496872 
	C124.690414,128.271057 125.107727,128.497299 125.525040,128.723557 
	C126.874718,128.133759 128.395447,127.772598 129.543701,126.913567 
	C133.926361,123.634789 137.390274,124.584496 140.852005,129.724854 
	C130.600967,133.344574 122.418762,141.963165 109.438354,140.000107 
	C114.311958,129.249527 118.948639,119.021553 123.874496,108.913254 
	C126.486839,109.709000 128.810013,110.385078 131.133194,111.061157 
z"/>
<path fill="#E51F28" opacity="1.000000" stroke="none" 
	d="
M73.225540,74.559067 
	C72.766594,74.738106 72.322136,74.985672 71.846596,75.086235 
	C57.478039,78.124733 56.574833,77.575378 53.417564,63.419083 
	C52.086941,57.452938 50.904308,51.453789 49.978962,45.227058 
	C54.190971,45.598198 58.078419,46.211926 62.351364,46.967155 
	C63.819096,47.202141 64.901329,47.295620 65.969223,47.557213 
	C65.954880,47.725323 65.894897,48.057392 65.561295,48.066566 
	C63.977501,48.398735 62.727303,48.721725 61.020470,49.162689 
	C65.187325,57.833103 69.206436,66.196083 73.225540,74.559067 
z"/>
<path fill="#C91A22" opacity="1.000000" stroke="none" 
	d="
M65.894897,48.057392 
	C65.894897,48.057392 65.954880,47.725323 66.211105,47.385193 
	C66.633698,46.938328 66.800049,46.831593 67.337753,46.821426 
	C68.473495,46.942600 69.237877,46.967197 70.026390,47.373844 
	C71.744354,52.763130 73.278534,57.832188 75.185219,62.757023 
	C76.577972,66.354408 79.473366,68.004784 83.178345,66.350327 
	C88.301292,64.062668 93.519409,61.771610 98.124275,58.640144 
	C100.144157,57.266560 101.903915,53.746700 101.762581,51.318943 
	C101.449936,45.948124 99.858658,40.651737 98.943939,35.103333 
	C99.896889,34.508755 100.694801,34.135834 101.771576,34.034149 
	C105.494255,42.304516 108.407646,50.386482 105.954903,59.306488 
	C96.543716,64.088821 87.132523,68.871147 77.318153,73.300026 
	C70.288231,65.957840 69.370712,56.441254 65.894897,48.057392 
z"/>
<path fill="#EEF1F3" opacity="1.000000" stroke="none" 
	d="
M131.336899,110.933693 
	C128.810013,110.385078 126.486839,109.709000 124.108307,108.673309 
	C124.113136,108.019150 124.173332,107.724594 124.554672,106.994835 
	C124.875809,106.559639 125.009155,106.211105 125.009155,106.211105 
	C128.037949,99.113449 131.066742,92.015793 134.095551,84.918137 
	C134.578354,84.870079 135.061172,84.822021 135.543991,84.773964 
	C139.450806,93.595390 143.357620,102.416824 146.770905,111.589050 
	C143.753082,111.836426 141.228790,111.733002 138.704514,111.629578 
	C138.237885,110.608101 137.771271,109.586624 137.248993,108.017960 
	C137.143692,107.123283 136.948471,106.907677 136.607666,106.823936 
	C136.526291,106.648499 136.444931,106.473068 136.324142,105.715988 
	C135.802902,104.638489 135.321060,104.142624 134.839233,103.646767 
	C134.541733,104.088013 134.244232,104.529251 133.946716,104.970490 
	C133.946716,104.970490 133.795670,105.418365 133.449677,105.787224 
	C133.001373,106.694191 132.899048,107.232307 132.796738,107.770416 
	C132.740036,107.951561 132.683334,108.132698 132.301300,108.686043 
	C131.772339,109.331955 131.749161,109.620140 131.906418,109.922813 
	C131.842133,110.241158 131.720200,110.535629 131.336899,110.933693 
z"/>
<path fill="#E3EBF1" opacity="1.000000" stroke="none" 
	d="
M31.754087,50.535202 
	C34.626987,58.094852 40.008282,54.172321 46.509560,53.287937 
	C39.583599,59.210762 38.708618,64.626244 44.982159,70.681320 
	C37.565781,66.537842 32.398579,68.155792 28.280735,75.411926 
	C29.762583,67.454819 27.177082,62.733654 18.871206,61.221634 
	C26.257580,59.769245 30.787018,56.659195 28.550947,47.441280 
	C30.442116,49.207474 30.998158,49.726768 31.754087,50.535202 
z"/>
<path fill="#FBFBFB" opacity="1.000000" stroke="none" 
	d="
M61.965870,46.825653 
	C58.078419,46.211926 54.190971,45.598198 50.024269,44.889267 
	C47.814789,36.994030 45.884560,29.194000 44.045391,20.979053 
	C46.153301,20.745949 48.170147,20.927757 50.690723,21.590889 
	C52.793678,22.384216 54.392910,22.696217 55.999611,23.425081 
	C57.993343,31.503180 59.979607,39.164417 61.965870,46.825653 
z"/>
<path fill="#F0F2F4" opacity="1.000000" stroke="none" 
	d="
M145.177170,126.871002 
	C145.177170,126.871002 144.983795,126.544220 144.980499,126.040970 
	C144.628143,125.030426 144.279083,124.523125 143.930023,124.015823 
	C143.691299,123.511803 143.452576,123.007774 143.086761,121.880493 
	C142.802994,121.077080 142.646286,120.896919 142.489578,120.716759 
	C142.856094,119.672630 143.222610,118.628510 144.112442,117.308090 
	C144.804977,116.755463 144.974213,116.479126 145.143433,116.202782 
	C145.376678,115.971275 145.612305,115.742210 146.387680,115.345947 
	C147.621948,115.134094 148.318817,115.091881 149.015701,115.049675 
	C152.667984,123.067825 156.320282,131.085983 159.975021,139.109497 
	C153.499680,141.842010 151.232254,140.997177 148.681061,135.131363 
	C147.883545,133.297684 147.083755,131.464996 146.223694,128.977142 
	C145.833984,127.838615 145.505569,127.354805 145.177170,126.871002 
z"/>
<path fill="#DF1C24" opacity="1.000000" stroke="none" 
	d="
M106.277534,59.252846 
	C108.407646,50.386482 105.494255,42.304516 101.943558,33.795197 
	C102.231224,32.865891 102.625771,32.446781 103.351334,31.949795 
	C104.705383,31.399479 105.728424,30.927040 106.751457,30.454601 
	C107.544968,33.942524 108.513519,37.401875 109.088661,40.925446 
	C109.844887,45.558483 110.291527,50.242046 110.824074,55.419113 
	C109.384628,57.022633 107.992393,58.110920 106.277534,59.252846 
z"/>
<path fill="#DB1C24" opacity="1.000000" stroke="none" 
	d="
M65.561295,48.066566 
	C69.370712,56.441254 70.288231,65.957840 76.950211,73.284119 
	C75.993881,73.943840 75.002312,74.266022 73.618134,74.573639 
	C69.206436,66.196083 65.187325,57.833103 61.020470,49.162689 
	C62.727303,48.721725 63.977501,48.398735 65.561295,48.066566 
z"/>
<path fill="#9EB1BE" opacity="1.000000" stroke="none" 
	d="
M149.025696,114.738754 
	C148.318817,115.091881 147.621948,115.134094 146.574188,115.184814 
	C145.400101,114.481277 144.684113,113.457397 143.729019,113.129013 
	C142.232864,112.614578 140.575119,112.570114 138.845169,111.978088 
	C141.228790,111.733002 143.753082,111.836426 146.713867,111.973969 
	C147.778824,112.814659 148.407257,113.621246 149.025696,114.738754 
z"/>
<path fill="#9EB1BE" opacity="1.000000" stroke="none" 
	d="
M134.246277,105.006485 
	C134.244232,104.529251 134.541733,104.088013 134.839233,103.646767 
	C135.321060,104.142624 135.802902,104.638489 136.249390,105.435707 
	C135.657990,105.505539 135.101913,105.274010 134.246277,105.006485 
z"/>
<path fill="#9EB1BE" opacity="1.000000" stroke="none" 
	d="
M133.029144,107.606186 
	C132.899048,107.232307 133.001373,106.694191 133.343094,105.998161 
	C133.475525,106.374146 133.368546,106.908043 133.029144,107.606186 
z"/>
<path fill="#9EB1BE" opacity="1.000000" stroke="none" 
	d="
M143.894257,124.332077 
	C144.279083,124.523125 144.628143,125.030426 144.928833,125.858276 
	C144.539825,125.668663 144.199158,125.158493 143.894257,124.332077 
z"/>
<path fill="#9EB1BE" opacity="1.000000" stroke="none" 
	d="
M145.135406,127.170959 
	C145.505569,127.354805 145.833984,127.838615 146.123047,128.627594 
	C145.753693,128.445496 145.423660,127.958206 145.135406,127.170959 
z"/>
<path fill="#9EB1BE" opacity="1.000000" stroke="none" 
	d="
M132.109955,109.808914 
	C131.749161,109.620140 131.772339,109.331955 132.169235,108.938278 
	C132.555054,109.122208 132.538712,109.414444 132.109955,109.808914 
z"/>
<path fill="#9EB1BE" opacity="1.000000" stroke="none" 
	d="
M136.543030,107.051620 
	C136.948471,106.907677 137.143692,107.123283 137.145233,107.696213 
	C136.738098,107.854721 136.531845,107.640610 136.543030,107.051620 
z"/>
<path fill="#9EB1BE" opacity="1.000000" stroke="none" 
	d="
M144.882141,116.228363 
	C144.974213,116.479126 144.804977,116.755463 144.386932,117.078552 
	C144.299057,116.834846 144.459961,116.544395 144.882141,116.228363 
z"/>
<path fill="#9EB1BE" opacity="1.000000" stroke="none" 
	d="
M142.400513,120.906906 
	C142.646286,120.896919 142.802994,121.077080 143.007172,121.612709 
	C142.806931,121.677811 142.559189,121.387436 142.400513,120.906906 
z"/>
<path fill="#ECEFF1" opacity="1.000000" stroke="none" 
	d="
M124.872299,106.231964 
	C125.009155,106.211105 124.875809,106.559639 124.833908,106.640717 
	C124.792000,106.721794 124.623344,106.504250 124.623344,106.504250 
	C124.623344,106.504250 124.735443,106.252823 124.872299,106.231964 
z"/>
<path fill="#F3E7E7" opacity="1.000000" stroke="none" 
	d="
M106.869980,30.237919 
	C105.728424,30.927040 104.705383,31.399479 102.996902,31.890507 
	C95.861580,26.473373 93.261909,18.946520 91.064560,11.201158 
	C91.064560,11.201158 91.163719,10.795350 91.187309,10.587627 
	C92.253860,9.947507 93.296829,9.515109 94.681587,9.062630 
	C97.560524,14.436344 99.960030,19.902107 102.719543,25.179628 
	C103.536232,26.741520 105.367714,27.772787 107.124489,29.130802 
	C107.462807,29.563868 107.287369,29.832815 106.869980,30.237919 
z"/>
<path fill="#F3E7E7" opacity="1.000000" stroke="none" 
	d="
M139.257446,10.566038 
	C139.597549,10.089262 140.244614,9.631270 141.208557,9.199327 
	C140.871765,9.678524 140.218094,10.131673 139.257446,10.566038 
z"/>
<path fill="#F3E7E7" opacity="1.000000" stroke="none" 
	d="
M133.280090,13.698751 
	C133.612228,13.199230 134.257858,12.696068 135.233826,12.215537 
	C134.907288,12.723816 134.250443,13.209463 133.280090,13.698751 
z"/>
<path fill="#D4CFD1" opacity="1.000000" stroke="none" 
	d="
M55.992138,23.008219 
	C54.392910,22.696217 52.793678,22.384216 51.107471,21.729769 
	C51.769482,21.327951 52.518471,21.268579 53.641525,21.136730 
	C54.481194,21.222687 54.946793,21.381117 55.746155,21.911804 
	C56.048515,22.525188 56.019257,22.766575 55.992138,23.008219 
z"/>
<path fill="#D4CFD1" opacity="1.000000" stroke="none" 
	d="
M90.719292,11.224181 
	C93.261909,18.946520 95.861580,26.473373 102.665894,31.968384 
	C102.625771,32.446781 102.231224,32.865891 101.664696,33.523956 
	C100.694801,34.135834 99.896889,34.508755 98.579735,35.180595 
	C88.707741,39.316944 79.355003,43.154369 70.002266,46.991798 
	C69.237877,46.967197 68.473495,46.942600 67.321136,46.446533 
	C65.308525,40.832878 63.719540,35.679043 62.045322,30.553045 
	C61.099476,27.657114 60.013470,24.806959 58.990597,21.936186 
	C59.438412,21.752748 59.886227,21.569311 61.095161,21.319210 
	C71.015778,20.432150 79.396034,17.353716 87.169540,12.517063 
	C88.237701,12.093777 89.305862,11.670491 90.719292,11.224181 
z"/>
<path fill="#C41920" opacity="1.000000" stroke="none" 
	d="
M87.084045,12.142694 
	C79.396034,17.353716 71.015778,20.432150 61.434883,21.179382 
	C61.013035,17.944098 60.980080,14.781564 61.020119,11.619955 
	C61.073570,7.399555 63.215992,5.129529 67.466492,5.029021 
	C70.460617,4.958220 73.459717,5.077299 76.452766,4.985980 
	C81.553513,4.830355 84.987389,7.168996 87.084045,12.142694 
z"/>
<path fill="#E8E9E9" opacity="1.000000" stroke="none" 
	d="
M58.658150,21.820068 
	C60.013470,24.806959 61.099476,27.657114 62.045322,30.553045 
	C63.719540,35.679043 65.308525,40.832878 66.949791,46.349960 
	C66.800049,46.831593 66.633698,46.938328 66.225449,47.217087 
	C64.901329,47.295620 63.819096,47.202141 62.351364,46.967155 
	C59.979607,39.164417 57.993343,31.503180 55.999611,23.425081 
	C56.019257,22.766575 56.048515,22.525188 56.062790,22.102440 
	C56.210854,21.826115 56.376045,21.731411 56.766232,21.460854 
	C57.436050,21.424648 57.880878,21.564301 58.658150,21.820068 
z"/>
<path fill="#05568F" opacity="1.000000" stroke="none" 
	d="
M125.314438,128.452362 
	C125.107727,128.497299 124.690414,128.271057 124.464432,127.852753 
	C124.805122,127.834190 124.954475,128.007675 125.314438,128.452362 
z"/>
<path fill="#C31920" opacity="1.000000" stroke="none" 
	d="
M70.026390,47.373840 
	C79.355003,43.154369 88.707741,39.316944 98.424698,35.402252 
	C99.858658,40.651737 101.449936,45.948124 101.762581,51.318943 
	C101.903915,53.746700 100.144157,57.266560 98.124275,58.640144 
	C93.519409,61.771610 88.301292,64.062668 83.178345,66.350327 
	C79.473366,68.004784 76.577972,66.354408 75.185219,62.757023 
	C73.278534,57.832188 71.744354,52.763130 70.026390,47.373840 
z"/>
</svg>