<svg width="80" height="31" viewBox="0 0 418 161" fill="none" xmlns="http://www.w3.org/2000/svg">
<path d="M138.901 0H0V138.805H138.901V0Z" fill="#00548E"/>
<path d="M112.003 94.0634L108.916 86.4891L105.565 94.0634H97.9802L108.651 70.7238L119.323 94.0634H112.003Z" fill="white"/>
<path d="M102.743 99.1715L98.8623 108.067L108.387 103.135L113.59 107.274L95.0701 116.346H87.7502L97.5395 94.4155L102.743 99.1715Z" fill="white"/>
<path d="M128.936 116.346H120.998L113.855 99.3479L118.97 94.3276L128.936 116.346Z" fill="white"/>
<path d="M82.1064 72.1328C82.1064 72.1328 81.0481 78.7383 81.1363 79.0026C76.9913 76.9769 71.1707 75.7438 67.2903 77.8576C65.3501 78.9145 64.6446 81.909 65.5265 84.1989C71.8762 91.1568 83.1647 89.4834 83.7821 102.959C83.9585 107.274 81.6655 110.533 79.5489 112.559C73.6401 117.227 64.9973 116.875 58.1184 114.408L58.8239 107.098C62.7925 109.212 70.2006 111.238 74.522 107.186C76.0212 105.777 76.374 103.487 76.1976 101.109C73.7283 93.9752 54.238 94.2394 57.8538 79.3549C58.7357 75.8319 61.7343 72.6612 65.3501 71.3401C70.377 69.2263 77.1677 70.5474 82.1064 72.1328Z" fill="white"/>
<path d="M46.3002 73.0137L46.0356 80.3239C40.656 76.889 31.0431 75.5679 24.7815 79.267C19.2255 82.5257 17.4616 87.2817 17.3735 93.1827C17.2853 99.436 19.7546 105.249 25.928 108.508C29.9848 110.621 39.4213 109.565 39.4213 109.565L39.3331 98.3791H31.2195L31.3077 91.5093H47.0057V114.937C38.363 117.491 26.9863 117.667 19.4019 112.559C11.2883 107.01 9.8772 100.317 9.8772 93.1827C9.8772 83.6707 15.6096 73.5421 26.8099 71.3403C34.3062 69.9311 41.2733 71.0761 46.3002 73.0137Z" fill="white"/>
<path d="M166.946 104.544C168.181 107.891 171.267 114.937 181.233 114.937C188.465 114.937 193.58 110.974 193.58 105.161C193.58 99.3478 187.406 96.5294 180.616 94.1514C174.707 92.1257 167.122 89.3954 167.122 81.9971C167.122 75.5677 172.149 71.6044 180.439 71.6044C188.729 71.6044 192.169 76.0081 194.726 79.443L192.698 82.2614C191.463 79.9714 188.288 74.1585 180.792 74.1585C174.354 74.1585 170.297 77.2411 170.297 82.0852C170.297 85.8724 173.119 88.0743 182.027 91.2449C190.493 94.2395 196.755 97.4101 196.755 104.808C196.755 112.559 190.405 117.755 181.057 117.755C170.562 117.755 165.535 109.652 164.477 106.57L166.946 104.544Z" fill="#8A2432"/>
<path d="M204.868 92.478C206.544 89.3954 208.837 85.344 214.746 85.344C221.095 85.344 222.859 90.2762 223.653 92.6542C224.623 90.4523 226.651 85.344 233.707 85.344C239.439 85.344 243.143 89.9239 243.143 96.7936V116.346H240.497V98.0267C240.497 91.5092 237.763 87.6339 233.178 87.6339C227.974 87.6339 224.006 92.1257 224.006 98.1148V116.346H221.36V96.2652C221.36 91.333 218.45 87.5459 214.393 87.5459C209.19 87.5459 204.868 92.3899 204.868 98.0267V116.258H202.222V86.3128H204.868V92.478Z" fill="#8A2432"/>
<path d="M271.717 111.238C271.717 113.263 272.599 114.673 274.01 114.673C274.363 114.673 274.892 114.585 275.51 114.408V116.875C274.628 117.139 274.01 117.139 273.569 117.139C271.1 117.139 269.424 115.113 269.16 111.414C267.661 113.352 264.75 117.051 258.136 117.051C252.756 117.051 248.435 112.911 248.435 107.803C248.435 99.8762 257.078 98.1147 261.223 97.4101C266.073 96.5294 266.779 96.2651 269.16 94.4156C269.336 88.4265 264.309 87.8981 261.487 87.8981C255.843 87.8981 252.58 89.9238 251.257 94.5037L249.229 92.7422C250.199 90.2761 252.227 85.6082 261.752 85.6082C265.279 85.6082 268.101 86.577 269.953 88.3385C271.453 89.8357 271.806 91.1568 271.806 94.6798V111.238H271.717ZM269.072 97.234C266.249 98.7312 265.368 98.9954 261.399 99.7C253.638 101.021 251.169 104.104 251.169 107.539C251.169 111.854 254.255 114.761 258.93 114.761C264.75 114.761 269.16 110.797 269.16 105.601V97.234H269.072Z" fill="#8A2432"/>
<path d="M282.653 96.6174C283.799 92.8302 286.092 85.432 292.001 85.432C293.06 85.432 293.853 85.6082 295.441 86.3127L295.264 89.3073C293.677 88.4265 292.795 88.0742 291.648 88.0742C284.329 88.0742 282.829 100.669 282.829 104.016V116.258H280.184V86.3127H282.653V96.6174Z" fill="#8A2432"/>
<path d="M306.2 73.0135V86.3128H313.696V88.7789H306.2V110.885C306.2 113.528 307.435 114.673 310.433 114.673C311.139 114.673 311.844 114.585 313.52 114.32V116.522C311.756 116.786 310.521 116.963 309.64 116.963C305.671 116.963 303.466 115.113 303.466 111.59V88.6908H297.293V86.2247H303.466V74.4227L306.2 73.0135Z" fill="#8A2432"/>
<path d="M319.958 72.5731H336.362C344.299 72.5731 349.767 77.5934 349.767 84.8155C349.767 92.4779 344.563 97.0578 335.832 97.0578H322.868V116.258H319.958V72.5731ZM322.868 75.0392V94.5917H334.951C342.359 94.5917 346.768 90.9806 346.768 84.7274C346.768 79.0025 342.447 75.0392 336.097 75.0392H322.868Z" fill="#8A2432"/>
<path d="M376.312 111.238C376.312 113.263 377.194 114.673 378.605 114.673C378.958 114.673 379.487 114.585 380.104 114.408V116.875C379.222 117.139 378.605 117.139 378.164 117.139C375.695 117.139 374.019 115.113 373.754 111.414C372.255 113.352 369.345 117.051 362.731 117.051C357.351 117.051 353.03 112.911 353.03 107.803C353.03 99.8762 361.672 98.1147 365.817 97.4101C370.668 96.5294 371.373 96.2651 373.754 94.4156C373.931 88.4265 368.904 87.8981 366.082 87.8981C360.438 87.8981 357.175 89.9238 355.852 94.5037L353.823 92.7422C354.793 90.2761 356.822 85.6082 366.346 85.6082C369.874 85.6082 372.696 86.577 374.548 88.3385C376.047 89.8357 376.4 91.1568 376.4 94.6798V111.238H376.312ZM373.754 97.234C370.932 98.7312 370.05 98.9954 366.082 99.7C358.321 101.021 355.852 104.104 355.852 107.539C355.852 111.854 358.938 114.761 363.612 114.761C369.433 114.761 373.843 110.797 373.843 105.601V97.234H373.754Z" fill="#8A2432"/>
<path d="M381.163 86.3127H383.632L393.862 113.704L402.77 86.3127H405.151L394.392 120.045C392.54 126.034 390.423 127.796 385.308 127.796H382.75L382.838 125.33H385.661C390.07 125.33 390.864 123.392 392.804 117.227L381.163 86.3127Z" fill="#8A2432"/>
<path d="M417.851 77.0649C417.851 80.8521 414.764 83.8466 411.06 83.8466C407.268 83.8466 404.269 80.764 404.269 77.0649C404.269 73.2777 407.356 70.2832 411.06 70.2832C414.852 70.2832 417.851 73.3658 417.851 77.0649ZM405.327 77.0649C405.327 80.2356 407.885 82.7898 411.06 82.7898C414.146 82.7898 416.704 80.2356 416.704 77.0649C416.704 73.9823 414.146 71.4282 411.06 71.4282C407.885 71.4282 405.327 73.9823 405.327 77.0649ZM408.061 80.8521V73.5419H410.619C411.765 73.5419 412.118 73.542 412.647 73.8062C413.265 74.0704 413.794 74.775 413.794 75.4796C413.794 76.6245 412.912 77.5053 411.677 77.5934C412.206 77.8576 412.647 78.298 413.353 79.4429L414.235 80.8521H412.824L412.206 79.7072C411.236 78.0337 410.972 77.7695 410.001 77.7695H409.296V80.8521H408.061ZM409.208 76.7126H410.619C411.854 76.7126 412.383 76.3603 412.383 75.5677C412.383 74.775 411.853 74.5108 410.531 74.5108H409.208V76.7126Z" fill="#8A2432"/>
<path d="M166.858 150.96C166.946 152.281 167.211 152.985 167.828 153.69C168.534 154.394 169.504 154.659 170.827 154.659C173.031 154.659 174.442 153.338 174.442 151.312C174.442 149.991 173.737 149.022 171.444 147.525C169.68 146.38 168.093 145.147 168.093 142.504C168.093 139.862 170.297 137.925 173.384 137.925C175.236 137.925 176.735 138.541 177.705 139.774C178.058 140.214 178.235 140.567 178.499 141.448L176.647 142.857C176.471 141.095 175.148 140.038 173.12 140.038C171.356 140.038 170.209 141.007 170.209 142.504C170.209 143.473 170.915 144.266 172.767 145.411C174.707 146.556 176.735 148.229 176.735 151.048C176.735 154.483 174.178 156.684 170.474 156.684C168.886 156.684 167.475 156.244 166.505 155.451C165.623 154.747 165.359 154.13 164.918 152.457L166.858 150.96Z" fill="#6D6E70"/>
<path d="M181.145 144.002H183.174L181.41 151.048C181.233 151.664 181.145 152.281 181.145 152.633C181.145 153.866 182.027 154.659 183.262 154.659C185.026 154.659 186.437 153.338 186.966 151.136L188.73 143.914H190.758L187.76 156.068H185.731L186.172 154.131C185.467 154.923 184.144 156.244 182.115 156.244C180.263 156.244 178.94 154.923 178.94 152.986C178.94 152.457 179.117 151.664 179.293 150.784L181.145 144.002Z" fill="#6D6E70"/>
<path d="M194.903 145.851C196.049 144.266 196.931 143.738 198.342 143.738C200.459 143.738 201.958 145.587 201.958 148.317C201.958 152.721 199.312 156.508 196.226 156.508C193.756 156.508 193.227 154.835 192.963 153.954L191.199 161H189.259L193.404 144.09H195.432L194.903 145.851ZM199.842 148.229C199.842 146.556 198.96 145.411 197.549 145.411C194.638 145.411 193.492 150.872 193.492 152.281C193.492 153.778 194.374 154.835 195.697 154.835C197.901 154.835 199.842 151.752 199.842 148.229Z" fill="#6D6E70"/>
<path d="M206.897 145.851C208.043 144.266 208.925 143.738 210.336 143.738C212.453 143.738 213.952 145.587 213.952 148.317C213.952 152.721 211.306 156.508 208.22 156.508C205.75 156.508 205.221 154.835 204.957 153.954L203.193 161H201.253L205.398 144.09H207.426L206.897 145.851ZM211.836 148.229C211.836 146.556 210.954 145.411 209.543 145.411C206.632 145.411 205.486 150.872 205.486 152.281C205.486 153.778 206.368 154.835 207.691 154.835C209.895 154.835 211.836 151.752 211.836 148.229Z" fill="#6D6E70"/>
<path d="M214.834 151.488C214.834 147.084 217.921 143.738 221.89 143.738C224.976 143.738 226.916 145.675 226.916 148.934C226.916 153.162 223.83 156.596 220.038 156.596C216.774 156.508 214.834 154.659 214.834 151.488ZM224.8 148.758C224.8 146.732 223.653 145.411 221.89 145.411C219.067 145.411 217.039 148.053 217.039 151.576C217.039 153.69 218.185 154.923 219.949 154.923C222.683 154.923 224.8 152.281 224.8 148.758Z" fill="#6D6E70"/>
<path d="M229.826 144.002H231.855L230.62 148.934L232.737 144.883C233.178 144.09 234.148 143.826 234.412 143.826C234.677 143.826 235.03 143.914 235.559 144.178L235.206 146.204C234.677 145.939 234.412 145.851 234.059 145.851C233.178 145.851 232.472 146.468 231.678 148.053C230.885 149.462 230.091 151.224 229.915 152.193L228.944 156.156H226.916L229.826 144.002Z" fill="#6D6E70"/>
<path d="M239.439 139.158L241.644 138.541L240.145 144.002H241.909L241.556 145.587H239.704L237.587 153.25C237.499 153.514 237.499 153.69 237.499 153.866C237.499 154.483 237.94 154.835 238.822 154.835C239.439 154.835 240.321 154.659 241.115 154.395L240.674 156.156L240.145 156.244C239.263 156.508 238.734 156.508 237.94 156.508C236.176 156.508 235.294 155.804 235.294 154.395C235.294 154.042 235.383 153.602 235.471 153.25L237.676 145.587H236L236.441 144.002H238.205L239.439 139.158Z" fill="#6D6E70"/>
<path d="M244.907 144.002H246.936L243.937 156.156H241.909L244.907 144.002ZM246.407 138.982H248.17L247.641 141.272H245.878L246.407 138.982Z" fill="#6D6E70"/>
<path d="M250.992 146.028C251.963 145.059 253.197 143.826 254.961 143.826C256.901 143.826 258.224 145.147 258.224 146.996C258.224 147.349 258.136 147.701 258.048 148.053L256.108 156.156H254.079L255.931 148.317C256.019 147.965 256.019 147.701 256.019 147.349C256.019 146.116 255.226 145.411 253.903 145.411C252.139 145.411 250.728 146.908 250.111 149.198L248.435 156.156H246.406L249.405 144.002H251.345L250.992 146.028Z" fill="#6D6E70"/>
<path d="M265.985 154.571C265.015 155.892 263.956 156.508 262.722 156.508C260.517 156.508 259.018 154.57 259.018 151.664C259.018 147.348 261.752 143.649 264.927 143.649C266.514 143.649 267.572 144.53 268.013 146.203L268.631 143.914H270.659L267.308 157.301C266.779 159.503 265.015 160.736 262.457 160.736C259.988 160.736 258.489 159.855 257.607 157.917L259.371 157.213C260.076 158.534 260.87 159.15 262.457 159.15C264.045 159.15 265.015 158.446 265.368 156.949L265.985 154.571ZM266.514 152.192C267.043 150.695 267.484 148.846 267.484 147.789C267.484 146.38 266.602 145.323 265.279 145.323C262.369 145.323 261.223 149.814 261.223 151.752C261.223 153.249 261.84 154.747 263.516 154.747C264.75 154.747 265.808 153.866 266.514 152.192Z" fill="#6D6E70"/>
<path d="M275.51 144.002H277.273L278.243 153.337L282.918 144.002H284.858L278.155 157.477C277.009 159.679 276.391 160.912 273.746 160.912C273.217 160.912 272.864 160.912 272.07 160.824L272.511 159.238C272.952 159.327 273.305 159.327 273.481 159.327C275.245 159.327 275.598 158.622 276.656 156.332L275.51 144.002Z" fill="#6D6E70"/>
<path d="M283.976 151.488C283.976 147.084 287.063 143.738 291.031 143.738C294.118 143.738 296.058 145.675 296.058 148.934C296.058 153.162 292.972 156.596 289.179 156.596C285.828 156.508 283.976 154.659 283.976 151.488ZM293.854 148.758C293.854 146.732 292.707 145.411 290.943 145.411C288.121 145.411 286.093 148.053 286.093 151.576C286.093 153.69 287.239 154.923 289.003 154.923C291.825 154.923 293.854 152.281 293.854 148.758Z" fill="#6D6E70"/>
<path d="M298.792 144.002H300.821L299.057 151.048C298.88 151.664 298.792 152.281 298.792 152.633C298.792 153.866 299.674 154.659 300.909 154.659C302.673 154.659 304.084 153.338 304.613 151.136L306.377 143.914H308.405L305.407 156.068H303.378L303.819 154.131C303.114 154.923 301.791 156.244 299.762 156.244C297.91 156.244 296.587 154.923 296.587 152.986C296.587 152.457 296.764 151.664 296.94 150.784L298.792 144.002Z" fill="#6D6E70"/>
<path d="M310.698 144.002H312.727L311.492 148.934L313.608 144.883C314.049 144.09 315.02 143.826 315.284 143.826C315.549 143.826 315.901 143.914 316.431 144.178L316.078 146.204C315.549 145.939 315.284 145.851 314.931 145.851C314.049 145.851 313.344 146.468 312.55 148.053C311.756 149.462 310.963 151.224 310.786 152.193L309.816 156.156H307.788L310.698 144.002Z" fill="#6D6E70"/>
<path d="M323.574 145.939C324.28 145.147 325.602 143.826 327.454 143.826C329.13 143.826 330.277 144.706 330.541 146.468C331.07 145.851 332.658 143.826 334.863 143.826C336.626 143.826 337.949 145.059 337.949 146.82C337.949 147.084 337.861 147.437 337.861 147.701L335.744 156.244H333.716L335.656 148.229C335.744 147.877 335.744 147.613 335.744 147.261C335.744 146.116 335.039 145.499 333.716 145.499C331.952 145.499 330.629 146.732 330.188 148.758L328.336 156.244H326.308L328.336 148.053C328.425 147.789 328.425 147.613 328.425 147.349C328.425 146.204 327.631 145.499 326.308 145.499C324.544 145.499 323.221 146.82 322.692 149.11L320.928 156.156H318.9L321.898 144.002H323.839L323.574 145.939Z" fill="#6D6E70"/>
<path d="M341.477 144.002H343.505L340.507 156.156H338.479L341.477 144.002ZM343.064 138.982H344.828L344.299 141.272H342.535L343.064 138.982Z" fill="#6D6E70"/>
<path d="M344.475 152.369C345.005 153.69 345.534 154.835 347.915 154.835C349.679 154.835 350.649 154.13 350.649 153.073C350.649 152.104 350.031 151.576 348.268 150.959C346.945 150.519 344.828 149.726 344.828 147.348C344.828 145.235 346.68 143.649 349.238 143.649C352.148 143.649 353.206 145.587 353.559 146.38L351.883 147.26C351.002 145.939 350.208 145.411 348.885 145.411C347.65 145.411 346.68 146.203 346.68 147.172C346.68 148.053 347.298 148.581 349.061 149.198C350.031 149.55 352.677 150.431 352.677 152.897C352.677 155.187 350.825 156.596 347.827 156.596C344.123 156.596 343.417 155.099 342.8 153.161L344.475 152.369Z" fill="#6D6E70"/>
<path d="M354.882 152.369C355.411 153.69 355.94 154.835 358.321 154.835C360.085 154.835 361.055 154.13 361.055 153.073C361.055 152.104 360.438 151.576 358.674 150.959C357.351 150.519 355.234 149.726 355.234 147.348C355.234 145.235 357.086 143.649 359.644 143.649C362.554 143.649 363.613 145.587 363.965 146.38L362.29 147.26C361.408 145.939 360.614 145.411 359.291 145.411C358.057 145.411 357.086 146.203 357.086 147.172C357.086 148.053 357.704 148.581 359.468 149.198C360.438 149.55 363.083 150.431 363.083 152.897C363.083 155.187 361.231 156.596 358.233 156.596C354.529 156.596 353.823 155.099 353.206 153.161L354.882 152.369Z" fill="#6D6E70"/>
<path d="M367.582 144.002H369.61L366.611 156.156H364.583L367.582 144.002ZM369.081 138.982H370.845L370.315 141.272H368.552L369.081 138.982Z" fill="#6D6E70"/>
<path d="M369.786 151.488C369.786 147.084 372.873 143.738 376.841 143.738C379.928 143.738 381.868 145.675 381.868 148.934C381.868 153.162 378.782 156.596 374.989 156.596C371.726 156.508 369.786 154.659 369.786 151.488ZM379.752 148.758C379.752 146.732 378.605 145.411 376.841 145.411C374.019 145.411 371.991 148.053 371.991 151.576C371.991 153.69 373.137 154.923 374.901 154.923C377.635 154.923 379.752 152.281 379.752 148.758Z" fill="#6D6E70"/>
<path d="M386.366 146.028C387.336 145.059 388.571 143.826 390.335 143.826C392.275 143.826 393.598 145.147 393.598 146.996C393.598 147.349 393.509 147.701 393.421 148.053L391.481 156.156H389.453L391.305 148.317C391.393 147.965 391.393 147.701 391.393 147.349C391.393 146.116 390.599 145.411 389.276 145.411C387.512 145.411 386.101 146.908 385.484 149.198L383.808 156.156H381.78L384.779 144.002H386.719L386.366 146.028Z" fill="#6D6E70"/>
</svg>
